<?xml version="1.0" standalone="no"?>
<!DOCTYPE svg PUBLIC "-//W3C//DTD SVG 1.1//EN" "http://www.w3.org/Graphics/SVG/1.1/DTD/svg11.dtd">
<svg xmlns="http://www.w3.org/2000/svg">
<defs >
<font id="BarlowCondensed" horiz-adv-x="416" ><font-face
    font-family="Barlow Condensed"
    units-per-em="1000"
    panose-1="0 0 8 6 0 0 0 0 0 0"
    ascent="1000"
    descent="-200"
    alphabetic="0" />
<glyph unicode=" " glyph-name="space" horiz-adv-x="194" />
<glyph unicode="!" glyph-name="exclam" horiz-adv-x="271" d="M97 240T94 243T92 252L131 688Q132 693 135 696T144 700H258Q263 700 266 697T268 688L201 252Q200 247 197 244T188 240H102Q97 240 94 243ZM87 1T68 20T49 68Q49 108 74 133T136 159Q167 159 185
141T203 93Q203 55 178 28T117 1Q87 1 68 20Z" />
<glyph unicode="&quot;" glyph-name="quotedbl" horiz-adv-x="335" d="M73 471T70 474T67 483L79 686Q81 698 92 698H198Q210 698 207 686L170 483Q169 471 156 471H78Q73 471 70 474ZM251 471T248 474T245 483L257 686Q259 698 269 698H376Q388 698 385 686L347
483Q346 471 333 471H256Q251 471 248 474Z" />
<glyph unicode="#" glyph-name="numbersign" horiz-adv-x="597" d="M595 411T592 408T583 404H524Q518 404 518 399L492 300Q490 295 495 295H536Q541 295 544 292T546 283L534 187Q533 182 530 179T521 175H463Q458 175 456 170L422 38Q419 27 408 27H294Q282
27 285 40L320 170Q320 175 316 175H236Q231 175 229 170L195 38Q192 27 181 27H67Q55 27 58 40L93 170Q93 175 89 175H47Q42 175 39 178T37 187L48 283Q49 288 52 291T61 295H122Q124 295 126 296T128 300L154 399Q154 404 150 404H109Q104 404 101 407T99 416L111
513Q111 518 115 521T124 525H183Q189 525 189 530L224 662Q227 673 238 673H351Q363 673 360 660L326 530Q326 525 329 525H410Q416 525 416 530L451 662Q454 673 465 673H578Q590 673 587 660L553 530Q553 525 556 525H598Q603 525 606 522T608 513L596 416Q595
411 592 408ZM351 295T353 296T355 300L381 399Q381 404 377 404H297Q291 404 291 399L265 300Q263 295 268 295H349Q351 295 353 296Z" />
<glyph unicode="$" glyph-name="dollar" horiz-adv-x="431" d="M401 110T358 61T249 -2Q245 -4 243 -8L238 -64Q237 -69 233 -72T224 -76H146Q141 -76 138 -73T136 -64L144 -6Q144 -2 140 -1Q88 13 59 53T29 148Q29 157 31 175L35 204Q36 209 39 212T48 216H159Q170
216 170 204L167 182Q166 178 166 170Q166 144 179 129T213 113Q239 113 257 134T276 188Q276 214 259 234T194 293Q154 325 129 350T87 411T69 493Q69 573 113 629T227 702Q231 703 231 708L238 773Q239 778 243 781T252 785H329Q334 785 337 782T339 773L330
708Q330 703 334 702Q388 688 418 647T449 544Q449 536 447 516L444 492Q443 487 439 484T430 480H319Q314 480 311 483T309 492L312 519Q313 523 313 532Q313 557 301 572T266 587Q240 587 223 566T205 508Q205 484 221 463T282 404Q332 362 357 337T398 281T413
212Q413 204 411 184Q401 110 358 61Z" />
<glyph unicode="%" glyph-name="percent" horiz-adv-x="743" d="M165 393T128 432T90 530Q90 577 114 618T177 684T262 709Q319 709 356 669T393 570Q393 523 369 483T306 418T223 393Q165 393 128 432ZM125 0T125 6Q125 10 128 14L564 692Q569 700 580 700H652Q661
700 661 694Q661 691 658 686L222 8Q217 0 207 0H134Q125 0 125 6ZM267 466T293 495T320 563Q320 594 301 614T253 635Q217 635 190 607T163 539Q163 507 182 487T232 466Q267 466 293 495ZM472 -9T435 30T398 129Q398 176 421 217T484 282T568 307Q625 307 662
268T700 171Q700 123 677 82T614 16T529 -9Q472 -9 435 30ZM574 65T601 93T628 160Q628 192 609 213T559 234Q524 234 497 206T470 139Q470 107 489 86T539 65Q574 65 601 93Z" />
<glyph unicode="&amp;" glyph-name="ampersand" horiz-adv-x="584" d="M534 12T534 8Q534 0 524 0H401Q391 0 387 7L367 38Q365 42 361 39Q284 -9 195 -9Q114 -9 70 28T25 138Q25 148 27 168Q35 233 68 278T155 361Q159 363 157 368Q127 418 116 447T104 502Q104
510 106 528Q116 610 171 659T306 708Q381 708 427 665T473 550Q473 478 436 429T335 336Q331 333 333 329L355 294L393 233Q397 229 401 233Q426 263 454 307Q460 318 470 312L548 263Q553 261 553 254Q553 249 551 246Q508 180 465 129Q463 127 464 122L532 15Q534
12 534 8ZM270 580T256 560T241 508Q241 496 246 482T266 440Q269 437 273 439Q335 484 335 534Q335 555 324 567T294 580Q270 580 256 560ZM254 111T297 137Q302 142 299 144L276 180L226 257Q223 261 219 258Q193 237 180 215T166 168Q166 144 180 128T224 111Q254
111 297 137Z" />
<glyph unicode="&apos;" glyph-name="quotesingle" horiz-adv-x="165" d="M72 473T69 476T66 485L80 687Q80 699 92 699H206Q218 699 215 687L177 485Q174 473 163 473H77Q72 473 69 476Z" />
<glyph unicode="(" glyph-name="parenleft" horiz-adv-x="302" d="M82 -91T79 -83Q15 42 15 215Q15 273 22 332Q38 463 80 568T181 751Q186 759 196 759H308Q314 759 316 755T315 745Q202 549 176 333Q168 263 168 208Q168 63 214 -77L215 -81Q215 -85 212 -88T203
-91H92Q82 -91 79 -83Z" />
<glyph unicode=")" glyph-name="parenright" horiz-adv-x="302" d="M263 759T266 751Q330 623 330 454Q330 402 322 335Q306 205 264 99T163 -83Q159 -91 149 -91H37Q31 -91 29 -87T30 -77Q143 122 169 335Q177 405 177 458Q177 603 131 745L130 749Q130 753 133
756T142 759H253Q263 759 266 751Z" />
<glyph unicode="*" glyph-name="asterisk" horiz-adv-x="351" d="M167 396T167 408L179 491Q179 494 177 495T173 494L98 452Q94 450 92 450Q87 450 83 457L62 507Q61 509 61 512Q61 518 68 523L148 567Q154 571 149 574L80 617Q75 620 75 625Q75 629 78 633L111
686Q115 691 119 692T128 691L192 647Q194 645 196 646T198 650L207 734Q208 739 212 742T221 746H275Q280 746 283 743T285 734L274 650Q273 647 275 646T279 647L354 691Q358 693 360 693Q366 693 369 686L390 633Q391 631 391 628Q391 621 384 617L305 574Q300
571 304 567L373 523Q380 517 375 507L341 454Q337 449 333 448T324 450L260 494Q258 496 257 495T254 491L245 408Q244 403 241 400T232 396H178Q167 396 167 408Z" />
<glyph unicode="+" glyph-name="plus" horiz-adv-x="425" d="M421 364T424 361T426 352L416 270Q415 265 412 262T403 258H281Q276 258 276 253L260 128Q259 123 256 120T247 116H168Q163 116 160 119T157 128L173 253Q173 258 168 258H47Q42 258 39 261T37 270L47
352Q48 357 51 360T60 364H181Q187 364 187 369L202 495Q203 500 207 503T216 507H295Q300 507 303 504T305 495L290 369Q288 364 294 364H416Q421 364 424 361Z" />
<glyph unicode="," glyph-name="comma" horiz-adv-x="204" d="M4 -98T1 -95T-1 -85L49 147Q52 158 62 158H161Q174 158 170 145L90 -87Q85 -98 76 -98H9Q4 -98 1 -95Z" />
<glyph unicode="-" glyph-name="hyphen" horiz-adv-x="321" d="M39 235T36 238T34 247L46 344Q47 349 50 352T59 356H310Q321 356 321 344L309 247Q308 242 305 239T296 235H44Q39 235 36 238Z" />
<glyph unicode="." glyph-name="period" horiz-adv-x="217" d="M58 -4T39 15T20 65Q20 103 45 128T108 154Q139 154 157 136T176 86Q176 48 150 22T88 -4Q58 -4 39 15Z" />
<glyph unicode="/" glyph-name="slash" horiz-adv-x="403" d="M2 0T0 3T0 14L295 690Q300 700 309 700H423Q429 700 431 696T431 686L135 10Q130 0 121 0H8Q2 0 0 3Z" />
<glyph unicode="0" glyph-name="zero" horiz-adv-x="439" d="M121 -11T76 35T31 158Q31 169 33 191L72 509Q83 600 142 655T287 711Q365 711 410 666T455 542Q455 531 453 509L414 191Q404 100 344 45T198 -11Q121 -11 76 35ZM238 110T255 130T277 183L318 517Q319
522 319 531Q319 558 307 574T272 590Q248 590 231 570T210 517L169 183Q168 178 168 168Q168 142 180 126T213 110Q238 110 255 130Z" />
<glyph unicode="1" glyph-name="one" horiz-adv-x="276" d="M171 700T178 700H295Q306 700 306 688L223 12Q222 7 219 4T210 0H96Q91 0 88 3T86 12L153 558Q153 562 149 562L73 553H71Q61 553 61 564L69 650Q70 660 80 664L163 697Q171 700 178 700Z" />
<glyph unicode="2" glyph-name="two" horiz-adv-x="425" d="M185 125T186 123T189 121H392Q397 121 400 118T402 109L390 12Q390 7 386 4T377 0H18Q13 0 10 3T8 12L21 113Q21 121 27 128Q58 165 90 200Q191 315 233 371Q304 469 304 533Q304 559 293 573T263 587Q240
587 225 569T207 521L202 480Q201 475 197 472T188 468H73Q68 468 65 471T63 480L69 527Q83 609 142 658T284 708Q357 708 400 664T444 546Q444 537 442 515Q435 463 413 417T349 315Q303 257 238 185Q226 170 213 156T187 127Q185 125 186 123Z" />
<glyph unicode="3" glyph-name="three" horiz-adv-x="423" d="M404 257T400 222Q393 174 387 147Q370 75 319 34T190 -8Q110 -8 65 36T25 153Q25 171 29 211Q31 223 42 223H155Q168 223 166 211Q163 189 163 168Q163 142 174 128T205 113Q224 113 238 127T260
165Q263 180 272 237Q277 284 276 311Q275 333 264 346T235 359Q220 359 204 346Q198 342 196 342Q191 342 188 347L137 408Q135 410 135 415Q135 421 139 425L274 574Q278 580 272 580H97Q92 580 89 583T87 592L99 688Q100 693 103 696T112 700H446Q451 700 454
697T456 688L444 588Q443 581 437 573L311 432Q307 426 312 426Q354 422 379 386T404 296Q404 257 400 222Z" />
<glyph unicode="4" glyph-name="four" horiz-adv-x="469" d="M467 304T470 301T472 292L460 189Q459 184 456 181T447 177H417Q411 177 411 172L391 12Q391 7 387 4T378 0H265Q260 0 257 3T255 12L274 172Q276 177 270 177H28Q17 177 17 189L27 271L31 286L210
690Q215 700 224 700H347Q353 700 355 697T355 686L192 310Q191 304 195 304H286Q291 304 291 309L304 413Q305 418 308 421T317 425H430Q435 425 438 422T441 413L428 309Q428 304 432 304H462Q467 304 470 301Z" />
<glyph unicode="5" glyph-name="five" horiz-adv-x="426" d="M415 272T414 254T411 218Q406 178 400 155Q387 78 333 35T196 -8Q118 -8 76 32T33 151L34 179Q36 191 47 191H160Q171 191 171 179V163Q174 113 211 113Q230 113 244 126T265 164Q271 190 274 219Q277
238 277 270Q274 317 236 317Q198 317 184 282Q179 271 170 271H56Q45 271 45 283L95 688Q96 693 99 696T108 700H451Q456 700 459 697T461 688L449 591Q448 586 445 583T436 579H223Q218 579 218 574L197 406Q197 403 198 402T203 404Q221 421 244 430T293 439Q355
439 387 397T415 280Q415 272 414 254Z" />
<glyph unicode="6" glyph-name="six" horiz-adv-x="427" d="M416 260T412 218L403 158Q390 79 336 36T198 -8Q120 -8 77 32T35 151Q33 176 38 206L76 529Q86 611 142 659T284 708Q356 708 399 668T442 558Q442 549 440 529L437 499Q436 494 433 491T424 487H310Q305
487 302 490T300 499L303 521Q306 548 296 566T269 584Q247 584 232 567T212 521L200 420Q199 417 201 417T206 418Q241 446 282 446Q345 446 380 406T416 298Q416 284 415 277Q416 260 412 218ZM272 211T274 228Q278 258 278 290Q278 313 268 326T240 339Q220
339 206 326T187 288Q178 239 176 228Q174 208 172 166Q171 140 181 126T212 112Q231 112 245 127T265 169Q272 211 274 228Z" />
<glyph unicode="7" glyph-name="seven" horiz-adv-x="395" d="M65 0T63 4T63 14L290 573Q292 579 286 579H180Q176 579 174 574L170 539Q169 534 166 531T157 527H70Q59 527 59 539L79 688Q80 693 83 696T92 700H440Q445 700 448 697T450 688L438 586Q436 578
434 572L205 10Q200 0 191 0H71Q65 0 63 4Z" />
<glyph unicode="8" glyph-name="eight" horiz-adv-x="427" d="M351 365T355 362Q385 341 396 303Q405 275 405 238Q405 215 403 202Q398 158 376 110Q349 55 301 24T193 -8Q133 -8 93 23T39 110Q32 134 32 163Q32 183 35 202Q41 257 64 300Q82 337 121 361Q127
364 122 367Q91 390 81 427Q72 456 72 488Q72 509 74 520Q80 575 103 613Q129 660 176 686T282 713Q338 713 378 688T434 614Q444 588 444 552Q444 542 442 520Q437 472 412 428Q392 391 356 369Q351 365 355 362ZM210 532T207 507Q206 500 206 488Q206 477 208
461Q209 441 219 429T245 417Q262 417 275 429T294 462Q303 481 306 506Q307 512 307 523Q307 538 304 550Q302 569 292 580T267 592Q250 592 238 581T218 548Q210 532 207 507ZM266 186T269 211Q271 222 271 241Q271 256 270 263Q268 285 258 297T232 310Q215
310 202 297T181 261Q173 234 171 213Q168 185 169 165Q170 141 180 127T208 113Q226 113 240 127T260 167Q266 186 269 211Z" />
<glyph unicode="9" glyph-name="nine" horiz-adv-x="422" d="M383 89T327 41T185 -8Q113 -8 70 32T27 142Q27 151 29 171L32 201Q33 206 37 209T46 213H159Q164 213 167 210T169 201L167 179Q166 174 166 166Q166 144 176 130T200 116Q222 116 237 133T256 179L268
279Q269 282 267 282T262 281Q228 254 187 254Q124 254 88 294T52 404L53 423Q53 440 57 482Q63 521 67 542Q79 620 134 664T271 708Q348 708 391 670T434 554Q434 516 431 494L393 171Q383 89 327 41ZM286 428T292 472Q296 504 297 534Q298 560 288 574T257 588Q238
588 224 573T204 531Q199 508 195 472Q191 444 190 410Q191 387 201 374T230 361Q249 361 262 374T282 412Q286 428 292 472Z" />
<glyph unicode=":" glyph-name="colon" horiz-adv-x="267" d="M125 329T106 348T87 398Q87 436 112 461T175 487Q206 487 224 469T243 419Q243 381 217 355T155 329Q125 329 106 348ZM85 1T66 20T47 70Q47 108 72 133T135 159Q166 159 184 141T203 91Q203 53 177
27T115 1Q85 1 66 20Z" />
<glyph unicode=";" glyph-name="semicolon" horiz-adv-x="225" d="M99 313T79 334T59 388Q59 414 73 436T109 472T153 486Q183 486 204 464T226 410Q226 371 198 342T132 313Q99 313 79 334ZM4 -97T7 -85L52 144Q53 149 57 152T66 156H165Q177 156 173 143L98
-86Q95 -97 84 -97H16Q4 -97 7 -85Z" />
<glyph unicode="&lt;" glyph-name="less" horiz-adv-x="425" d="M390 57T386 54T376 54L40 224Q32 229 33 238L46 339Q46 348 56 353L434 523Q436 524 439 524Q448 524 446 513L433 404Q431 395 422 390L177 292Q171 289 177 286L397 187Q406 183 404 173L391
64Q390 57 386 54Z" />
<glyph unicode="=" glyph-name="equal" horiz-adv-x="425" d="M54 354T51 357T49 366L59 448Q60 453 63 456T72 460H428Q433 460 436 457T438 448L428 366Q427 361 424 358T415 354H59Q54 354 51 357ZM287 426T284 429T282 438L292 520Q293 525 296 528T305 532H661Q666
532 669 529T671 520L661 438Q660 433 657 430T648 426H292Q287 426 284 429Z" />
<glyph unicode="&gt;" glyph-name="greater" horiz-adv-x="425" d="M22 53T19 53Q10 53 12 64L25 173Q27 183 36 187L281 286Q287 289 281 292L60 390Q53 394 53 404L67 513Q68 520 72 523T82 523L418 353Q426 348 425 339L412 238Q412 229 402 224L24 54Q22 53 19 53Z" />
<glyph unicode="?" glyph-name="question" horiz-adv-x="424" d="M145 222T142 225T140 234L144 266Q150 316 174 346T240 410Q277 440 295 464T313 524Q313 550 301 565T266 581Q238 581 219 560T196 506L194 490Q193 479 181 479L68 484Q63 484 60 487T58 496L59
506Q66 566 97 612T177 684T285 710Q363 710 407 666T452 547Q452 537 450 515Q445 471 429 440T394 389T344 344Q312 318 297 301T279 257L276 234Q275 229 272 226T263 222H150Q145 222 142 225ZM149 -2T131 17T112 66Q112 104 137 129T198 155Q229 155 248 137T267
87Q267 49 241 24T179 -2Q149 -2 131 17Z" />
<glyph unicode="@" glyph-name="at" horiz-adv-x="737" d="M551 655T610 624T702 537T735 405Q735 362 723 312Q698 213 640 158T506 102Q441 102 411 143Q408 146 404 142Q387 121 364 112T321 103Q274 103 250 130T226 196Q226 203 228 219Q231 236 244 292Q253
334 260 352Q276 413 307 441T388 470Q400 470 414 465T437 448Q444 443 444 450L445 453Q448 464 459 464H527Q540 464 536 451L493 276Q489 259 489 243Q489 218 500 206T531 193Q563 193 587 226T626 315Q636 352 636 389Q636 471 587 519T453 567Q385 567 321
531T210 430T143 283Q133 240 133 202Q133 142 157 100T220 37T306 16Q370 16 432 56Q437 59 439 59Q444 59 447 53L472 -2Q474 -6 474 -8Q474 -15 467 -19Q380 -74 279 -74Q208 -74 153 -44T67 44T36 179Q36 232 50 287Q75 393 139 477T292 608T473 655Q551 655
610 624ZM360 181T371 192T388 222Q393 245 404 286Q409 315 419 347Q421 357 421 360Q421 373 414 380T395 388Q379 388 367 377T350 347Q338 301 334 283Q330 266 329 261Q320 224 319 222Q318 217 318 209Q318 196 324 189T344 181Q360 181 371 192Z" />
<glyph unicode="A" glyph-name="A" horiz-adv-x="468" d="M297 0T297 11L293 107Q294 109 292 110T288 112H165Q159 112 159 107L131 11Q128 0 117 0H4Q-8 0 -4 13L221 689Q224 700 235 700H366Q376 700 378 689L436 13V10Q436 0 425 0H308Q297 0 297 11ZM191
221T196 221H283Q288 221 288 226L276 499Q275 502 273 502T270 499L193 226Q191 221 196 221Z" />
<glyph unicode="B" glyph-name="B" horiz-adv-x="456" d="M427 102T367 51T218 0H35Q30 0 27 3T25 12L108 688Q109 693 112 696T121 700H283Q371 700 419 661T468 543Q468 533 466 509Q454 411 382 365Q378 362 381 359Q439 313 439 228Q439 219 437 197Q427 102
367 51ZM231 579T231 574L211 417Q211 412 215 412H250Q288 412 309 439T331 514Q331 546 316 562T271 579H236Q231 579 231 574ZM255 122T276 146T303 214Q304 221 304 235Q304 270 289 290T247 310H203Q199 310 197 305L176 127Q174 122 180 122H223Q255 122
276 146Z" />
<glyph unicode="C" glyph-name="C" horiz-adv-x="450" d="M127 -8T81 36T35 157Q35 167 37 189L77 513Q87 602 146 655T294 708Q374 708 420 664T466 543Q466 533 464 513L462 502Q461 497 458 494T449 490L335 485Q324 485 325 496L328 522Q329 526 329 534Q329
558 316 572T279 587Q254 587 236 569T214 522L172 177Q171 173 171 166Q171 142 184 128T220 113Q246 113 264 130T286 177L289 204Q290 209 293 212T302 216L415 211Q420 211 423 208T425 199L424 189Q413 99 353 46T206 -8Q127 -8 81 36Z" />
<glyph unicode="D" glyph-name="D" horiz-adv-x="462" d="M30 0T27 3T25 12L108 688Q109 693 112 696T121 700H296Q377 700 423 656T470 536Q470 526 468 506L429 194Q418 106 359 53T210 0H35Q30 0 27 3ZM174 121T180 121L224 122Q250 123 269 145T294 203L330
497Q331 503 331 514Q331 544 318 561T279 579H236Q231 579 231 574L176 126Q174 121 180 121Z" />
<glyph unicode="E" glyph-name="E" horiz-adv-x="425" d="M451 586T448 583T439 579H236Q231 579 231 574L211 416Q211 411 215 411H332Q337 411 340 408T342 399L330 302Q329 297 326 294T317 290H201Q195 290 195 285L176 126Q174 121 180 121H382Q387 121 390
118T393 109L381 12Q380 7 377 4T368 0H35Q30 0 27 3T25 12L108 688Q109 693 112 696T121 700H454Q459 700 462 697T464 688L452 591Q451 586 448 583Z" />
<glyph unicode="F" glyph-name="F" horiz-adv-x="408" d="M450 586T447 583T438 579H236Q231 579 231 574L211 416Q211 411 215 411H331Q336 411 339 408T341 399L329 302Q328 297 325 294T316 290H201Q195 290 195 285L162 12Q161 7 157 4T148 0H35Q30 0 27 3T25
12L108 688Q109 693 112 696T121 700H453Q458 700 461 697T463 688L451 591Q450 586 447 583Z" />
<glyph unicode="G" glyph-name="G" horiz-adv-x="453" d="M126 -8T80 35T34 152Q34 161 36 181L77 519Q87 605 146 656T294 708Q373 708 419 665T466 547Q466 538 464 518L460 480Q459 475 455 472T446 468H333Q328 468 325 471T323 480L328 520Q329 524 329 532Q329
557 316 572T279 587Q254 587 236 569T214 520L172 180Q169 150 182 132T220 113Q246 113 264 131T286 180L296 260Q296 265 292 265H249Q244 265 241 268T239 277L250 366Q250 371 254 374T263 378H435Q446 378 446 366L423 181Q413 95 353 44T206 -8Q126 -8 80
35Z" />
<glyph unicode="H" glyph-name="H" horiz-adv-x="466" d="M352 693T355 696T364 700H478Q483 700 486 697T488 688L405 12Q404 7 401 4T392 0H278Q273 0 270 3T268 12L302 285Q302 290 298 290H201Q195 290 195 285L162 12Q161 7 157 4T148 0H35Q30 0 27 3T25
12L108 688Q109 693 112 696T121 700H234Q245 700 245 688L211 416Q211 411 215 411H312Q316 411 318 416L351 688Q352 693 355 696Z" />
<glyph unicode="I" glyph-name="I" horiz-adv-x="223" d="M30 0T27 3T25 12L108 688Q109 693 112 696T121 700H234Q245 700 245 688L162 12Q161 7 157 4T148 0H35Q30 0 27 3Z" />
<glyph unicode="J" glyph-name="J" horiz-adv-x="439" d="M105 -8T60 35T14 151Q14 160 16 180L25 249Q26 254 29 257T38 261H151Q162 261 162 249L153 178Q152 174 152 165Q152 142 164 128T198 113Q223 113 240 131T261 178L324 688Q325 693 328 696T337 700H451Q456
700 459 697T461 688L398 180Q388 95 329 44T183 -8Q105 -8 60 35Z" />
<glyph unicode="K" glyph-name="K" horiz-adv-x="476" d="M30 0T27 3T25 12L108 688Q109 693 112 696T121 700H234Q245 700 245 688L214 436Q213 432 215 432T219 435L376 691Q381 700 391 700H511Q518 700 520 697T518 686L339 398Q338 397 338 396T337 392L443
14L444 10Q444 0 433 0H311Q301 0 299 9L230 271Q230 274 228 274T223 271L189 219Q188 218 187 217T186 213L162 12Q161 7 157 4T148 0H35Q30 0 27 3Z" />
<glyph unicode="L" glyph-name="L" horiz-adv-x="413" d="M30 0T27 3T25 12L108 688Q109 693 112 696T121 700H234Q245 700 245 688L176 126Q174 121 180 121H383Q394 121 394 109L382 12Q381 7 378 4T369 0H35Q30 0 27 3Z" />
<glyph unicode="M" glyph-name="M" horiz-adv-x="531" d="M423 700T434 700H547Q552 700 555 697T557 688L474 12Q473 7 470 4T461 0H347Q342 0 339 3T337 12L392 461Q393 465 391 465T387 462L294 324Q288 316 285 316Q283 316 278 324L220 462Q218 465 216 465T214
461L159 12Q158 7 155 4T146 0H32Q27 0 24 3T22 12L105 688Q106 693 109 696T118 700H230Q234 700 238 698T243 692L310 533Q312 529 316 533L419 692Q423 700 434 700Z" />
<glyph unicode="N" glyph-name="N" horiz-adv-x="499" d="M386 693T389 696T398 700H511Q516 700 519 697T521 688L438 12Q437 7 434 4T425 0H297Q288 0 285 10L213 397Q212 400 210 400T207 396L161 12Q160 7 156 4T147 0H35Q30 0 27 3T25 12L108 688Q109 693
112 696T121 700H248Q257 700 259 690L333 303Q334 300 336 300T339 304L385 688Q386 693 389 696Z" />
<glyph unicode="O" glyph-name="O" horiz-adv-x="458" d="M128 -8T82 36T35 158Q35 168 37 190L76 510Q87 600 147 654T296 708Q377 708 424 664T471 542Q471 532 469 510L430 190Q419 100 359 46T209 -8Q128 -8 82 36ZM251 113T269 132T292 184L333 516Q334 520
334 528Q334 555 320 571T282 587Q255 587 237 568T214 516L173 184Q172 180 172 172Q172 145 186 129T223 113Q251 113 269 132Z" />
<glyph unicode="P" glyph-name="P" horiz-adv-x="451" d="M389 701T431 653T474 526Q474 501 472 488Q461 395 406 339T271 283H199Q195 283 193 278L161 12Q160 7 156 4T147 0H34Q29 0 26 3T24 12L107 689Q108 694 111 697T120 701H316Q389 701 431 653ZM290
393T313 423T336 505Q336 540 321 559T278 579H235Q230 579 230 574L208 398Q208 393 212 393H255Q290 393 313 423Z" />
<glyph unicode="Q" glyph-name="Q" horiz-adv-x="447" d="M369 708T414 662T459 537Q459 527 457 503L419 197Q410 127 373 76T277 4Q273 3 272 -1L262 -86Q261 -91 258 -94T249 -98H135Q130 -98 127 -95T125 -86L136 -1Q136 3 132 4Q87 22 62 64T36 163Q36 185
38 197L75 503Q86 595 145 651T291 708Q369 708 414 662ZM173 182Q172 177 172 169Q172 143 184 128T218 113Q243 113 259 132T280 182L322 518Q323 523 323 531Q323 557 311 572T276 587Q252 587 235 568T214 518L173 182Z" />
<glyph unicode="R" glyph-name="R" horiz-adv-x="457" d="M281 0T279 10L238 286Q236 290 233 290H201Q195 290 195 285L162 12Q161 7 157 4T148 0H35Q30 0 27 3T25 12L108 688Q109 693 112 696T121 700H317Q389 700 432 653T475 526Q475 502 473 489Q466 431
439 386T369 315Q367 314 366 313T366 309L419 14V12Q419 7 416 4T407 0H291Q281 0 279 10ZM231 579T231 574L210 403Q208 398 214 398H257Q291 398 314 428T337 507Q337 540 322 559T280 579H236Q231 579 231 574Z" />
<glyph unicode="S" glyph-name="S" horiz-adv-x="431" d="M120 -8T75 35T29 148Q29 157 31 175L35 204Q36 209 39 212T48 216H159Q170 216 170 204L167 182Q166 178 166 170Q166 144 179 129T213 113Q239 113 257 134T276 188Q276 214 259 234T194 293Q154 325
129 350T87 411T69 493Q69 556 96 605T172 681T281 708Q358 708 403 664T449 545Q449 536 447 516L444 492Q443 487 439 484T430 480H319Q314 480 311 483T309 492L312 519Q313 523 313 532Q313 557 301 572T266 587Q240 587 223 566T205 508Q205 484 221 463T282
404Q332 362 357 337T398 281T413 212Q413 204 411 184Q400 96 341 44T197 -8Q120 -8 75 35Z" />
<glyph unicode="T" glyph-name="T" horiz-adv-x="454" d="M491 700T494 697T496 688L484 591Q483 586 480 583T471 579H349Q347 579 346 578T344 574L275 12Q274 7 271 4T262 0H148Q143 0 140 3T138 12L207 574Q209 579 203 579H87Q76 579 76 591L88 688Q89 693
92 696T101 700H486Q491 700 494 697Z" />
<glyph unicode="U" glyph-name="U" horiz-adv-x="465" d="M134 -8T89 38T43 163Q43 187 45 199L105 688Q106 693 109 696T118 700H231Q242 700 242 688L180 185Q179 180 179 171Q179 145 192 129T227 113Q252 113 269 133T291 185L353 688Q354 693 357 696T366
700H480Q485 700 488 697T490 688L430 199Q419 105 359 49T212 -8Q134 -8 89 38Z" />
<glyph unicode="V" glyph-name="V" horiz-adv-x="474" d="M143 0T143 11L87 687V689Q87 700 99 700H224Q235 700 235 689L248 249Q248 245 250 245T254 249L373 689Q376 700 387 700H508Q520 700 516 687L293 11Q290 0 279 0H154Q143 0 143 11Z" />
<glyph unicode="W" glyph-name="W" horiz-adv-x="668" d="M133 0T133 11L85 687V689Q85 700 97 700H215Q226 700 226 689L237 329Q238 325 240 325T243 329L340 689Q343 700 354 700H452Q463 700 463 689L476 329Q476 325 478 325T482 329L575 689Q578 700 589
700H704Q716 700 713 687L507 11Q504 0 493 0H388Q377 0 377 11L365 381Q365 385 363 385T359 381L262 11Q259 0 248 0H145Q133 0 133 11Z" />
<glyph unicode="X" glyph-name="X" horiz-adv-x="461" d="M8 0T7 4T8 14L180 347Q182 350 181 353L90 686L89 690Q89 700 100 700H217Q226 700 228 690L270 498Q270 495 272 495T276 498L364 690Q369 700 378 700H493Q500 700 501 696T500 686L328 353Q326 350
327 347L418 14L419 10Q419 6 416 3T407 0H292Q283 0 281 10L239 201Q239 204 237 204T233 201L144 10Q139 0 130 0H15Q8 0 7 4Z" />
<glyph unicode="Y" glyph-name="Y" horiz-adv-x="460" d="M148 1T145 4T143 13L175 273Q175 274 175 275T175 279L89 686V689Q89 694 92 697T100 700H220Q231 700 232 690L263 451Q263 448 265 448T269 451L358 690Q362 700 373 700H492Q498 700 500 697T500 686L314
279Q312 276 312 273L280 13Q279 8 276 5T267 1H153Q148 1 145 4Z" />
<glyph unicode="Z" glyph-name="Z" horiz-adv-x="400" d="M1 0T1 12L14 113Q14 120 19 128L281 573Q284 579 278 579H83Q78 579 75 582T73 591L84 688Q85 693 89 696T98 700H431Q436 700 439 697T441 688L429 587Q427 577 424 572L162 127Q159 121 165 121H360Q365
121 368 118T370 109L358 12Q358 7 354 4T345 0H12Q1 0 1 12Z" />
<glyph unicode="[" glyph-name="bracketleft" horiz-adv-x="334" d="M-4 -147T-7 -144T-9 -135L105 788Q105 793 109 796T118 800H316Q321 800 324 797T326 788L314 691Q313 686 310 683T301 679H233Q229 679 227 674L142 -20Q142 -25 146 -25H214Q219 -25 222
-28T224 -37L212 -135Q211 -140 208 -143T199 -147H1Q-4 -147 -7 -144Z" />
<glyph unicode="\" glyph-name="backslash" horiz-adv-x="403" d="M368 10Q368 0 357 0H243Q234 0 232 10L102 686V690Q102 700 113 700H227Q236 700 238 690L368 14V10Z" />
<glyph unicode="]" glyph-name="bracketright" horiz-adv-x="334" d="M270 -140T266 -143T257 -147H60Q49 -147 49 -135L61 -37Q62 -32 66 -29T75 -25H142Q148 -25 148 -20L233 674Q233 679 229 679H161Q156 679 153 682T151 691L163 788Q164 793 167 796T176
800H374Q379 800 382 797T384 788L271 -135Q270 -140 266 -143Z" />
<glyph unicode="^" glyph-name="asciicircum" horiz-adv-x="410" d="M48 298T46 301T46 312L209 690Q214 700 223 700H318Q327 700 329 690L402 312V309Q402 304 399 301T391 298H299Q294 298 291 301T287 308L254 538Q254 541 252 541T248 538L159 308Q154 298
144 298H54Q48 298 46 301Z" />
<glyph unicode="_" glyph-name="underscore" horiz-adv-x="408" d="M1 0T-2 3T-4 12L6 95Q7 100 10 103T19 107H377Q382 107 385 104T387 95L377 12Q376 7 373 4T364 0H6Q1 0 -2 3Z" />
<glyph unicode="`" glyph-name="grave" horiz-adv-x="213" d="M246 588T246 584Q246 576 235 576H162Q155 576 149 583L88 685Q86 689 86 692Q86 695 89 697T97 700H187Q196 700 200 692L245 590Q246 588 246 584Z" />
<glyph unicode="a" glyph-name="a" horiz-adv-x="432" d="M301 507T304 510T313 514H427Q432 514 435 511T437 502L377 12Q376 7 373 4T364 0H250Q245 0 242 3T240 12L244 40Q244 44 242 44T238 41Q202 -8 142 -8Q84 -8 56 26T28 121Q28 146 30 160L54 354Q64
436 102 479T207 522Q267 522 291 473Q293 470 294 470T297 474L300 502Q301 507 304 510ZM227 113T241 129T260 171L281 343Q284 369 273 385T242 401Q222 401 208 385T190 343L168 171Q165 145 176 129T207 113Q227 113 241 129Z" />
<glyph unicode="b" glyph-name="b" horiz-adv-x="432" d="M369 522T398 489T428 392Q428 367 426 354L402 160Q392 81 353 37T246 -8Q191 -8 164 30Q162 32 160 32T158 28L156 12Q155 7 152 4T143 0H29Q24 0 21 3T19 12L102 688Q103 693 106 696T115 700H229Q234
700 237 697T239 688L214 485V484Q214 484 214 484T215 483Q219 483 224 488Q260 522 311 522Q369 522 398 489ZM291 369T280 385T249 401Q232 401 218 389T198 357L174 157Q174 137 185 125T214 113Q234 113 248 129T266 170L288 344Q291 369 280 385Z" />
<glyph unicode="c" glyph-name="c" horiz-adv-x="421" d="M115 -8T72 30T29 135Q29 151 30 160L54 354Q63 430 118 476T258 522Q336 522 379 484T423 382Q423 367 422 360L419 342Q418 337 415 334T406 330L292 325Q281 325 282 337L283 349Q286 371 275 386T243
401Q222 401 208 385T190 343L168 171Q165 145 176 129T208 113Q228 113 243 128T261 165L262 178Q263 183 267 186T276 190L389 189Q394 189 397 186T399 177L396 154Q387 80 333 36T193 -8Q115 -8 72 30Z" />
<glyph unicode="d" glyph-name="d" horiz-adv-x="432" d="M324 693T327 696T336 700H450Q455 700 458 697T460 688L377 12Q376 7 373 4T364 0H250Q245 0 242 3T240 12L242 28Q243 31 241 31T236 30Q199 -8 145 -8Q86 -8 57 26T28 123Q28 147 30 160L54 354Q64
435 104 478T210 522Q232 522 254 514T292 483Q294 481 296 481T298 485L323 688Q324 693 327 696ZM224 113T238 125T258 157L282 357Q282 377 271 389T242 401Q222 401 208 385T190 344L168 170Q165 145 176 129T207 113Q224 113 238 125Z" />
<glyph unicode="e" glyph-name="e" horiz-adv-x="423" d="M404 220T401 217T392 213H178Q176 213 175 212T173 208L168 171Q165 146 176 130T208 113Q226 113 239 125T259 157Q263 167 273 167L384 161Q389 161 391 158T393 148Q377 71 327 32T193 -8Q114 -8 71
29T28 133Q28 142 30 160L54 354Q63 430 118 476T258 522Q336 522 379 484T423 379Q423 372 421 354L405 225Q404 220 401 217ZM223 401T208 385T190 344L185 305Q185 300 189 300H273Q275 300 276 301T278 305L283 344Q286 369 275 385T243 401Q223 401 208 385Z"
/>
<glyph unicode="f" glyph-name="f" horiz-adv-x="289" d="M306 514T309 511T311 502L302 427Q301 422 298 419T289 415H235Q230 415 230 410L181 12Q180 7 177 4T168 0H55Q50 0 47 3T45 12L94 410Q94 415 90 415H61Q50 415 50 427L60 502Q61 507 64 510T73 514H102Q107
514 107 519L111 546Q122 636 170 670T314 703H318Q323 703 326 700T328 691L318 611Q317 606 313 603T304 599H302Q253 598 245 537L243 519Q243 514 247 514H301Q306 514 309 511Z" />
<glyph unicode="g" glyph-name="g" horiz-adv-x="428" d="M302 507T305 510T314 514H428Q433 514 436 511T438 502L379 24Q366 -87 308 -147T118 -207Q91 -207 77 -206Q65 -205 67 -193L79 -95Q81 -82 92 -84Q149 -86 180 -73T225 -32T244 39Q245 42 243 42T239
39Q218 15 192 6T143 -4Q85 -4 57 29T28 124Q28 143 31 164L54 354Q64 435 103 478T208 522Q268 522 292 477Q294 474 296 475T298 479L301 502Q302 507 305 510ZM228 118T243 134T261 175L282 344Q285 369 274 385T242 401Q222 401 208 385T190 344L169 175Q166
149 176 134T208 118Q228 118 243 134Z" />
<glyph unicode="h" glyph-name="h" horiz-adv-x="433" d="M370 522T398 489T427 392Q427 372 424 351L383 12Q382 7 379 4T370 0H256Q251 0 248 3T246 12L286 340Q287 345 287 355Q287 401 250 401Q228 401 214 385T196 338L156 12Q155 7 152 4T143 0H29Q24 0
21 3T19 12L102 688Q103 693 106 696T115 700H229Q234 700 237 697T239 688L214 483V482Q214 480 216 480T222 484Q259 522 313 522Q370 522 398 489Z" />
<glyph unicode="i" glyph-name="i" horiz-adv-x="212" d="M127 572T108 591T89 639Q89 679 114 704T176 730Q207 730 225 712T243 664Q243 626 218 599T157 572Q127 572 108 591ZM26 0T23 3T21 12L81 502Q82 507 85 510T94 514H208Q213 514 216 511T218 502L158
12Q157 7 154 4T145 0H31Q26 0 23 3Z" />
<glyph unicode="j" glyph-name="j" horiz-adv-x="210" d="M126 572T107 591T88 639Q88 679 113 704T175 730Q206 730 224 712T243 663Q243 625 218 599T156 572Q126 572 107 591ZM-99 -204T-97 -192L-85 -95Q-83 -83 -72 -84Q-28 -85 -8 -64T17 0L79 502Q80 507
83 510T92 514H206Q211 514 214 511T216 502L154 0Q145 -75 127 -117T59 -182T-87 -204Q-99 -204 -97 -192Z" />
<glyph unicode="k" glyph-name="k" horiz-adv-x="436" d="M24 0T21 3T19 12L102 688Q103 693 106 696T115 700H229Q234 700 237 697T239 688L198 357Q197 353 199 353T204 355L307 506Q311 514 322 514H439Q445 514 447 510T445 500L319 332Q317 328 317 325L397
14L398 10Q398 0 386 0H269Q260 0 257 10L220 208Q219 211 217 211T214 209L175 157Q173 153 173 151L156 12Q155 7 152 4T143 0H29Q24 0 21 3Z" />
<glyph unicode="l" glyph-name="l" horiz-adv-x="203" d="M20 0T17 3T15 12L98 688Q99 693 102 696T111 700H225Q230 700 233 697T235 688L152 12Q151 7 148 4T139 0H25Q20 0 17 3Z" />
<glyph unicode="m" glyph-name="m" horiz-adv-x="655" d="M592 522T620 488T648 390Q648 370 645 347L604 12Q603 7 600 4T591 0H477Q472 0 469 3T467 12L507 338Q508 343 508 353Q508 376 499 388T472 401Q451 401 437 385T419 338L379 12Q378 7 375 4T366 0H253Q248
0 245 3T243 12L283 338Q284 343 284 353Q284 376 275 388T248 401Q227 401 213 385T195 338L155 12Q154 7 151 4T142 0H28Q23 0 20 3T18 12L78 502Q79 507 82 510T91 514H205Q210 514 213 511T215 502L213 489Q213 482 219 486Q241 506 265 514T310 522Q386 522
412 460Q412 459 414 459Q416 459 421 465Q445 497 475 509T535 522Q592 522 620 488Z" />
<glyph unicode="n" glyph-name="n" horiz-adv-x="433" d="M370 522T398 489T427 392Q427 372 424 351L383 12Q382 7 379 4T370 0H256Q251 0 248 3T246 12L286 340Q287 345 287 355Q287 401 250 401Q228 401 214 385T196 338L156 12Q155 7 152 4T143 0H29Q24 0
21 3T19 12L79 502Q80 507 83 510T92 514H206Q211 514 214 511T216 502L214 483V482Q214 480 216 480T222 484Q259 522 313 522Q370 522 398 489Z" />
<glyph unicode="o" glyph-name="o" horiz-adv-x="429" d="M116 -8T73 30T29 135Q29 151 30 160L54 354Q63 430 118 476T259 522Q338 522 382 484T426 379Q426 370 424 354L400 160Q390 82 336 37T194 -8Q116 -8 73 30ZM230 114T245 130T264 171L286 344Q289 369
277 385T244 401Q223 401 208 385T190 344L168 171Q165 146 176 130T209 114Q230 114 245 130Z" />
<glyph unicode="p" glyph-name="p" horiz-adv-x="435" d="M373 522T402 488T432 391Q432 368 430 355L406 160Q396 79 356 36T249 -8Q227 -8 205 0T167 31Q165 34 163 33T161 29L136 -174Q135 -179 132 -182T123 -186H9Q4 -186 1 -183T-1 -174L82 502Q83 507 86
510T95 514H209Q214 514 217 511T219 502L217 486V485Q217 485 217 485T218 484Q222 484 227 489Q264 522 314 522Q373 522 402 488ZM295 370T284 386T252 402Q232 402 218 386T199 344L178 171Q175 145 185 129T217 113Q238 113 252 129T270 171L292 344Q295 370
284 386Z" />
<glyph unicode="q" glyph-name="q" horiz-adv-x="435" d="M301 507T304 510T313 514H427Q432 514 435 511T437 502L354 -174Q353 -179 350 -182T341 -186H227Q222 -186 219 -183T217 -174L242 29Q243 32 241 32T236 31Q215 9 191 1T145 -8Q87 -8 58 25T28 122Q28
147 30 160L54 355Q64 433 103 477T210 522Q263 522 292 485Q294 483 296 483T298 487L300 502Q301 507 304 510ZM224 113T238 125T258 158L282 357Q282 377 271 389T242 402Q222 402 208 386T190 344L168 171Q165 145 176 129T207 113Q224 113 238 125Z" />
<glyph unicode="r" glyph-name="r" horiz-adv-x="315" d="M331 520T344 510Q351 504 348 495L315 378Q313 367 300 370Q291 374 275 374Q260 374 249 370Q226 366 210 343T190 288L156 13Q155 8 152 5T143 1H29Q24 1 21 4T19 13L79 502Q80 507 83 510T92 514H206Q211
514 214 511T216 502L211 463Q210 459 212 459T216 461Q248 520 304 520Q331 520 344 510Z" />
<glyph unicode="s" glyph-name="s" horiz-adv-x="399" d="M107 -7T64 27T20 122Q20 135 21 142L22 149Q23 154 26 157T35 161H142Q147 161 150 158T152 149V146Q149 125 162 112T196 98Q217 98 230 111T243 145Q243 164 226 175T188 195T160 206Q114 224 83 255T52
342Q52 356 53 364Q62 437 114 479T243 521Q317 521 358 484T400 383Q400 374 398 358Q397 353 394 350T385 346H281Q276 346 273 349T271 358L272 366Q274 386 264 398T234 411Q211 411 198 396T185 360Q185 338 202 326T257 299Q313 277 347 248T382 163Q382
85 327 39T183 -7Q107 -7 64 27Z" />
<glyph unicode="t" glyph-name="t" horiz-adv-x="282" d="M296 422T293 419T284 415H229Q227 415 226 414T224 410L195 172Q194 167 194 158Q194 137 203 129T231 122H238Q243 122 246 119T248 110L236 12Q235 7 232 4T223 0H184Q120 0 87 19T54 93Q54 100 56
118L92 410Q92 415 88 415H56Q51 415 48 418T46 427L55 502Q56 507 59 510T68 514H100Q105 514 105 519L119 630Q120 635 123 638T132 642H241Q246 642 249 639T251 630L237 519Q237 514 242 514H296Q301 514 304 511T306 502L297 427Q296 422 293 419Z" />
<glyph unicode="u" glyph-name="u" horiz-adv-x="433" d="M303 507T306 510T315 514H429Q434 514 437 511T439 502L379 12Q378 7 375 4T366 0H252Q247 0 244 3T242 12L244 29Q245 32 243 33T239 31Q207 -7 147 -7Q95 -7 62 22T29 113Q29 122 31 142L75 502Q76
507 79 510T88 514H202Q207 514 210 511T212 502L172 173Q171 168 171 158Q171 136 180 125T208 113Q230 113 244 130T262 176L302 502Q303 507 306 510Z" />
<glyph unicode="v" glyph-name="v" horiz-adv-x="422" d="M116 0T115 10L58 502V504Q58 515 70 515H195Q206 515 206 504L217 229Q218 226 220 226T223 229L301 504Q302 515 314 515L439 513Q452 513 448 500L272 10Q268 0 257 0H127Q116 0 115 10Z" />
<glyph unicode="w" glyph-name="w" horiz-adv-x="595" d="M108 0T105 3T102 11L58 502V504Q58 515 70 515H178Q189 515 189 504L197 230Q197 227 199 227T203 230L279 504Q282 515 293 515H389Q400 515 400 504L412 229Q413 226 415 226T418 230L493 504Q496 515
507 515L613 513Q625 513 621 500L457 11Q454 0 443 0H333Q321 0 321 11L311 265Q310 268 309 268T305 265L234 11Q231 0 220 0H113Q108 0 105 3Z" />
<glyph unicode="x" glyph-name="x" horiz-adv-x="426" d="M-1 0T-3 3T-1 14L139 254L140 260L58 500L57 504Q57 514 69 514H193Q203 514 206 505L239 392Q242 386 245 392L306 505Q311 514 321 514H444Q451 514 453 511T451 500L311 260Q310 257 311 254L392 14L393
10Q393 0 381 0H258Q248 0 246 9L212 126Q210 134 207 126L145 9Q141 0 130 0H6Q-1 0 -3 3Z" />
<glyph unicode="y" glyph-name="y" horiz-adv-x="410" d="M-9 -199T-10 -196T-11 -187L0 -95Q2 -83 10 -83Q60 -82 83 -67T116 -3V3L55 502V504Q55 515 67 515H189Q201 515 201 504L209 207Q209 203 211 203T215 207L294 504Q297 515 308 515L430 513Q436 513
438 510T439 500L247 -19Q219 -92 193 -128T122 -182T-2 -199H-7Q-9 -199 -10 -196Z" />
<glyph unicode="z" glyph-name="z" horiz-adv-x="362" d="M5 0T2 3T0 12L13 120Q13 128 19 135L200 381Q203 387 198 387H63Q58 387 55 390T53 399L66 502Q66 507 70 510T79 514H371Q376 514 379 511T381 502L368 395Q367 388 362 380L175 134Q171 128 177 128H329Q334
128 337 125T339 116L326 12Q326 7 322 4T313 0H10Q5 0 2 3Z" />
<glyph unicode="{" glyph-name="braceleft" horiz-adv-x="334" d="M125 -147T98 -121T70 -47Q70 -39 72 -23L97 184Q99 202 99 208Q99 267 53 273Q41 274 43 286L54 373Q54 378 57 381T66 386Q123 393 133 474L158 677Q165 735 200 767T293 800H374Q379 800 382
797T384 788L372 691Q371 686 368 683T359 679H341Q321 679 306 662T287 616L267 455Q257 361 198 333Q194 330 198 327Q238 303 238 237Q238 215 236 203L216 38Q215 34 215 25Q215 2 226 -11T255 -25H272Q283 -25 283 -37L271 -135Q270 -140 266 -143T257 -147H177Q125
-147 98 -121Z" />
<glyph unicode="|" glyph-name="bar" horiz-adv-x="180" d="M-1 -80T-4 -77T-6 -68L94 748Q95 753 98 756T107 760H220Q231 760 231 748L130 -68Q130 -73 126 -76T117 -80H4Q-1 -80 -4 -77Z" />
<glyph unicode="}" glyph-name="braceright" horiz-adv-x="334" d="M1 -147Q-4 -147 -7 -144T-9 -135L3 -37Q4 -32 7 -29T16 -25H34Q54 -25 69 -8T89 38L109 203Q121 298 178 327Q182 330 178 333Q138 355 138 421Q138 443 140 455L160 616Q161 620 161 628Q161
651 150 665T120 679H103Q98 679 95 682T93 691L105 788Q105 793 109 796T118 800H199Q250 800 278 774T306 700Q306 693 304 677L279 474Q278 466 278 452Q278 392 323 386Q335 385 333 373L322 286Q320 274 309 273Q253 265 244 184L218 -23Q211 -82 176 -114T83
-147H1Z" />
<glyph unicode="~" glyph-name="asciitilde" horiz-adv-x="475" d="M302 202T286 208T247 229Q242 233 229 242T205 255T183 260Q165 260 148 250T117 223Q109 213 101 219L44 257Q37 263 40 273Q61 320 101 350T185 381Q207 381 223 375T259 356Q284 339 298
332T329 324Q345 324 358 333T386 359Q393 369 403 363L462 322Q467 320 467 313Q467 308 465 305Q437 261 401 232T324 202Q302 202 286 208Z" />
<glyph unicode="&#xa0;" glyph-name="uni00A0" horiz-adv-x="194" />
<glyph unicode="&#xa1;" glyph-name="exclamdown" horiz-adv-x="271" d="M233 708T251 690T270 641Q270 602 246 577T184 551Q153 551 135 569T116 617Q116 656 141 682T203 708Q233 708 251 690ZM118 462T121 465T130 469H216Q221 469 224 466T226 457L186 21Q185
16 182 13T173 9H59Q54 9 51 12T49 21L117 457Q118 462 121 465Z" />
<glyph unicode="&#xa2;" glyph-name="cent" horiz-adv-x="421" d="M430 427T426 424T417 420L303 415Q292 415 293 427L294 439Q297 461 286 476T254 491Q233 491 219 475T201 433L179 261Q176 235 187 219T219 203Q239 203 254 218T272 255L273 268Q274 273 278
276T287 280L400 279Q405 279 408 276T410 267L407 244Q399 183 362 142T263 88Q259 87 257 82L252 13Q251 1 240 1H148Q137 1 138 13L150 82Q150 86 146 88Q95 101 67 136T39 225Q39 232 41 250L65 444Q73 506 110 548T209 605Q214 607 215 611L220 681Q222 693
233 693H325Q336 693 334 681L322 612Q322 608 326 606Q378 593 406 558T434 472Q434 457 433 450L430 432Q430 427 426 424Z" />
<glyph unicode="&#xa3;" glyph-name="sterling" horiz-adv-x="501" d="M217 125T218 123T221 121H465Q470 121 473 118T475 109L463 12Q462 7 459 4T450 0H67Q62 0 59 3T57 12L69 112Q70 120 77 127Q94 143 103 165T116 222L124 282Q124 287 120 287H70Q65 287
62 290T60 299L71 389Q72 394 75 397T84 401H134Q139 401 139 406L149 490Q162 592 219 650T362 708Q434 708 474 665T521 542Q521 530 510 529L399 516H397Q387 516 387 527Q384 557 375 572T347 587Q298 587 287 497L276 406Q274 401 280 401H406Q411 401 414
398T416 389L405 299Q404 294 401 291T392 287H266Q261 287 261 282L253 222Q246 160 218 127Q217 125 218 123Z" />
<glyph unicode="&#xa4;" glyph-name="currency" horiz-adv-x="550" d="M505 260T466 200Q464 195 466 193L521 128Q524 125 524 120Q524 115 519 111L441 47Q437 43 433 43Q428 43 425 47L372 108Q370 110 366 109Q316 84 263 84Q210 84 169 107Q166 109 162 106L98
47Q92 43 89 43Q87 43 81 47L19 111Q16 114 16 118Q16 124 22 128L88 189Q91 192 90 196Q73 233 73 276Q73 344 113 406Q114 410 113 413L58 478Q54 482 54 485Q54 491 60 495L138 558Q142 562 147 562Q152 562 155 558L207 497Q208 494 213 496Q262 522 316 522Q373
522 417 494Q420 492 424 495L493 558Q497 562 502 562Q507 562 510 558L572 495Q575 492 575 488Q575 483 570 478L494 409Q492 407 493 402Q505 369 505 328Q505 260 466 200ZM191 254T215 229T277 203Q305 203 330 218T371 260T387 316Q387 353 363 378T302
403Q273 403 248 388T207 347T191 292Q191 254 215 229Z" />
<glyph unicode="&#xa5;" glyph-name="yen" horiz-adv-x="515" d="M525 700T527 696T527 686L368 341Q365 335 371 335H463Q468 335 471 332T473 323L467 269Q466 264 463 261T454 257H341Q336 257 336 252L331 214Q329 209 335 209H448Q453 209 456 206T458 197L451
143Q450 138 447 135T438 131H326Q320 131 320 126L306 13Q305 8 302 5T293 1H180Q169 1 169 13L183 126Q185 131 179 131H66Q55 131 55 143L62 197Q63 202 66 205T75 209H189Q194 209 194 214L199 252Q199 257 195 257H81Q76 257 73 260T71 269L77 323Q78 328
82 331T91 335H184Q190 335 188 341L116 686V690Q116 700 127 700H246Q257 700 258 690L289 451Q290 448 292 448T295 451L384 690Q388 700 399 700H519Q525 700 527 696Z" />
<glyph unicode="&#xa6;" glyph-name="brokenbar" horiz-adv-x="180" d="M56 385T53 388T51 397L94 748Q95 753 98 756T107 760H220Q231 760 231 748L187 397Q187 392 183 389T174 385H61Q56 385 53 388ZM-1 -80T-4 -77T-6 -68L36 280Q37 285 40 288T49 292H163Q168
292 171 289T173 280L130 -68Q130 -73 126 -76T117 -80H4Q-1 -80 -4 -77Z" />
<glyph unicode="&#xa7;" glyph-name="section" horiz-adv-x="424" d="M94 -203T50 -165T6 -62Q6 -47 7 -39L9 -22Q10 -17 13 -14T22 -10H136Q141 -10 144 -13T146 -22L145 -29Q142 -51 153 -66T184 -82Q206 -82 221 -65T237 -24Q237 2 215 21T142 69Q101 94 78
118T46 175Q39 196 39 222Q39 231 41 247Q48 297 79 339Q102 368 135 386Q140 389 136 393Q106 421 90 451T74 519Q74 572 100 615T174 683T279 708Q354 708 398 668T442 561Q442 554 440 536L439 525Q438 520 435 517T426 513H312Q307 513 304 516T302 525L303
529Q306 554 295 570T264 587Q240 587 225 567T210 521Q210 495 227 479T286 439Q334 411 358 394T397 351Q414 323 414 285Q414 227 383 177Q358 135 316 114Q313 112 313 110T314 107Q344 82 359 55T375 -11Q375 -67 348 -111T274 -179T168 -203Q94 -203 50 -165ZM246
188T262 213Q273 231 274 252Q275 257 275 266Q275 284 267 297Q263 305 254 310T234 315Q220 315 210 308T193 291Q182 276 179 251L178 239Q178 225 183 212Q191 188 219 188Q246 188 262 213Z" />
<glyph unicode="&#xa8;" glyph-name="dieresis" horiz-adv-x="358" d="M288 572T269 591T250 641Q250 679 275 704T338 730Q369 730 387 712T406 662Q406 624 380 598T318 572Q288 572 269 591ZM110 572T91 591T72 641Q72 679 97 704T160 730Q191 730 209 712T228
662Q228 624 202 598T140 572Q110 572 91 591Z" />
<glyph unicode="&#xa9;" glyph-name="copyright" horiz-adv-x="767" d="M272 -8T202 32T93 142T54 303Q54 328 57 353Q69 453 125 534T266 661T451 708Q542 708 612 669T722 560T761 402Q761 379 758 353Q746 251 690 169T549 39T363 -8Q272 -8 202 32ZM450 70T517
106T627 208T681 353Q683 366 683 390Q683 458 653 513T567 599T441 630Q364 630 297 594T187 494T135 353Q132 332 132 312Q132 242 162 187T246 101T372 70Q450 70 517 106ZM349 180T326 201T302 260Q302 270 303 276L321 423Q326 466 355 491T429 517Q469 517
493 496T517 437Q517 428 516 423Q515 418 511 414T502 410L454 408Q442 408 443 419L444 428Q446 440 440 447T422 455Q410 455 403 448T393 428L374 270Q372 258 378 251T396 243Q408 243 415 250T425 270L426 278Q428 290 439 290L487 288Q498 288 498 276Q492
232 462 206T388 180Q349 180 326 201Z" />
<glyph unicode="&#xaa;" glyph-name="ordfeminine" horiz-adv-x="283" d="M217 566Q222 566 222 571L224 588Q225 592 225 599Q225 614 218 622T198 631Q188 631 179 625T166 609Q163 603 160 601T152 599L86 602Q81 602 78 605T76 615Q86 656 121 682T205 708Q255
708 285 682T315 613Q315 603 314 598L287 376Q286 371 283 368T274 364H209Q204 364 201 366T198 373V374Q199 377 197 377T193 376Q172 359 139 359Q103 359 76 377T48 443Q48 456 49 463Q57 522 93 544T191 566H217ZM182 432T195 441T210 469L212 490Q214 495
208 495H182Q163 495 151 485T139 455Q139 432 166 432Q182 432 195 441ZM30 309T34 312T43 316H275Q280 316 283 313T286 304L280 260Q279 255 276 252T267 248H34Q29 248 26 251T24 260L30 304Q30 309 34 312Z" />
<glyph unicode="&#xab;" glyph-name="guillemotleft" horiz-adv-x="445" d="M234 119T234 116Q234 112 231 110T224 107H130Q120 107 117 116L58 273Q56 277 56 279Q56 283 60 289L158 446Q163 455 172 455H266Q275 455 275 449Q275 446 272 441L174 284Q172 281
173 278L233 121Q234 119 234 116ZM391 119T391 116Q391 112 388 110T381 107H287Q277 107 274 116L215 273Q214 275 214 280Q214 285 217 289L315 446Q320 455 329 455H423Q430 455 431 451T430 441L330 284Q328 281 329 278L390 121Q391 119 391 116Z" />
<glyph unicode="&#xac;" glyph-name="logicalnot" horiz-adv-x="425" d="M421 362T424 359T426 350L415 263V256H414L404 176Q403 171 400 168T391 164H310Q305 164 302 167T300 176L309 251Q311 256 305 256H47Q42 256 39 259T37 268L47 350Q48 355 51 358T60
362H416Q421 362 424 359Z" />
<glyph unicode="&#xad;" glyph-name="uni00AD" horiz-adv-x="321" d="M39 235T36 238T34 247L46 344Q47 349 50 352T59 356H310Q321 356 321 344L309 247Q308 242 305 239T296 235H44Q39 235 36 238Z" />
<glyph unicode="&#xae;" glyph-name="registered" horiz-adv-x="421" d="M329 710T369 688T431 627T454 539Q454 530 452 512Q445 454 413 407T333 334T229 307Q151 307 103 356T55 484Q55 546 85 598T167 680T278 710Q329 710 369 688ZM296 366T341 407T394 512Q395
518 395 530Q395 583 361 617T271 652Q229 652 193 631T135 572T114 491Q114 435 147 401T236 366Q296 366 341 407ZM328 535T320 520T298 497Q293 495 295 491L308 432V429Q308 424 305 421T297 418H272Q263 418 261 428L250 484Q248 488 245 488H243Q238 488
238 483L231 430Q230 425 227 422T218 418H197Q192 418 189 421T187 430L206 591Q207 596 211 599T220 603H277Q300 603 314 589T328 553Q328 535 320 520ZM250 563T249 562T247 558L243 528Q243 523 248 523H260Q269 523 275 529T282 543V546Q282 554 278 558T265
563H252Q250 563 249 562Z" />
<glyph unicode="&#xaf;" glyph-name="overscore" horiz-adv-x="325" d="M114 581T111 584T109 593L118 665Q118 670 122 673T131 677H321Q326 677 329 674T331 665L322 593Q321 588 318 585T309 581H119Q114 581 111 584Z" />
<glyph unicode="&#xb0;" glyph-name="degree" horiz-adv-x="348" d="M151 472T111 513T71 617Q71 668 96 712T163 782T253 808Q316 808 355 767T395 663Q395 611 370 567T302 498T212 472Q151 472 111 513ZM256 563T281 589T307 651Q307 680 289 699T243 719Q210
719 185 693T159 631Q159 602 177 583T223 563Q256 563 281 589Z" />
<glyph unicode="&#xb1;" glyph-name="plusminus" horiz-adv-x="425" d="M430 441T433 438T435 429L425 347Q424 342 421 339T412 335H290Q285 335 285 330L269 205Q268 200 265 197T256 193H177Q172 193 169 196T166 205L182 330Q182 335 177 335H56Q51 335 48
338T46 347L56 429Q57 434 60 437T69 441H190Q196 441 196 446L211 572Q212 577 216 580T225 584H304Q309 584 312 581T314 572L299 446Q297 441 303 441H425Q430 441 433 438ZM12 11T9 14T7 23L17 105Q18 110 21 113T30 117H386Q391 117 394 114T396 105L386 23Q385
18 382 15T373 11H17Q12 11 9 14Z" />
<glyph unicode="&#xb2;" glyph-name="uni00B2" horiz-adv-x="258" d="M53 416T50 419T48 428L55 486Q55 494 62 501L85 526Q155 603 183 641Q225 695 225 733Q225 747 219 755T202 763Q190 763 181 753T171 727L168 707Q167 702 164 699T155 695H90Q85 695 82
698T80 707L83 731Q91 783 126 812T214 841Q259 841 286 817T313 744Q313 736 311 718Q307 687 298 663T270 612Q244 577 205 530L180 500Q178 498 178 496T182 494H279Q284 494 287 491T289 482L282 428Q282 423 278 420T269 416H58Q53 416 50 419Z" />
<glyph unicode="&#xb3;" glyph-name="uni00B3" horiz-adv-x="274" d="M306 576T303 549Q300 526 295 505Q287 462 254 436T174 410Q124 410 96 438T72 512Q72 522 74 538Q76 550 87 550H151Q161 550 161 540V526Q159 489 184 489Q196 489 203 496T214 519Q221
545 223 559Q225 573 225 596Q225 628 201 628Q194 628 186 623Q175 615 170 623L143 657Q140 662 140 665Q140 669 145 674L220 752Q223 755 222 756T218 758H120Q115 758 112 761T110 770L116 823Q117 828 121 831T130 835H324Q329 835 332 832T334 823L327 766Q325
756 320 751L262 688Q258 682 262 681Q283 673 294 649T306 595Q306 576 303 549Z" />
<glyph unicode="&#xb4;" glyph-name="acute" horiz-adv-x="213" d="M71 576T71 582Q71 586 74 590L143 692Q148 700 159 700H249Q258 700 258 694Q258 689 254 685L167 583Q160 576 152 576H81Q71 576 71 582Z" />
<glyph unicode="&#xb5;" glyph-name="uni00B5" horiz-adv-x="437" d="M306 507T309 510T318 514H432Q437 514 440 511T442 502L382 12Q381 7 378 4T369 0H255Q250 0 247 3T245 12L247 29Q248 32 246 32T242 30Q212 -5 158 -7Q153 -7 153 -12L131 -188Q130 -193
127 -196T118 -200H5Q-6 -200 -6 -188L79 502Q80 507 83 510T92 514H206Q211 514 214 511T216 502L175 173L174 159Q174 113 212 113Q234 113 247 129T265 176L305 502Q306 507 309 510Z" />
<glyph unicode="&#xb6;" glyph-name="paragraph" horiz-adv-x="499" d="M511 700Q516 700 519 697T521 688L413 -188Q413 -193 409 -196T400 -200H309Q304 -200 301 -197T299 -188L393 581Q395 586 389 586H345Q339 586 339 581L245 -188Q244 -193 241 -196T232
-200H140Q135 -200 132 -197T130 -188L184 248Q184 253 180 254Q121 267 89 315T56 436Q56 461 58 475Q66 540 95 591T172 671T275 700H511Z" />
<glyph unicode="&#xb7;" glyph-name="middot" horiz-adv-x="218" d="M85 211T66 230T47 280Q47 318 72 343T135 369Q166 369 184 351T203 301Q203 263 177 237T115 211Q85 211 66 230Z" />
<glyph unicode="&#xb8;" glyph-name="cedilla" horiz-adv-x="147" d="M-36 -181T-33 -170L-22 -124Q-19 -112 -7 -114Q4 -116 14 -110T29 -90Q31 -82 31 -76Q31 -48 1 -15Q-2 -11 -2 -7Q-2 0 9 0H69Q77 0 83 -6Q116 -43 116 -88Q116 -111 109 -129Q97 -163 73
-177T19 -191Q0 -191 -26 -184Q-36 -181 -33 -170Z" />
<glyph unicode="&#xb9;" glyph-name="uni00B9" horiz-adv-x="152" d="M134 836T137 836H206Q217 836 217 824L168 428Q167 423 164 420T155 416H90Q85 416 82 419T80 428L119 751Q121 756 115 755L99 753H97Q86 753 88 765L93 808Q95 817 104 822L122 832Q134
836 137 836Z" />
<glyph unicode="&#xba;" glyph-name="ordmasculine" horiz-adv-x="286" d="M115 358T87 382T58 451Q58 463 59 469L74 598Q80 648 116 678T210 708Q261 708 289 683T318 614Q318 604 317 598L301 469Q295 417 260 388T167 358Q115 358 87 382ZM191 436T202 447T214
475L229 590Q231 608 223 619T201 630Q186 630 175 619T162 590L148 475Q146 458 154 447T177 436Q191 436 202 447ZM33 248T30 251T28 260L33 304Q34 309 38 312T47 316H278Q289 316 289 304L283 260Q282 255 279 252T270 248H38Q33 248 30 251Z" />
<glyph unicode="&#xbb;" glyph-name="guillemotright" horiz-adv-x="445" d="M43 107T43 113Q43 117 46 121L146 278Q147 281 146 284L85 441Q84 443 84 446Q84 450 87 452T95 455H189Q198 455 201 446L261 289Q262 287 262 283Q262 278 259 273L161 116Q155 107
146 107H52Q43 107 43 113ZM200 107T200 113Q200 117 203 121L303 278Q304 281 303 284L242 441Q241 443 241 446Q241 450 244 452T252 455H346Q355 455 358 446L418 289Q419 287 419 283Q419 278 416 273L318 116Q312 107 303 107H209Q200 107 200 113Z" />
<glyph unicode="&#xbc;" glyph-name="onequarter" horiz-adv-x="695" d="M117 700T120 700H189Q200 700 200 688L151 292Q150 287 147 284T138 280H73Q68 280 65 283T63 292L102 615Q104 620 98 619L82 617H80Q69 617 71 629L76 672Q78 681 87 686L105 696Q117
700 120 700ZM41 0T41 6Q41 10 44 14L522 692Q526 700 536 700H609Q618 700 618 694Q618 691 615 686L137 8Q132 0 122 0H50Q41 0 41 6ZM690 187T690 175L682 117Q682 112 678 109T669 105H658Q654 105 652 100L641 12Q641 7 637 4T628 0H563Q558 0 555 3T553 12L564
100Q564 105 560 105H422Q417 105 414 108T412 117L417 163L421 178L524 410Q529 420 538 420H608Q614 420 616 416T616 406L526 193Q523 187 529 187H570Q575 187 575 192L581 243Q582 248 586 251T595 255H660Q665 255 668 252T670 243L663 192Q663 187 668 187H679Q690
187 690 175Z" />
<glyph unicode="&#xbd;" glyph-name="onehalf" horiz-adv-x="670" d="M117 700T120 700H189Q200 700 200 688L151 292Q150 287 147 284T138 280H73Q68 280 65 283T63 292L102 615Q104 620 98 619L82 617H80Q69 617 71 629L76 672Q78 681 87 686L105 696Q117 700
120 700ZM41 0T41 6Q41 10 44 14L522 692Q526 700 536 700H609Q618 700 618 694Q618 691 615 686L137 8Q132 0 122 0H50Q41 0 41 6ZM415 0T412 3T410 12L417 70Q417 78 424 85L447 110Q517 187 545 225Q587 279 587 317Q587 331 581 339T564 347Q552 347 543 337T533
311L530 291Q529 286 526 283T517 279H452Q447 279 444 282T442 291L445 315Q453 367 488 396T576 425Q621 425 648 401T675 328Q675 320 673 302Q669 271 660 247T632 196Q606 161 567 114L542 84Q540 82 540 80T544 78H641Q646 78 649 75T651 66L644 12Q644 7
640 4T631 0H420Q415 0 412 3Z" />
<glyph unicode="&#xbe;" glyph-name="threequarters" horiz-adv-x="769" d="M289 440T286 413Q283 390 278 369Q270 326 237 300T157 274Q107 274 79 302T55 376Q55 386 57 402Q59 414 70 414H134Q144 414 144 404V390Q142 353 167 353Q179 353 186 360T197 383Q204
409 206 423Q208 437 208 460Q208 492 184 492Q177 492 169 487Q158 479 153 487L126 521Q123 526 123 529Q123 533 128 538L203 616Q206 619 205 620T201 622H103Q98 622 95 625T93 634L99 687Q100 692 104 695T113 699H307Q312 699 315 696T317 687L310 630Q308
620 303 615L245 552Q241 546 245 545Q266 537 277 513T289 459Q289 440 286 413ZM116 0T116 6Q116 10 119 14L597 692Q601 700 611 700H684Q693 700 693 694Q693 691 690 686L212 8Q207 0 197 0H125Q116 0 116 6ZM764 187T764 175L756 117Q756 112 752 109T743
105H732Q728 105 726 100L715 12Q715 7 711 4T702 0H637Q632 0 629 3T627 12L638 100Q638 105 634 105H496Q491 105 488 108T486 117L491 163L495 178L598 410Q603 420 612 420H682Q688 420 690 416T690 406L600 193Q597 187 603 187H644Q649 187 649 192L655 243Q656
248 660 251T669 255H734Q739 255 742 252T744 243L737 192Q737 187 742 187H753Q764 187 764 175Z" />
<glyph unicode="&#xbf;" glyph-name="questiondown" horiz-adv-x="424" d="M298 502T316 484T335 435Q335 396 310 371T248 345Q217 345 199 363T180 411Q180 450 205 476T267 502Q298 502 316 484ZM301 278T304 275T306 266L302 234Q296 184 273 154T207 89Q169
58 152 35T134 -25Q134 -51 146 -66T181 -81Q209 -81 227 -61T250 -6L252 10Q253 21 265 21L378 16Q383 16 386 13T388 4L387 -6Q380 -66 349 -112T269 -184T161 -210Q83 -210 39 -166T-6 -46Q-6 -37 -4 -15Q2 29 18 60T53 112T103 156Q135 182 150 199T168 243L170
266Q171 271 175 274T184 278H296Q301 278 304 275Z" />
<glyph unicode="&#xc0;" glyph-name="Agrave" horiz-adv-x="468" d="M297 0T297 11L293 107Q294 109 292 110T288 112H165Q159 112 159 107L131 11Q128 0 117 0H4Q-8 0 -4 13L221 689Q224 700 235 700H366Q376 700 378 689L436 13V10Q436 0 425 0H308Q297 0 297
11ZM191 221T196 221H283Q288 221 288 226L276 499Q275 502 273 502T270 499L193 226Q191 221 196 221ZM353 774T353 770Q353 762 342 762H269Q262 762 256 769L195 871Q193 875 193 878Q193 881 196 883T204 886H294Q303 886 307 878L352 776Q353 774 353 770Z"
/>
<glyph unicode="&#xc1;" glyph-name="Aacute" horiz-adv-x="468" d="M297 0T297 11L293 107Q294 109 292 110T288 112H165Q159 112 159 107L131 11Q128 0 117 0H4Q-8 0 -4 13L221 689Q224 700 235 700H366Q376 700 378 689L436 13V10Q436 0 425 0H308Q297 0 297
11ZM191 221T196 221H283Q288 221 288 226L276 499Q275 502 273 502T270 499L193 226Q191 221 196 221ZM246 762T246 768Q246 772 249 776L318 878Q323 886 334 886H424Q433 886 433 880Q433 875 429 871L342 769Q335 762 327 762H256Q246 762 246 768Z" />
<glyph unicode="&#xc2;" glyph-name="Acircumflex" horiz-adv-x="468" d="M297 0T297 11L293 107Q294 109 292 110T288 112H165Q159 112 159 107L131 11Q128 0 117 0H4Q-8 0 -4 13L221 689Q224 700 235 700H366Q376 700 378 689L436 13V10Q436 0 425 0H308Q297
0 297 11ZM191 221T196 221H283Q288 221 288 226L276 499Q275 502 273 502T270 499L193 226Q191 221 196 221ZM167 760T167 766Q167 770 170 774L244 878Q249 886 259 886H384Q393 886 396 878L448 774Q449 772 449 769Q449 760 438 760H353Q343 760 340 769L318
825Q315 830 312 825L276 769Q274 765 270 763T261 760H176Q167 760 167 766Z" />
<glyph unicode="&#xc3;" glyph-name="Atilde" horiz-adv-x="468" d="M297 0T297 11L293 107Q294 109 292 110T288 112H165Q159 112 159 107L131 11Q128 0 117 0H4Q-8 0 -4 13L221 689Q224 700 235 700H366Q376 700 378 689L436 13V10Q436 0 425 0H308Q297 0 297
11ZM191 221T196 221H283Q288 221 288 226L276 499Q275 502 273 502T270 499L193 226Q191 221 196 221ZM353 772T324 790Q316 794 306 801T286 808Q264 808 248 786Q241 776 231 782L194 812Q188 818 192 828Q209 862 233 879T285 897Q316 897 344 874Q347 872
353 867T367 859T382 856Q404 856 419 876Q428 888 436 881L472 853Q476 849 476 845Q476 839 470 830Q450 800 424 786T375 772Q353 772 324 790Z" />
<glyph unicode="&#xc4;" glyph-name="Adieresis" horiz-adv-x="468" d="M297 0T297 11L293 107Q294 109 292 110T288 112H165Q159 112 159 107L131 11Q128 0 117 0H4Q-8 0 -4 13L221 689Q224 700 235 700H366Q376 700 378 689L436 13V10Q436 0 425 0H308Q297 0
297 11ZM191 221T196 221H283Q288 221 288 226L276 499Q275 502 273 502T270 499L193 226Q191 221 196 221ZM366 758T347 777T328 827Q328 865 353 890T416 916Q447 916 465 898T484 848Q484 810 458 784T396 758Q366 758 347 777ZM188 758T169 777T150 827Q150
865 175 890T238 916Q269 916 287 898T306 848Q306 810 280 784T218 758Q188 758 169 777Z" />
<glyph unicode="&#xc5;" glyph-name="Aring" horiz-adv-x="468" d="M297 0T297 11L293 107Q294 109 292 110T288 112H165Q159 112 159 107L131 11Q128 0 117 0H4Q-8 0 -4 13L221 689Q224 700 235 700H366Q376 700 378 689L436 13V10Q436 0 425 0H308Q297 0 297
11ZM191 221T196 221H283Q288 221 288 226L276 499Q275 502 273 502T270 499L193 226Q191 221 196 221ZM260 749T231 779T201 857Q201 895 219 927T269 978T337 997Q383 997 413 967T443 890Q443 852 425 820T375 768T307 749Q260 749 231 779ZM337 823T354 840T371
880Q371 899 359 911T328 924Q307 924 291 908T274 867Q274 848 285 836T316 823Q337 823 354 840Z" />
<glyph unicode="&#xc6;" glyph-name="AE" horiz-adv-x="733" d="M758 586T755 583T746 579H544Q542 579 541 578T539 574L520 416Q518 411 524 411H639Q644 411 647 408T649 399L638 302Q637 297 633 294T624 290H509Q504 290 504 285L484 126Q484 121 488 121H690Q695
121 698 118T700 109L688 12Q687 7 684 4T675 0H342Q337 0 334 3T332 12L344 107Q344 112 340 112H195Q192 112 190 108L141 9Q137 0 126 0H6Q-1 0 -2 4T-1 14L355 691Q358 700 369 700H761Q766 700 769 697T771 688L759 591Q758 586 755 583ZM248 221T252 221H353Q358
221 359 226L394 506Q394 510 392 510T388 507L249 227Q248 221 252 221Z" />
<glyph unicode="&#xc7;" glyph-name="Ccedilla" horiz-adv-x="450" d="M461 497T458 494T449 490L335 485Q324 485 325 496L328 522Q329 526 329 534Q329 558 316 572T279 587Q254 587 236 569T214 522L172 177Q171 173 171 166Q171 142 184 128T220 113Q246 113
264 130T286 177L289 204Q290 209 293 212T302 216L415 211Q420 211 423 208T425 199L424 189Q414 113 370 62T257 -3Q250 -5 254 -9Q279 -44 279 -83Q279 -105 272 -123Q250 -185 181 -185Q155 -185 136 -178Q127 -175 130 -164L142 -118Q145 -107 157 -109Q168
-111 177 -105T191 -84Q193 -74 193 -70Q193 -39 162 -5L157 -2Q99 11 67 52T35 157Q35 167 37 189L77 513Q87 602 146 655T294 708Q374 708 420 664T466 543Q466 533 464 513L462 502Q461 497 458 494Z" />
<glyph unicode="&#xc8;" glyph-name="Egrave" horiz-adv-x="425" d="M451 586T448 583T439 579H236Q231 579 231 574L211 416Q211 411 215 411H332Q337 411 340 408T342 399L330 302Q329 297 326 294T317 290H201Q195 290 195 285L176 126Q174 121 180 121H382Q387
121 390 118T393 109L381 12Q380 7 377 4T368 0H35Q30 0 27 3T25 12L108 688Q109 693 112 696T121 700H454Q459 700 462 697T464 688L452 591Q451 586 448 583ZM341 774T341 770Q341 762 330 762H257Q250 762 244 769L183 871Q181 875 181 878Q181 881 184 883T192
886H282Q291 886 295 878L340 776Q341 774 341 770Z" />
<glyph unicode="&#xc9;" glyph-name="Eacute" horiz-adv-x="425" d="M451 586T448 583T439 579H236Q231 579 231 574L211 416Q211 411 215 411H332Q337 411 340 408T342 399L330 302Q329 297 326 294T317 290H201Q195 290 195 285L176 126Q174 121 180 121H382Q387
121 390 118T393 109L381 12Q380 7 377 4T368 0H35Q30 0 27 3T25 12L108 688Q109 693 112 696T121 700H454Q459 700 462 697T464 688L452 591Q451 586 448 583ZM234 762T234 768Q234 772 237 776L306 878Q311 886 322 886H412Q421 886 421 880Q421 875 417 871L330
769Q323 762 315 762H244Q234 762 234 768Z" />
<glyph unicode="&#xca;" glyph-name="Ecircumflex" horiz-adv-x="425" d="M451 586T448 583T439 579H236Q231 579 231 574L211 416Q211 411 215 411H332Q337 411 340 408T342 399L330 302Q329 297 326 294T317 290H201Q195 290 195 285L176 126Q174 121 180 121H382Q387
121 390 118T393 109L381 12Q380 7 377 4T368 0H35Q30 0 27 3T25 12L108 688Q109 693 112 696T121 700H454Q459 700 462 697T464 688L452 591Q451 586 448 583ZM154 760T154 766Q154 770 157 774L231 878Q236 886 246 886H371Q380 886 383 878L435 774Q436 772
436 769Q436 760 425 760H340Q330 760 327 769L305 825Q302 830 299 825L263 769Q261 765 257 763T248 760H163Q154 760 154 766Z" />
<glyph unicode="&#xcb;" glyph-name="Edieresis" horiz-adv-x="425" d="M451 586T448 583T439 579H236Q231 579 231 574L211 416Q211 411 215 411H332Q337 411 340 408T342 399L330 302Q329 297 326 294T317 290H201Q195 290 195 285L176 126Q174 121 180 121H382Q387
121 390 118T393 109L381 12Q380 7 377 4T368 0H35Q30 0 27 3T25 12L108 688Q109 693 112 696T121 700H454Q459 700 462 697T464 688L452 591Q451 586 448 583ZM353 758T334 777T315 827Q315 865 340 890T403 916Q434 916 452 898T471 848Q471 810 445 784T383
758Q353 758 334 777ZM175 758T156 777T137 827Q137 865 162 890T225 916Q256 916 274 898T293 848Q293 810 267 784T205 758Q175 758 156 777Z" />
<glyph unicode="&#xcc;" glyph-name="Igrave" horiz-adv-x="223" d="M30 0T27 3T25 12L108 688Q109 693 112 696T121 700H234Q245 700 245 688L162 12Q161 7 157 4T148 0H35Q30 0 27 3ZM231 774T231 770Q231 762 220 762H147Q140 762 134 769L73 871Q71 875 71
878Q71 881 74 883T82 886H172Q181 886 185 878L230 776Q231 774 231 770Z" />
<glyph unicode="&#xcd;" glyph-name="Iacute" horiz-adv-x="223" d="M30 0T27 3T25 12L108 688Q109 693 112 696T121 700H234Q245 700 245 688L162 12Q161 7 157 4T148 0H35Q30 0 27 3ZM123 762T123 768Q123 772 126 776L195 878Q200 886 211 886H301Q310 886
310 880Q310 875 306 871L219 769Q212 762 204 762H133Q123 762 123 768Z" />
<glyph unicode="&#xce;" glyph-name="Icircumflex" horiz-adv-x="223" d="M30 0T27 3T25 12L108 688Q109 693 112 696T121 700H234Q245 700 245 688L162 12Q161 7 157 4T148 0H35Q30 0 27 3ZM44 760T44 766Q44 770 47 774L121 878Q126 886 136 886H261Q270 886
273 878L325 774Q326 772 326 769Q326 760 315 760H230Q220 760 217 769L195 825Q192 830 189 825L153 769Q151 765 147 763T138 760H53Q44 760 44 766Z" />
<glyph unicode="&#xcf;" glyph-name="Idieresis" horiz-adv-x="223" d="M30 0T27 3T25 12L108 688Q109 693 112 696T121 700H234Q245 700 245 688L162 12Q161 7 157 4T148 0H35Q30 0 27 3ZM243 758T224 777T205 827Q205 865 230 890T293 916Q324 916 342 898T361
848Q361 810 335 784T273 758Q243 758 224 777ZM65 758T46 777T27 827Q27 865 52 890T115 916Q146 916 164 898T183 848Q183 810 157 784T95 758Q65 758 46 777Z" />
<glyph unicode="&#xd0;" glyph-name="Eth" horiz-adv-x="491" d="M407 700T453 656T500 536Q500 526 498 506L459 194Q449 106 389 53T241 0H65Q60 0 57 3T55 12L93 321Q93 326 89 326H75Q70 326 67 329T65 338L72 395Q73 400 76 403T85 407H98Q104 407 104 412L138
688Q139 693 142 696T151 700H327Q407 700 453 656ZM360 497Q361 503 361 514Q361 544 347 561T308 579H266Q261 579 261 574L241 412Q239 407 245 407H281Q286 407 289 404T291 395L284 338Q283 333 280 330T271 326H235Q230 326 230 321L206 126Q204 121 210
121L253 122Q279 123 298 144T324 203L360 497Z" />
<glyph unicode="&#xd1;" glyph-name="Ntilde" horiz-adv-x="499" d="M386 693T389 696T398 700H511Q516 700 519 697T521 688L438 12Q437 7 434 4T425 0H297Q288 0 285 10L213 397Q212 400 210 400T207 396L161 12Q160 7 156 4T147 0H35Q30 0 27 3T25 12L108 688Q109
693 112 696T121 700H248Q257 700 259 690L333 303Q334 300 336 300T339 304L385 688Q386 693 389 696ZM367 774T338 792Q330 796 320 803T300 810Q278 810 262 788Q255 778 245 784L208 814Q202 820 206 830Q223 864 247 881T299 899Q330 899 358 876Q361 874
367 869T381 861T396 858Q418 858 433 878Q442 890 450 883L486 855Q490 851 490 847Q490 841 484 832Q464 802 438 788T389 774Q367 774 338 792Z" />
<glyph unicode="&#xd2;" glyph-name="Ograve" horiz-adv-x="458" d="M128 -8T82 36T35 158Q35 168 37 190L76 510Q87 600 147 654T296 708Q377 708 424 664T471 542Q471 532 469 510L430 190Q419 100 359 46T209 -8Q128 -8 82 36ZM251 113T269 132T292 184L333
516Q334 520 334 528Q334 555 320 571T282 587Q255 587 237 568T214 516L173 184Q172 180 172 172Q172 145 186 129T223 113Q251 113 269 132ZM348 773T348 769Q348 761 337 761H264Q257 761 251 768L190 870Q188 874 188 877Q188 880 191 882T199 885H289Q298
885 302 877L347 775Q348 773 348 769Z" />
<glyph unicode="&#xd3;" glyph-name="Oacute" horiz-adv-x="458" d="M128 -8T82 36T35 158Q35 168 37 190L76 510Q87 600 147 654T296 708Q377 708 424 664T471 542Q471 532 469 510L430 190Q419 100 359 46T209 -8Q128 -8 82 36ZM251 113T269 132T292 184L333
516Q334 520 334 528Q334 555 320 571T282 587Q255 587 237 568T214 516L173 184Q172 180 172 172Q172 145 186 129T223 113Q251 113 269 132ZM241 761T241 767Q241 771 244 775L313 877Q318 885 329 885H419Q428 885 428 879Q428 874 424 870L337 768Q330 761
322 761H251Q241 761 241 767Z" />
<glyph unicode="&#xd4;" glyph-name="Ocircumflex" horiz-adv-x="458" d="M128 -8T82 36T35 158Q35 168 37 190L76 510Q87 600 147 654T296 708Q377 708 424 664T471 542Q471 532 469 510L430 190Q419 100 359 46T209 -8Q128 -8 82 36ZM251 113T269 132T292 184L333
516Q334 520 334 528Q334 555 320 571T282 587Q255 587 237 568T214 516L173 184Q172 180 172 172Q172 145 186 129T223 113Q251 113 269 132ZM162 759T162 765Q162 769 165 773L239 877Q244 885 254 885H379Q388 885 391 877L443 773Q444 771 444 768Q444 759
433 759H348Q338 759 335 768L313 824Q310 829 307 824L271 768Q269 764 265 762T256 759H171Q162 759 162 765Z" />
<glyph unicode="&#xd5;" glyph-name="Otilde" horiz-adv-x="458" d="M128 -8T82 36T35 158Q35 168 37 190L76 510Q87 600 147 654T296 708Q377 708 424 664T471 542Q471 532 469 510L430 190Q419 100 359 46T209 -8Q128 -8 82 36ZM251 113T269 132T292 184L333
516Q334 520 334 528Q334 555 320 571T282 587Q255 587 237 568T214 516L173 184Q172 180 172 172Q172 145 186 129T223 113Q251 113 269 132ZM347 771T318 789Q310 793 300 800T280 807Q258 807 242 785Q235 775 225 781L188 811Q182 817 186 827Q203 861 227
878T279 896Q310 896 338 873Q341 871 347 866T361 858T376 855Q398 855 413 875Q422 887 430 880L466 852Q470 848 470 844Q470 838 464 829Q444 799 418 785T369 771Q347 771 318 789Z" />
<glyph unicode="&#xd6;" glyph-name="Odieresis" horiz-adv-x="458" d="M128 -8T82 36T35 158Q35 168 37 190L76 510Q87 600 147 654T296 708Q377 708 424 664T471 542Q471 532 469 510L430 190Q419 100 359 46T209 -8Q128 -8 82 36ZM251 113T269 132T292 184L333
516Q334 520 334 528Q334 555 320 571T282 587Q255 587 237 568T214 516L173 184Q172 180 172 172Q172 145 186 129T223 113Q251 113 269 132ZM361 757T342 776T323 826Q323 864 348 889T411 915Q442 915 460 897T479 847Q479 809 453 783T391 757Q361 757 342
776ZM183 757T164 776T145 826Q145 864 170 889T233 915Q264 915 282 897T301 847Q301 809 275 783T213 757Q183 757 164 776Z" />
<glyph unicode="&#xd7;" glyph-name="multiply" horiz-adv-x="387" d="M390 417T390 412Q390 407 385 403L289 315Q287 313 287 311T288 307L363 218Q366 215 366 211Q366 207 361 202L297 143Q291 139 289 139Q287 139 281 143L206 232Q204 234 202 234T198 232L101
143Q97 139 93 139Q91 139 85 143L35 202Q33 204 33 209Q33 214 37 218L135 307Q138 310 136 315L61 403Q58 406 58 410Q58 415 63 420L127 478Q131 482 135 482Q139 482 142 478L218 389Q219 388 221 388T225 389L323 478Q327 482 331 482Q335 482 338 478L387
420Q390 417 390 412Z" />
<glyph unicode="&#xd8;" glyph-name="Oslash" horiz-adv-x="537" d="M506 702T500 692L458 619L457 613Q470 581 470 542Q470 532 468 510L429 190Q418 100 358 46T208 -8Q153 -8 114 13Q112 14 111 13T108 10L77 -42Q75 -47 70 -49T61 -47L6 -8Q1 -5 1 0Q1 4
4 8L45 82L46 88Q34 120 34 158Q34 168 36 190L75 510Q86 600 146 654T295 708Q349 708 387 688Q392 686 394 691L424 742Q430 753 440 747L497 708Q506 702 500 692ZM332 516Q333 520 333 528Q333 555 319 571T281 587Q254 587 236 568T213 516L172 184Q171 180
171 172Q171 145 185 129T222 113Q250 113 268 132T291 184L332 516Z" />
<glyph unicode="&#xd9;" glyph-name="Ugrave" horiz-adv-x="465" d="M134 -8T89 38T43 163Q43 187 45 199L105 688Q106 693 109 696T118 700H231Q242 700 242 688L180 185Q179 180 179 171Q179 145 192 129T227 113Q252 113 269 133T291 185L353 688Q354 693 357
696T366 700H480Q485 700 488 697T490 688L430 199Q419 105 359 49T212 -8Q134 -8 89 38ZM352 774T352 770Q352 762 341 762H268Q261 762 255 769L194 871Q192 875 192 878Q192 881 195 883T203 886H293Q302 886 306 878L351 776Q352 774 352 770Z" />
<glyph unicode="&#xda;" glyph-name="Uacute" horiz-adv-x="465" d="M134 -8T89 38T43 163Q43 187 45 199L105 688Q106 693 109 696T118 700H231Q242 700 242 688L180 185Q179 180 179 171Q179 145 192 129T227 113Q252 113 269 133T291 185L353 688Q354 693 357
696T366 700H480Q485 700 488 697T490 688L430 199Q419 105 359 49T212 -8Q134 -8 89 38ZM244 762T244 768Q244 772 247 776L316 878Q321 886 332 886H422Q431 886 431 880Q431 875 427 871L340 769Q333 762 325 762H254Q244 762 244 768Z" />
<glyph unicode="&#xdb;" glyph-name="Ucircumflex" horiz-adv-x="465" d="M134 -8T89 38T43 163Q43 187 45 199L105 688Q106 693 109 696T118 700H231Q242 700 242 688L180 185Q179 180 179 171Q179 145 192 129T227 113Q252 113 269 133T291 185L353 688Q354
693 357 696T366 700H480Q485 700 488 697T490 688L430 199Q419 105 359 49T212 -8Q134 -8 89 38ZM165 760T165 766Q165 770 168 774L242 878Q247 886 257 886H382Q391 886 394 878L446 774Q447 772 447 769Q447 760 436 760H351Q341 760 338 769L316 825Q313 830
310 825L274 769Q272 765 268 763T259 760H174Q165 760 165 766Z" />
<glyph unicode="&#xdc;" glyph-name="Udieresis" horiz-adv-x="465" d="M134 -8T89 38T43 163Q43 187 45 199L105 688Q106 693 109 696T118 700H231Q242 700 242 688L180 185Q179 180 179 171Q179 145 192 129T227 113Q252 113 269 133T291 185L353 688Q354 693
357 696T366 700H480Q485 700 488 697T490 688L430 199Q419 105 359 49T212 -8Q134 -8 89 38ZM364 758T345 777T326 827Q326 865 351 890T414 916Q445 916 463 898T482 848Q482 810 456 784T394 758Q364 758 345 777ZM186 758T167 777T148 827Q148 865 173 890T236
916Q267 916 285 898T304 848Q304 810 278 784T216 758Q186 758 167 777Z" />
<glyph unicode="&#xdd;" glyph-name="Yacute" horiz-adv-x="460" d="M148 1T145 4T143 13L175 273Q175 274 175 275T175 279L89 686V689Q89 694 92 697T100 700H220Q231 700 232 690L263 451Q263 448 265 448T269 451L358 690Q362 700 373 700H492Q498 700 500
697T500 686L314 279Q312 276 312 273L280 13Q279 8 276 5T267 1H153Q148 1 145 4ZM242 762T242 768Q242 772 245 776L314 878Q319 886 330 886H420Q429 886 429 880Q429 875 425 871L338 769Q331 762 323 762H252Q242 762 242 768Z" />
<glyph unicode="&#xde;" glyph-name="Thorn" horiz-adv-x="451" d="M370 560T413 512T456 383Q456 371 454 347Q443 254 388 198T253 141H181Q176 141 176 136L161 12Q160 7 156 4T147 0H34Q29 0 26 3T24 12L107 688Q108 693 111 696T120 700H233Q244 700 244
688L228 565Q228 560 233 560H298Q370 560 413 512ZM272 252T295 282T318 365Q318 400 303 419T261 439H218Q214 439 212 434L191 257Q189 252 195 252H238Q272 252 295 282Z" />
<glyph unicode="&#xdf;" glyph-name="germandbls" horiz-adv-x="447" d="M24 1T21 4T19 13L77 484Q90 591 144 649T286 708Q366 708 409 666T453 549Q453 539 451 519Q439 423 372 382Q366 379 371 376Q426 335 426 244Q426 226 423 205Q411 108 353 54T199 0H194Q189
0 186 3T184 12L196 108Q196 113 200 117T209 121H214Q248 121 270 155T293 247Q293 282 280 300T243 320H238Q233 320 230 323T228 332L239 419Q240 424 243 427T252 431H255Q279 431 295 451T316 509Q317 515 317 526Q317 555 305 571T273 588Q251 588 236 567T216
506L156 12Q155 7 152 4T143 0L29 1Q24 1 21 4Z" />
<glyph unicode="&#xe0;" glyph-name="agrave" horiz-adv-x="431" d="M301 507T304 510T313 514H427Q432 514 435 511T437 502L377 12Q376 7 373 4T364 0H250Q245 0 242 3T240 12L244 40Q244 44 242 44T238 41Q202 -8 142 -8Q84 -8 56 26T28 121Q28 146 30 160L54
354Q64 436 102 479T207 522Q267 522 291 473Q293 470 294 470T297 474L300 502Q301 507 304 510ZM227 113T241 129T260 171L281 343Q284 369 273 385T242 401Q222 401 208 385T190 343L168 171Q165 145 176 129T207 113Q227 113 241 129ZM312 588T312 584Q312
576 301 576H228Q221 576 215 583L154 685Q152 689 152 692Q152 695 155 697T163 700H253Q262 700 266 692L311 590Q312 588 312 584Z" />
<glyph unicode="&#xe1;" glyph-name="aacute" horiz-adv-x="431" d="M301 507T304 510T313 514H427Q432 514 435 511T437 502L377 12Q376 7 373 4T364 0H250Q245 0 242 3T240 12L244 40Q244 44 242 44T238 41Q202 -8 142 -8Q84 -8 56 26T28 121Q28 146 30 160L54
354Q64 436 102 479T207 522Q267 522 291 473Q293 470 294 470T297 474L300 502Q301 507 304 510ZM227 113T241 129T260 171L281 343Q284 369 273 385T242 401Q222 401 208 385T190 343L168 171Q165 145 176 129T207 113Q227 113 241 129ZM205 576T205 582Q205
586 208 590L277 692Q282 700 293 700H383Q392 700 392 694Q392 689 388 685L301 583Q294 576 286 576H215Q205 576 205 582Z" />
<glyph unicode="&#xe2;" glyph-name="acircumflex" horiz-adv-x="431" d="M301 507T304 510T313 514H427Q432 514 435 511T437 502L377 12Q376 7 373 4T364 0H250Q245 0 242 3T240 12L244 40Q244 44 242 44T238 41Q202 -8 142 -8Q84 -8 56 26T28 121Q28 146 30
160L54 354Q64 436 102 479T207 522Q267 522 291 473Q293 470 294 470T297 474L300 502Q301 507 304 510ZM227 113T241 129T260 171L281 343Q284 369 273 385T242 401Q222 401 208 385T190 343L168 171Q165 145 176 129T207 113Q227 113 241 129ZM126 574T126 580Q126
584 129 588L203 692Q208 700 218 700H343Q352 700 355 692L407 588Q408 586 408 583Q408 574 397 574H312Q302 574 299 583L277 639Q274 644 271 639L235 583Q233 579 229 577T220 574H135Q126 574 126 580Z" />
<glyph unicode="&#xe3;" glyph-name="atilde" horiz-adv-x="431" d="M301 507T304 510T313 514H427Q432 514 435 511T437 502L377 12Q376 7 373 4T364 0H250Q245 0 242 3T240 12L244 40Q244 44 242 44T238 41Q202 -8 142 -8Q84 -8 56 26T28 121Q28 146 30 160L54
354Q64 436 102 479T207 522Q267 522 291 473Q293 470 294 470T297 474L300 502Q301 507 304 510ZM227 113T241 129T260 171L281 343Q284 369 273 385T242 401Q222 401 208 385T190 343L168 171Q165 145 176 129T207 113Q227 113 241 129ZM312 586T283 604Q275
608 265 615T245 622Q223 622 207 600Q200 590 190 596L153 626Q147 632 151 642Q168 676 192 693T244 711Q275 711 303 688Q306 686 312 681T326 673T341 670Q363 670 378 690Q387 702 395 695L431 667Q435 663 435 659Q435 653 429 644Q409 614 383 600T334 586Q312
586 283 604Z" />
<glyph unicode="&#xe4;" glyph-name="adieresis" horiz-adv-x="431" d="M301 507T304 510T313 514H427Q432 514 435 511T437 502L377 12Q376 7 373 4T364 0H250Q245 0 242 3T240 12L244 40Q244 44 242 44T238 41Q202 -8 142 -8Q84 -8 56 26T28 121Q28 146 30 160L54
354Q64 436 102 479T207 522Q267 522 291 473Q293 470 294 470T297 474L300 502Q301 507 304 510ZM227 113T241 129T260 171L281 343Q284 369 273 385T242 401Q222 401 208 385T190 343L168 171Q165 145 176 129T207 113Q227 113 241 129ZM325 572T306 591T287
641Q287 679 312 704T375 730Q406 730 424 712T443 662Q443 624 417 598T355 572Q325 572 306 591ZM147 572T128 591T109 641Q109 679 134 704T197 730Q228 730 246 712T265 662Q265 624 239 598T177 572Q147 572 128 591Z" />
<glyph unicode="&#xe5;" glyph-name="aring" horiz-adv-x="431" d="M301 507T304 510T313 514H427Q432 514 435 511T437 502L377 12Q376 7 373 4T364 0H250Q245 0 242 3T240 12L244 40Q244 44 242 44T238 41Q202 -8 142 -8Q84 -8 56 26T28 121Q28 146 30 160L54
354Q64 436 102 479T207 522Q267 522 291 473Q293 470 294 470T297 474L300 502Q301 507 304 510ZM227 113T241 129T260 171L281 343Q284 369 273 385T242 401Q222 401 208 385T190 343L168 171Q165 145 176 129T207 113Q227 113 241 129ZM219 563T190 593T160
671Q160 709 178 741T228 792T296 811Q342 811 372 781T402 704Q402 666 384 634T334 582T266 563Q219 563 190 593ZM296 637T313 654T330 694Q330 713 318 725T287 738Q266 738 250 722T233 681Q233 662 244 650T275 637Q296 637 313 654Z" />
<glyph unicode="&#xe6;" glyph-name="ae" horiz-adv-x="665" d="M96 -8T58 16T19 113Q19 122 21 146Q32 236 83 268T228 301H278Q280 301 281 302T283 306L287 339Q288 343 288 352Q288 375 277 388T245 401Q227 401 213 391T192 362Q189 351 179 351L65 354Q54
354 55 366Q68 438 124 480T256 522Q293 522 319 510T367 474Q370 470 374 474Q427 522 505 522Q579 522 622 483T665 379Q665 372 663 354L647 219Q646 214 643 211T634 207H420Q415 207 415 202L411 171Q408 148 419 133T451 117Q468 117 481 128T501 154Q507
165 516 164L625 154Q637 152 634 141Q619 70 571 31T446 -8Q395 -8 361 10T321 51Q320 52 320 53T318 54Q305 29 258 11T151 -8Q96 -8 58 16ZM426 301T432 301H515Q519 301 521 306L525 344Q528 369 517 385T486 401Q465 401 450 385T432 344L428 306Q426 301
432 301ZM222 97T241 111T264 149L270 201Q270 206 266 206H226Q197 206 179 188T160 138Q160 118 171 108T200 97Q222 97 241 111Z" />
<glyph unicode="&#xe7;" glyph-name="ccedilla" horiz-adv-x="421" d="M418 337T415 334T406 330L292 325Q281 325 282 337L283 349Q286 371 275 386T243 401Q222 401 208 385T190 343L168 171Q165 145 176 129T208 113Q228 113 243 128T261 165L262 178Q263 183
267 186T276 190L389 189Q394 189 397 186T399 177L396 154Q388 92 349 51T245 -4Q239 -6 242 -10Q266 -44 266 -83Q266 -105 259 -123Q247 -157 223 -171T169 -185Q143 -185 124 -178Q114 -175 117 -164L128 -118Q131 -107 143 -109Q154 -111 164 -105T179 -84Q181
-76 181 -72Q181 -44 150 -6L145 -3Q88 7 59 43T29 135Q29 151 30 160L54 354Q63 430 118 476T258 522Q336 522 379 484T423 382Q423 367 422 360L419 342Q418 337 415 334Z" />
<glyph unicode="&#xe8;" glyph-name="egrave" horiz-adv-x="423" d="M404 220T401 217T392 213H178Q176 213 175 212T173 208L168 171Q165 146 176 130T208 113Q226 113 239 125T259 157Q263 167 273 167L384 161Q389 161 391 158T393 148Q377 71 327 32T193 -8Q114
-8 71 29T28 133Q28 142 30 160L54 354Q63 430 118 476T258 522Q336 522 379 484T423 379Q423 372 421 354L405 225Q404 220 401 217ZM223 401T208 385T190 344L185 305Q185 300 189 300H273Q275 300 276 301T278 305L283 344Q286 369 275 385T243 401Q223 401
208 385ZM308 588T308 584Q308 576 297 576H224Q217 576 211 583L150 685Q148 689 148 692Q148 695 151 697T159 700H249Q258 700 262 692L307 590Q308 588 308 584Z" />
<glyph unicode="&#xe9;" glyph-name="eacute" horiz-adv-x="423" d="M404 220T401 217T392 213H178Q176 213 175 212T173 208L168 171Q165 146 176 130T208 113Q226 113 239 125T259 157Q263 167 273 167L384 161Q389 161 391 158T393 148Q377 71 327 32T193 -8Q114
-8 71 29T28 133Q28 142 30 160L54 354Q63 430 118 476T258 522Q336 522 379 484T423 379Q423 372 421 354L405 225Q404 220 401 217ZM223 401T208 385T190 344L185 305Q185 300 189 300H273Q275 300 276 301T278 305L283 344Q286 369 275 385T243 401Q223 401
208 385ZM201 576T201 582Q201 586 204 590L273 692Q278 700 289 700H379Q388 700 388 694Q388 689 384 685L297 583Q290 576 282 576H211Q201 576 201 582Z" />
<glyph unicode="&#xea;" glyph-name="ecircumflex" horiz-adv-x="423" d="M404 220T401 217T392 213H178Q176 213 175 212T173 208L168 171Q165 146 176 130T208 113Q226 113 239 125T259 157Q263 167 273 167L384 161Q389 161 391 158T393 148Q377 71 327 32T193
-8Q114 -8 71 29T28 133Q28 142 30 160L54 354Q63 430 118 476T258 522Q336 522 379 484T423 379Q423 372 421 354L405 225Q404 220 401 217ZM223 401T208 385T190 344L185 305Q185 300 189 300H273Q275 300 276 301T278 305L283 344Q286 369 275 385T243 401Q223
401 208 385ZM122 574T122 580Q122 584 125 588L199 692Q204 700 214 700H339Q348 700 351 692L403 588Q404 586 404 583Q404 574 393 574H308Q298 574 295 583L273 639Q270 644 267 639L231 583Q229 579 225 577T216 574H131Q122 574 122 580Z" />
<glyph unicode="&#xeb;" glyph-name="edieresis" horiz-adv-x="423" d="M404 220T401 217T392 213H178Q176 213 175 212T173 208L168 171Q165 146 176 130T208 113Q226 113 239 125T259 157Q263 167 273 167L384 161Q389 161 391 158T393 148Q377 71 327 32T193
-8Q114 -8 71 29T28 133Q28 142 30 160L54 354Q63 430 118 476T258 522Q336 522 379 484T423 379Q423 372 421 354L405 225Q404 220 401 217ZM223 401T208 385T190 344L185 305Q185 300 189 300H273Q275 300 276 301T278 305L283 344Q286 369 275 385T243 401Q223
401 208 385ZM321 572T302 591T283 641Q283 679 308 704T371 730Q402 730 420 712T439 662Q439 624 413 598T351 572Q321 572 302 591ZM143 572T124 591T105 641Q105 679 130 704T193 730Q224 730 242 712T261 662Q261 624 235 598T173 572Q143 572 124 591Z" />
<glyph unicode="&#xec;" glyph-name="igrave" horiz-adv-x="184" d="M11 0T8 3T5 12L66 502Q66 507 70 510T79 514H192Q197 514 200 511T202 502L142 12Q141 7 138 4T129 0H16Q11 0 8 3ZM188 588T188 584Q188 576 177 576H104Q97 576 91 583L30 685Q28 689 28
692Q28 695 31 697T39 700H129Q138 700 142 692L187 590Q188 588 188 584Z" />
<glyph unicode="&#xed;" glyph-name="iacute" horiz-adv-x="184" d="M11 0T8 3T5 12L66 502Q66 507 70 510T79 514H192Q197 514 200 511T202 502L142 12Q141 7 138 4T129 0H16Q11 0 8 3ZM81 576T81 582Q81 586 84 590L153 692Q158 700 169 700H259Q268 700 268
694Q268 689 264 685L177 583Q170 576 162 576H91Q81 576 81 582Z" />
<glyph unicode="&#xee;" glyph-name="icircumflex" horiz-adv-x="184" d="M11 0T8 3T5 12L66 502Q66 507 70 510T79 514H192Q197 514 200 511T202 502L142 12Q141 7 138 4T129 0H16Q11 0 8 3ZM2 574T2 580Q2 584 5 588L79 692Q84 700 94 700H219Q228 700 231 692L283
588Q284 586 284 583Q284 574 273 574H188Q178 574 175 583L153 639Q150 644 147 639L111 583Q109 579 105 577T96 574H11Q2 574 2 580Z" />
<glyph unicode="&#xef;" glyph-name="idieresis" horiz-adv-x="184" d="M11 0T8 3T5 12L66 502Q66 507 70 510T79 514H192Q197 514 200 511T202 502L142 12Q141 7 138 4T129 0H16Q11 0 8 3ZM201 572T182 591T163 641Q163 679 188 704T251 730Q282 730 300 712T319
662Q319 624 293 598T231 572Q201 572 182 591ZM23 572T4 591T-15 641Q-15 679 10 704T73 730Q104 730 122 712T141 662Q141 624 115 598T53 572Q23 572 4 591Z" />
<glyph unicode="&#xf0;" glyph-name="eth" horiz-adv-x="436" d="M457 607Q457 598 447 595L393 581Q388 579 389 575Q424 484 424 392Q424 357 420 326L400 160Q390 82 336 37T194 -8Q116 -8 73 30T29 135Q29 151 30 160L51 326Q57 375 83 413T148 472T232 494Q270
494 287 477Q290 474 290 479Q284 513 271 547Q269 552 265 550L189 531L186 530Q178 530 176 540L171 575V577Q171 586 182 590L239 605Q244 607 243 611Q226 645 202 685Q200 691 200 692Q200 700 211 700H318Q327 700 331 693Q335 686 360 641Q362 636 365 638L441
657L444 658Q452 658 454 648L457 610V607ZM285 340T274 356T241 372Q220 372 205 356T186 315L168 171Q165 146 176 130T209 113Q230 113 245 129T264 171L282 315Q285 340 274 356Z" />
<glyph unicode="&#xf1;" glyph-name="ntilde" horiz-adv-x="433" d="M228 622T213 601Q206 589 196 597L162 626Q156 632 159 642Q175 676 198 693T248 711Q277 711 305 688Q315 679 322 675T340 670Q361 670 376 690Q384 701 393 694L425 667Q434 661 428 651Q409
617 383 602T333 586Q321 586 311 590T285 604Q278 608 273 612T261 619T248 622Q228 622 213 601ZM370 522T398 489T427 392Q427 372 424 351L383 12Q382 7 379 4T370 0H256Q251 0 248 3T246 12L286 340Q287 345 287 355Q287 401 250 401Q228 401 214 385T196
338L156 12Q155 7 152 4T143 0H29Q24 0 21 3T19 12L79 502Q80 507 83 510T92 514H206Q211 514 214 511T216 502L214 483V482Q214 480 216 480T222 484Q259 522 313 522Q370 522 398 489Z" />
<glyph unicode="&#xf2;" glyph-name="ograve" horiz-adv-x="429" d="M116 -8T73 30T29 135Q29 151 30 160L54 354Q63 430 118 476T259 522Q338 522 382 484T426 379Q426 370 424 354L400 160Q390 82 336 37T194 -8Q116 -8 73 30ZM230 114T245 130T264 171L286
344Q289 369 277 385T244 401Q223 401 208 385T190 344L168 171Q165 146 176 130T209 114Q230 114 245 130ZM311 588T311 584Q311 576 300 576H227Q220 576 214 583L153 685Q151 689 151 692Q151 695 154 697T162 700H252Q261 700 265 692L310 590Q311 588 311
584Z" />
<glyph unicode="&#xf3;" glyph-name="oacute" horiz-adv-x="429" d="M116 -8T73 30T29 135Q29 151 30 160L54 354Q63 430 118 476T259 522Q338 522 382 484T426 379Q426 370 424 354L400 160Q390 82 336 37T194 -8Q116 -8 73 30ZM230 114T245 130T264 171L286
344Q289 369 277 385T244 401Q223 401 208 385T190 344L168 171Q165 146 176 130T209 114Q230 114 245 130ZM204 576T204 582Q204 586 207 590L276 692Q281 700 292 700H382Q391 700 391 694Q391 689 387 685L300 583Q293 576 285 576H214Q204 576 204 582Z" />
<glyph unicode="&#xf4;" glyph-name="ocircumflex" horiz-adv-x="429" d="M116 -8T73 30T29 135Q29 151 30 160L54 354Q63 430 118 476T259 522Q338 522 382 484T426 379Q426 370 424 354L400 160Q390 82 336 37T194 -8Q116 -8 73 30ZM230 114T245 130T264 171L286
344Q289 369 277 385T244 401Q223 401 208 385T190 344L168 171Q165 146 176 130T209 114Q230 114 245 130ZM125 574T125 580Q125 584 128 588L202 692Q207 700 217 700H342Q351 700 354 692L406 588Q407 586 407 583Q407 574 396 574H311Q301 574 298 583L276
639Q273 644 270 639L234 583Q232 579 228 577T219 574H134Q125 574 125 580Z" />
<glyph unicode="&#xf5;" glyph-name="otilde" horiz-adv-x="429" d="M116 -8T73 30T29 135Q29 151 30 160L54 354Q63 430 118 476T259 522Q338 522 382 484T426 379Q426 370 424 354L400 160Q390 82 336 37T194 -8Q116 -8 73 30ZM230 114T245 130T264 171L286
344Q289 369 277 385T244 401Q223 401 208 385T190 344L168 171Q165 146 176 130T209 114Q230 114 245 130ZM310 586T281 604Q273 608 263 615T243 622Q221 622 205 600Q198 590 188 596L151 626Q145 632 149 642Q166 676 190 693T242 711Q273 711 301 688Q304
686 310 681T324 673T339 670Q361 670 376 690Q385 702 393 695L429 667Q433 663 433 659Q433 653 427 644Q407 614 381 600T332 586Q310 586 281 604Z" />
<glyph unicode="&#xf6;" glyph-name="odieresis" horiz-adv-x="429" d="M116 -8T73 30T29 135Q29 151 30 160L54 354Q63 430 118 476T259 522Q338 522 382 484T426 379Q426 370 424 354L400 160Q390 82 336 37T194 -8Q116 -8 73 30ZM230 114T245 130T264 171L286
344Q289 369 277 385T244 401Q223 401 208 385T190 344L168 171Q165 146 176 130T209 114Q230 114 245 130ZM324 572T305 591T286 641Q286 679 311 704T374 730Q405 730 423 712T442 662Q442 624 416 598T354 572Q324 572 305 591ZM146 572T127 591T108 641Q108
679 133 704T196 730Q227 730 245 712T264 662Q264 624 238 598T176 572Q146 572 127 591Z" />
<glyph unicode="&#xf7;" glyph-name="divide" horiz-adv-x="425" d="M220 412T203 429T185 472Q185 503 208 526T261 549Q286 549 303 532T320 490Q320 459 297 436T245 412Q220 412 203 429ZM42 258T39 261T37 270L47 352Q48 357 51 360T60 364H416Q421 364 424
361T426 352L416 270Q415 265 412 262T403 258H47Q42 258 39 261ZM179 78T162 95T144 138Q144 169 167 192T220 215Q245 215 262 198T279 156Q279 125 256 102T204 78Q179 78 162 95Z" />
<glyph unicode="&#xf8;" glyph-name="oslash" horiz-adv-x="443" d="M455 509T449 499L414 443L413 437Q424 409 424 380Q424 372 422 354L398 160Q388 82 334 37T192 -8Q159 -8 127 0Q122 1 121 -3L95 -45Q93 -50 88 -51T78 -50L11 -4Q3 2 8 12L39 61Q42 65 40
68Q27 97 27 135Q27 151 28 160L52 354Q61 430 116 476T257 522Q296 522 329 511Q333 510 336 514L362 557Q365 562 370 563T379 561L446 515Q455 509 449 499ZM287 369T275 385T242 401Q221 401 206 385T188 344L166 171Q163 146 174 130T207 114Q228 114 243
130T263 171L284 344Q287 369 275 385Z" />
<glyph unicode="&#xf9;" glyph-name="ugrave" horiz-adv-x="433" d="M303 507T306 510T315 514H429Q434 514 437 511T439 502L379 12Q378 7 375 4T366 0H252Q247 0 244 3T242 12L244 29Q245 32 243 33T239 31Q207 -7 147 -7Q95 -7 62 22T29 113Q29 122 31 142L75
502Q76 507 79 510T88 514H202Q207 514 210 511T212 502L172 173Q171 168 171 158Q171 136 180 125T208 113Q230 113 244 130T262 176L302 502Q303 507 306 510ZM311 588T311 584Q311 576 300 576H227Q220 576 214 583L153 685Q151 689 151 692Q151 695 154 697T162
700H252Q261 700 265 692L310 590Q311 588 311 584Z" />
<glyph unicode="&#xfa;" glyph-name="uacute" horiz-adv-x="433" d="M303 507T306 510T315 514H429Q434 514 437 511T439 502L379 12Q378 7 375 4T366 0H252Q247 0 244 3T242 12L244 29Q245 32 243 33T239 31Q207 -7 147 -7Q95 -7 62 22T29 113Q29 122 31 142L75
502Q76 507 79 510T88 514H202Q207 514 210 511T212 502L172 173Q171 168 171 158Q171 136 180 125T208 113Q230 113 244 130T262 176L302 502Q303 507 306 510ZM203 576T203 582Q203 586 206 590L275 692Q280 700 291 700H381Q390 700 390 694Q390 689 386 685L299
583Q292 576 284 576H213Q203 576 203 582Z" />
<glyph unicode="&#xfb;" glyph-name="ucircumflex" horiz-adv-x="433" d="M303 507T306 510T315 514H429Q434 514 437 511T439 502L379 12Q378 7 375 4T366 0H252Q247 0 244 3T242 12L244 29Q245 32 243 33T239 31Q207 -7 147 -7Q95 -7 62 22T29 113Q29 122 31
142L75 502Q76 507 79 510T88 514H202Q207 514 210 511T212 502L172 173Q171 168 171 158Q171 136 180 125T208 113Q230 113 244 130T262 176L302 502Q303 507 306 510ZM124 574T124 580Q124 584 127 588L201 692Q206 700 216 700H341Q350 700 353 692L405 588Q406
586 406 583Q406 574 395 574H310Q300 574 297 583L275 639Q272 644 269 639L233 583Q231 579 227 577T218 574H133Q124 574 124 580Z" />
<glyph unicode="&#xfc;" glyph-name="udieresis" horiz-adv-x="433" d="M303 507T306 510T315 514H429Q434 514 437 511T439 502L379 12Q378 7 375 4T366 0H252Q247 0 244 3T242 12L244 29Q245 32 243 33T239 31Q207 -7 147 -7Q95 -7 62 22T29 113Q29 122 31 142L75
502Q76 507 79 510T88 514H202Q207 514 210 511T212 502L172 173Q171 168 171 158Q171 136 180 125T208 113Q230 113 244 130T262 176L302 502Q303 507 306 510ZM323 572T304 591T285 641Q285 679 310 704T373 730Q404 730 422 712T441 662Q441 624 415 598T353
572Q323 572 304 591ZM145 572T126 591T107 641Q107 679 132 704T195 730Q226 730 244 712T263 662Q263 624 237 598T175 572Q145 572 126 591Z" />
<glyph unicode="&#xfd;" glyph-name="yacute" horiz-adv-x="410" d="M-9 -199T-10 -196T-11 -187L0 -95Q2 -83 10 -83Q60 -82 83 -67T116 -3V3L55 502V504Q55 515 67 515H189Q201 515 201 504L209 207Q209 203 211 203T215 207L294 504Q297 515 308 515L430 513Q436
513 438 510T439 500L247 -19Q219 -92 193 -128T122 -182T-2 -199H-7Q-9 -199 -10 -196ZM194 576T194 582Q194 586 197 590L266 692Q271 700 282 700H372Q381 700 381 694Q381 689 377 685L290 583Q283 576 275 576H204Q194 576 194 582Z" />
<glyph unicode="&#xfe;" glyph-name="thorn" horiz-adv-x="429" d="M369 522T398 489T427 394Q427 375 424 354L400 160Q390 80 352 36T246 -8Q185 -8 161 43Q160 46 158 46T155 41L127 -188Q126 -193 123 -196T114 -200H1Q-10 -200 -10 -188L98 688Q99 693 102
696T111 700H225Q230 700 233 697T235 688L208 471Q208 469 210 469Q214 469 218 476Q253 522 311 522Q369 522 398 489ZM289 369T278 385T246 401Q226 401 212 385T193 343L172 171Q169 145 180 129T211 113Q232 113 246 129T264 171L286 343Q289 369 278 385Z"
/>
<glyph unicode="&#xff;" glyph-name="ydieresis" horiz-adv-x="410" d="M-9 -199T-10 -196T-11 -187L0 -95Q2 -83 10 -83Q60 -82 83 -67T116 -3V3L55 502V504Q55 515 67 515H189Q201 515 201 504L209 207Q209 203 211 203T215 207L294 504Q297 515 308 515L430
513Q436 513 438 510T439 500L247 -19Q219 -92 193 -128T122 -182T-2 -199H-7Q-9 -199 -10 -196ZM314 572T295 591T276 641Q276 679 301 704T364 730Q395 730 413 712T432 662Q432 624 406 598T344 572Q314 572 295 591ZM136 572T117 591T98 641Q98 679 123 704T186
730Q217 730 235 712T254 662Q254 624 228 598T166 572Q136 572 117 591Z" />
<glyph unicode="&#x2013;" glyph-name="endash" horiz-adv-x="369" d="M38 224T35 227T33 236L45 333Q46 338 49 341T58 345H358Q363 345 366 342T368 333L356 236Q355 231 352 228T343 224H43Q38 224 35 227Z" />
<glyph unicode="&#x2014;" glyph-name="emdash" horiz-adv-x="575" d="M38 224T35 227T33 236L45 333Q46 338 49 341T58 345H563Q568 345 571 342T573 333L562 236Q561 231 557 228T548 224H43Q38 224 35 227Z" />
<glyph unicode="&#x2018;" glyph-name="quoteleft" horiz-adv-x="182" d="M46 474T44 478T45 488L136 690Q141 700 150 700H236Q248 700 244 687L180 485Q177 474 166 474H52Q46 474 44 478Z" />
<glyph unicode="&#x2019;" glyph-name="quoteright" horiz-adv-x="182" d="M248 700T242 686L151 484Q146 474 137 474H51Q39 474 43 487L108 689Q111 700 122 700H235Q248 700 242 686Z" />
<glyph unicode="&#x201a;" glyph-name="quotesinglbase" horiz-adv-x="582" d="M4 -98T1 -95T-1 -85L49 147Q52 158 62 158H161Q174 158 170 145L90 -87Q85 -98 76 -98H9Q4 -98 1 -95Z" />
<glyph unicode="&#x201c;" glyph-name="quotedblleft" horiz-adv-x="342" d="M47 474T45 478T45 488L138 690Q143 700 152 700H233Q247 700 241 687L175 485Q172 474 161 474H53Q47 474 45 478ZM210 474T208 478T209 488L300 690Q305 700 314 700H395Q409 700
403 687L339 485Q336 474 325 474H216Q210 474 208 478Z" />
<glyph unicode="&#x201d;" glyph-name="quotedblright" horiz-adv-x="342" d="M244 700T238 686L147 484Q142 474 133 474H51Q39 474 43 487L109 689Q112 700 123 700H231Q244 700 238 686ZM407 700T401 686L310 484Q305 474 296 474H213Q201 474 205 487L273
689Q276 700 287 700H394Q407 700 401 686Z" />
<glyph unicode="&#x201e;" glyph-name="quotedblbase" horiz-adv-x="338" d="M174 128T168 114L77 -88Q72 -98 63 -98H-19Q-31 -98 -27 -85L39 117Q42 128 53 128H161Q174 128 168 114ZM337 128T331 114L240 -88Q235 -98 226 -98H143Q131 -98 135 -85L203 117Q206
128 217 128H324Q337 128 331 114Z" />
<glyph unicode="&#x2022;" glyph-name="bullet" horiz-adv-x="297" d="M100 146T69 179T37 260Q37 299 57 332T110 386T180 406Q228 406 259 374T290 294Q290 255 270 221T217 167T148 146Q100 146 69 179Z" />
<glyph unicode="&#x2039;" glyph-name="guilsinglleft" horiz-adv-x="283" d="M228 119T228 115Q228 107 218 107H124Q114 107 111 116L52 273Q51 275 51 280Q51 285 54 289L152 446Q157 455 166 455H261Q267 455 268 451T267 441L168 284Q166 281 167 278L227
121Q228 119 228 115Z" />
<glyph unicode="&#x203a;" glyph-name="guilsinglright" horiz-adv-x="291" d="M43 107T43 113Q43 117 46 121L146 278Q147 281 146 284L85 441Q84 443 84 446Q84 450 87 452T95 455H189Q198 455 201 446L261 289Q262 287 262 283Q262 278 259 273L161 116Q155
107 146 107H52Q43 107 43 113Z" />
</font>
</defs>
</svg>
