<?xml version="1.0" standalone="no"?>
<!DOCTYPE svg PUBLIC "-//W3C//DTD SVG 1.1//EN" "http://www.w3.org/Graphics/SVG/1.1/DTD/svg11.dtd">
<svg xmlns="http://www.w3.org/2000/svg">
<defs >
<font id="BarlowCondensed" horiz-adv-x="396" ><font-face
    font-family="Barlow Condensed Medium"
    units-per-em="1000"
    panose-1="0 0 6 6 0 0 0 0 0 0"
    ascent="1000"
    descent="-200"
    alphabetic="0" />
<glyph unicode=" " glyph-name="space" horiz-adv-x="194" />
<glyph unicode="!" glyph-name="exclam" horiz-adv-x="254" d="M99 232T100 242L146 690Q148 700 157 700H230Q235 700 237 697T239 690L174 242Q173 232 163 232H108Q99 232 100 242ZM83 3T68 18T53 57Q53 89 73 110T124 131Q149 131 164 117T179 77Q179 46 158
25T108 3Q83 3 68 18Z" />
<glyph unicode="&quot;" glyph-name="quotedbl" horiz-adv-x="266" d="M68 482T69 492L84 686Q86 696 94 696H165Q175 696 173 686L140 492Q139 482 129 482H79Q68 482 69 492ZM206 482T207 492L222 686Q224 696 232 696H303Q312 696 310 686L277 492Q276 482
266 482H215Q206 482 207 492Z" />
<glyph unicode="#" glyph-name="numbersign" horiz-adv-x="581" d="M566 420T557 420H495Q490 420 490 416L454 278Q454 274 457 274H507Q517 274 515 264L508 201Q506 191 497 191H434Q429 191 428 187L387 29Q384 20 376 20L302 21Q298 21 296 24T295 32L335
187Q336 188 335 189T333 191H213Q208 191 207 187L166 29Q163 20 155 20L81 21Q77 21 75 24T74 32L114 187Q114 191 112 191H60Q50 191 52 201L60 264Q60 268 63 271T71 274H135Q139 274 140 278L175 416Q175 420 173 420H120Q116 420 114 423T112 430L120 494Q122
504 131 504H196Q201 504 201 508L243 666Q246 675 254 675L327 674Q331 674 333 671T335 663L294 508Q294 504 297 504H417Q422 504 422 508L464 666Q467 675 475 675L548 674Q552 674 554 671T556 663L515 508Q515 504 518 504H567Q576 504 576 494L568 430Q566
420 557 420ZM361 274T361 278L396 416Q397 417 396 418T394 420H274Q269 420 268 416L233 278Q233 274 235 274H356Q361 274 361 278Z" />
<glyph unicode="$" glyph-name="dollar" horiz-adv-x="414" d="M373 105T332 57T228 -4Q224 -5 224 -9L217 -75Q215 -85 206 -85H154Q150 -85 148 -82T146 -75L155 -9Q155 -5 152 -4Q97 6 67 45T36 143Q36 151 38 171L42 197Q42 201 45 204T53 207H124Q129 207
131 204T133 197L130 176Q129 170 129 158Q129 119 147 97T197 75Q236 75 263 106T291 186Q291 210 281 229T253 265T198 313Q157 348 134 372T95 428T79 503Q79 512 81 532Q90 604 132 649T237 705Q241 706 241 710L249 781Q251 791 260 791H311Q315 791 317 788T319
781L309 708Q309 705 312 703Q363 692 392 653T421 554Q421 545 419 523L416 498Q414 488 405 488H333Q329 488 327 491T325 498L328 525Q329 532 329 545Q329 582 311 603T260 625Q222 625 197 596T171 515Q171 483 189 458T258 391Q306 351 331 326T370 271T384
204Q384 197 382 177Q373 105 332 57Z" />
<glyph unicode="%" glyph-name="percent" horiz-adv-x="753" d="M179 413T144 450T109 543Q109 587 131 625T191 686T269 709Q322 709 357 672T392 581Q392 536 370 498T311 436T233 413Q179 413 144 450ZM147 0T145 3T146 12L586 693Q589 700 598 700H646Q651
700 653 697T652 688L212 7Q209 0 200 0H152Q147 0 145 3ZM279 467T309 498T339 574Q339 609 317 632T263 656Q222 656 192 625T162 550Q162 514 184 491T240 467Q279 467 309 498ZM478 -9T443 28T408 120Q408 164 430 202T490 264T568 287Q621 287 656 250T691
158Q691 114 669 76T610 14T531 -9Q478 -9 443 28ZM578 44T608 76T638 151Q638 186 616 209T561 233Q522 233 492 201T461 127Q461 91 482 68T538 44Q578 44 608 76Z" />
<glyph unicode="&amp;" glyph-name="ampersand" horiz-adv-x="547" d="M488 10T488 7Q488 0 479 0H400Q392 0 388 6L372 35Q370 39 368 44T361 55Q358 58 355 55Q278 -9 186 -9Q114 -9 74 27T33 131Q33 140 35 160Q43 228 79 275T173 366Q176 367 174 371Q141
430 129 461T117 518Q117 574 140 617T203 684T294 708Q357 708 395 671T434 571Q434 499 397 450T293 350Q290 349 292 345Q307 317 312 310L330 277L376 198Q378 194 382 198L438 278Q440 282 444 283T452 282L502 250Q510 245 505 236Q462 172 424 125Q422 121
423 119L486 12Q488 10 488 7ZM253 621T232 594T211 524Q211 506 218 486T246 425Q249 421 252 424Q295 457 317 488T340 559Q340 587 326 604T286 621Q253 621 232 594ZM255 74T314 125Q317 128 316 131L220 292Q218 295 215 292Q173 258 151 225T128 150Q128
115 147 95T205 74Q255 74 314 125Z" />
<glyph unicode="&apos;" glyph-name="quotesingle" horiz-adv-x="133" d="M69 486T70 496L84 688Q86 698 94 698H170Q178 698 178 688L144 496Q143 486 133 486H78Q69 486 70 496Z" />
<glyph unicode="(" glyph-name="parenleft" horiz-adv-x="246" d="M65 -100T61 -93Q38 -38 25 35T11 193Q11 258 20 328Q36 456 75 567T167 755Q173 762 180 762H251Q256 762 258 759T257 750Q212 669 176 560T125 329Q116 256 116 188Q116 35 154 -88L155 -91Q155
-100 145 -100H72Q65 -100 61 -93Z" />
<glyph unicode=")" glyph-name="parenright" horiz-adv-x="246" d="M224 762T227 755Q250 700 263 626T277 466Q277 395 269 334Q253 206 213 95T121 -93Q117 -100 109 -100H37Q32 -100 30 -97T31 -88Q76 -7 112 102T164 333Q172 398 172 473Q172 633 134 750L133
753Q133 762 143 762H217Q224 762 227 755Z" />
<glyph unicode="*" glyph-name="asterisk" horiz-adv-x="350" d="M176 395T178 405L191 512Q191 514 190 515T186 515L92 460L87 458Q83 458 79 464L65 497Q64 499 64 502Q64 507 70 511L168 567Q170 568 170 570T168 573L84 629Q77 635 83 643L105 677Q112 686
120 681L200 625Q202 624 203 625T205 628L218 736Q219 740 222 743T229 746H266Q275 746 275 736L260 628Q260 625 261 624T265 625L359 681L364 683Q370 683 372 677L386 643L388 638Q388 634 382 629L284 573Q282 572 282 570T283 567L367 511Q374 506 369 497L346
463Q339 454 332 459L251 515Q250 517 249 516T246 512L234 405Q232 395 223 395H186Q176 395 178 405Z" />
<glyph unicode="+" glyph-name="plus" horiz-adv-x="427" d="M423 353T421 343L415 289Q413 279 404 279H268Q264 279 264 275L246 135Q246 131 243 128T236 125H183Q173 125 175 135L192 275Q192 279 188 279H53Q48 279 46 282T44 289L51 343Q53 353 62 353H198Q202
353 202 357L219 497Q221 507 230 507H282Q287 507 289 504T291 497L274 357Q273 356 274 355T277 353H413Q423 353 421 343Z" />
<glyph unicode="," glyph-name="comma" horiz-adv-x="184" d="M10 -86T7 -83T5 -75L61 147Q64 156 72 156H136Q146 156 143 145L69 -77Q66 -86 57 -86H14Q10 -86 7 -83Z" />
<glyph unicode="-" glyph-name="hyphen" horiz-adv-x="310" d="M42 264T42 274L50 337Q52 347 61 347H296Q306 347 304 337L297 274Q296 270 293 267T286 264H51Q42 264 42 274Z" />
<glyph unicode="." glyph-name="period" horiz-adv-x="196" d="M53 0T38 15T23 54Q23 86 43 107T94 128Q118 128 133 113T148 72Q148 41 128 21T78 0Q53 0 38 15Z" />
<glyph unicode="/" glyph-name="slash" horiz-adv-x="352" d="M6 0T4 3T3 11L276 692Q281 700 288 700H360Q365 700 367 697T368 689L95 8Q92 0 83 0H11Q6 0 4 3Z" />
<glyph unicode="0" glyph-name="zero" horiz-adv-x="434" d="M125 -10T84 32T43 145Q43 155 45 177L87 523Q97 608 151 659T284 710Q355 710 396 668T438 554Q438 545 436 523L393 177Q383 92 329 41T196 -10Q125 -10 84 32ZM243 73T268 100T299 171L343 529Q344
536 344 548Q344 584 325 605T274 627Q238 627 213 600T181 529L137 171Q136 165 136 154Q136 117 155 95T206 73Q243 73 268 100Z" />
<glyph unicode="1" glyph-name="one" horiz-adv-x="258" d="M182 700T188 700H265Q270 700 272 697T274 690L190 10Q190 6 187 3T179 0H106Q97 0 97 10L169 595Q169 601 166 599L77 576L73 575Q66 575 66 584L69 640Q69 648 77 652L176 697Q182 700 188 700Z" />
<glyph unicode="2" glyph-name="two" horiz-adv-x="402" d="M133 83T138 83H360Q365 83 367 80T369 73L361 10Q359 0 350 0H24Q14 0 16 10L24 76Q24 82 29 89L88 164Q103 184 151 245T235 357Q315 470 315 547Q315 584 299 604T254 625Q222 625 200 599T173 530L168
490Q166 480 157 480H81Q71 480 73 490L78 533Q91 612 143 660T268 708Q334 708 372 667T410 556Q410 546 408 526Q402 477 379 427T314 318Q281 273 201 172L136 88Q133 83 138 83Z" />
<glyph unicode="3" glyph-name="three" horiz-adv-x="406" d="M373 292T373 278Q373 259 369 215Q363 166 349 124Q327 59 286 26T177 -8Q110 -8 72 29T33 132Q33 170 37 205Q39 215 48 215H121Q131 215 130 205Q128 175 128 161Q128 76 188 76Q242 76 265 141Q275
176 281 225Q285 258 285 291Q285 310 284 319Q273 378 225 378Q212 378 198 369Q188 363 184 370L152 409Q150 413 150 416Q150 419 153 423L302 612Q304 614 303 615T300 617H104Q95 617 95 627L103 690Q105 700 114 700H417Q427 700 425 690L417 624Q415 615
412 611L277 439Q274 436 278 434Q316 428 340 397T371 316Q373 292 373 278Z" />
<glyph unicode="4" glyph-name="four" horiz-adv-x="426" d="M423 273T421 263L413 196Q411 186 402 186H371Q367 186 367 182L346 10Q345 6 342 3T335 0H261Q252 0 252 10L274 182Q274 186 270 186H32Q27 186 25 189T23 196L30 252Q30 256 31 259T33 264L226
692Q229 700 238 700H318Q329 700 324 689L142 278Q141 276 142 275T145 273H281Q285 273 285 277L302 414Q304 424 313 424H387Q397 424 395 414L378 277Q378 273 382 273H413Q423 273 421 263Z" />
<glyph unicode="5" glyph-name="five" horiz-adv-x="407" d="M387 291T387 274Q387 243 383 215Q379 177 369 139Q353 68 306 30T189 -8Q121 -8 84 29T45 139L46 169Q48 179 57 179H131Q140 179 140 169L139 147Q143 75 199 75Q227 75 246 93T276 145Q286 177
290 215Q293 241 293 262Q293 281 292 289Q289 319 274 335T233 351Q177 351 155 294Q152 285 144 285H69Q60 285 60 295L109 690Q111 700 120 700H420Q424 700 426 697T428 690L420 627Q420 623 417 620T409 617H197Q193 617 193 613L166 393Q165 391 166 391T170
392Q188 412 214 423T270 435Q325 435 355 400T386 299Q387 291 387 274Z" />
<glyph unicode="6" glyph-name="six" horiz-adv-x="408" d="M389 251T384 215Q382 199 372 146Q357 72 309 32T190 -8Q124 -8 87 29T48 138Q46 169 51 208L90 534Q100 613 151 660T277 708Q339 708 377 669T415 563Q415 554 413 534L410 512Q408 502 399 502H325Q321
502 319 505T317 512L319 530Q320 536 320 549Q320 582 305 602T266 622Q234 622 211 597T183 530L170 420Q170 415 174 418Q206 447 249 447Q315 447 351 405T387 293Q389 251 384 215ZM285 179T291 221Q294 246 294 299Q288 364 235 364Q181 364 160 296Q151
267 145 221Q141 175 141 149Q144 75 199 75Q228 75 248 95T279 154Q285 179 291 221Z" />
<glyph unicode="7" glyph-name="seven" horiz-adv-x="369" d="M76 0T74 3T74 11L312 613Q313 614 312 615T309 617H155Q151 617 151 613L146 573Q144 563 135 563H78Q69 563 69 573L85 690Q86 700 96 700H412Q422 700 420 690L412 623Q412 620 411 617T409 611L171
8Q168 0 159 0H81Q76 0 74 3Z" />
<glyph unicode="8" glyph-name="eight" horiz-adv-x="416" d="M324 369T327 366Q359 347 371 309Q380 279 380 241Q380 221 377 198Q371 146 352 104Q327 51 284 22T187 -8Q133 -8 98 21T50 103Q45 130 45 154Q45 176 48 198Q56 259 78 302Q99 345 140 365Q144
368 141 371Q109 392 96 428Q86 454 86 492Q86 514 88 526Q96 586 120 625Q144 666 185 688T275 711Q324 711 358 690T409 627Q420 601 420 562Q420 539 418 526Q411 469 386 429Q365 395 328 372Q324 369 327 366ZM184 556T179 518Q177 500 177 492Q177 470 183
453Q188 430 202 418T238 406Q260 406 278 419T307 456Q322 484 326 518Q327 526 327 540Q327 566 320 583Q315 604 301 616T265 628Q222 628 198 580Q184 556 179 518ZM281 165T286 203Q288 229 288 239Q288 262 284 277Q280 303 266 317T229 331Q206 331 188
317T158 274Q146 245 140 204Q138 174 138 163Q138 121 153 98T197 75Q223 75 243 93T273 143Q281 165 286 203Z" />
<glyph unicode="9" glyph-name="nine" horiz-adv-x="402" d="M359 166Q349 87 298 40T172 -8Q109 -8 72 31T34 137Q34 146 36 166L39 188Q39 192 42 195T50 198H123Q132 198 132 188L130 170Q129 164 129 151Q129 118 144 98T182 78Q214 78 237 103T265 170L279
280Q279 285 274 282Q243 253 200 253Q135 253 98 295T62 407Q61 413 61 427Q61 443 65 485Q70 523 77 554Q92 628 140 668T259 708Q326 708 363 671T401 562Q403 531 398 492L359 166ZM297 434T303 479Q308 517 308 551Q303 625 249 625Q221 625 201 605T170 546Q161
504 159 479Q154 435 155 401Q157 369 172 353T214 336Q268 336 289 404Q297 434 303 479Z" />
<glyph unicode=":" glyph-name="colon" horiz-adv-x="227" d="M111 337T96 352T81 391Q81 423 101 444T152 465Q176 465 191 450T206 409Q206 378 186 358T136 337Q111 337 96 352ZM70 4T55 19T40 58Q40 90 60 111T111 132Q135 132 150 117T165 76Q165 45 145
25T95 4Q70 4 55 19Z" />
<glyph unicode=";" glyph-name="semicolon" horiz-adv-x="201" d="M97 335T82 352T66 394Q66 425 89 449T140 473Q162 473 178 456T195 413Q195 381 174 358T123 335Q97 335 82 352ZM16 -83T14 -80T12 -73L58 143Q61 153 70 153H134Q144 153 142 142L77 -74Q76
-83 65 -83H21Q16 -83 14 -80Z" />
<glyph unicode="&lt;" glyph-name="less" horiz-adv-x="427" d="M387 62T383 60T375 60L44 234Q38 239 39 246L47 315Q49 323 56 327L429 501L434 503Q437 503 439 501T440 494L431 421Q429 413 423 410L138 283Q131 280 137 277L391 150Q397 146 396 139L387
67Q387 62 383 60Z" />
<glyph unicode="=" glyph-name="equal" horiz-adv-x="427" d="M61 386T59 389T57 396L64 450Q64 454 67 457T75 460H426Q430 460 432 457T434 450L428 396Q427 392 424 389T417 386H65Q61 386 59 389ZM293 445T291 448T289 455L296 509Q296 513 299 516T307 519H658Q662
519 664 516T666 509L660 455Q659 451 656 448T649 445H297Q293 445 291 448Z" />
<glyph unicode="&gt;" glyph-name="greater" horiz-adv-x="427" d="M24 58T22 58Q19 58 18 60T17 67L26 139Q26 146 34 150L319 277Q326 280 320 283L66 410Q62 412 61 415T60 421L69 494Q70 499 74 501T82 501L413 327Q419 322 418 315L409 246Q409 239 401 234L28
60Q24 58 22 58Z" />
<glyph unicode="?" glyph-name="question" horiz-adv-x="382" d="M138 208T138 218L144 268Q150 313 171 342T230 404Q265 434 284 459T308 524Q309 531 309 544Q309 581 293 601T249 622Q214 622 190 595T161 522L158 496Q156 486 147 486L74 490Q65 490 65 500L68
522Q78 606 131 657T262 709Q328 709 366 669T404 560Q404 549 402 527Q397 482 382 451T348 399T300 354Q270 328 255 309T237 263L231 218Q231 214 228 211T221 208H147Q138 208 138 218ZM134 1T119 16T104 55Q104 86 124 107T175 129Q200 129 215 114T230 75Q230
44 209 23T159 1Q134 1 119 16Z" />
<glyph unicode="@" glyph-name="at" horiz-adv-x="737" d="M543 630T600 601T689 516T720 388Q720 343 708 292Q684 196 630 143T505 89Q444 89 417 130Q414 133 411 130Q395 108 373 98T327 88Q285 88 260 111T234 174Q234 189 236 198Q238 210 246 244L254 276Q258
296 271 343Q286 396 317 425T396 455Q409 455 424 449T451 431Q452 429 453 429T456 432L458 440Q459 449 468 449H514Q519 449 521 446T522 438L474 243Q470 227 470 210Q470 183 484 168T523 153Q562 153 592 191T639 293Q650 340 650 376Q650 465 597 516T451
568Q379 568 312 530T195 424T124 269Q113 225 113 181Q113 118 137 73T204 5T300 -18Q343 -18 380 -6T445 25Q449 27 449 28Q450 29 453 29Q459 29 461 24L479 -12Q480 -13 480 -16Q480 -22 474 -26Q437 -51 388 -66T282 -82Q212 -82 159 -52T76 33T46 165Q46
212 60 273Q85 376 147 457T293 584T466 630Q543 630 600 601ZM359 146T375 161T400 203Q402 206 402 209T404 215V219Q406 231 407 232L435 347Q436 348 436 351Q437 372 427 384T399 397Q377 397 360 381T336 339L329 313Q322 289 318 271L302 203Q300 191 300
187Q300 167 309 157T337 146Q359 146 375 161Z" />
<glyph unicode="A" glyph-name="A" horiz-adv-x="423" d="M297 0T297 9L290 124Q290 126 289 127T285 128H127Q125 128 124 127T122 124L87 9Q86 0 76 0H2Q-3 0 -5 3T-5 11L223 691Q225 700 234 700H321Q330 700 330 691L392 11Q392 0 382 0H307Q297 0 297 9ZM148
207T149 206T151 204H280Q282 204 284 208L261 563Q261 565 260 565T257 563L149 208Q148 207 149 206Z" />
<glyph unicode="B" glyph-name="B" horiz-adv-x="443" d="M407 101T351 51T212 0H50Q46 0 44 3T42 10L125 690Q126 694 129 697T136 700H285Q364 700 408 661T452 548Q452 538 450 514Q436 405 357 365Q353 362 355 360Q420 316 420 224Q420 215 418 193Q407 101
351 51ZM212 617T211 616T209 613L183 401Q183 399 184 398T186 397H249Q300 397 330 432T360 529Q360 571 338 594T276 617H213Q212 617 211 616ZM260 84T289 115T326 203Q328 221 328 229Q328 275 307 300T246 326H178Q175 326 173 322L145 88Q144 87 145 86T148
84H215Q260 84 289 115Z" />
<glyph unicode="C" glyph-name="C" horiz-adv-x="439" d="M129 -8T88 33T46 144Q46 153 48 173L92 528Q102 610 156 659T289 708Q360 708 402 668T444 558Q444 548 442 528L440 512Q438 502 429 502L355 498Q345 498 347 508L350 534Q351 539 351 550Q351 584
332 604T279 625Q242 625 217 600T186 534L141 166Q140 160 140 150Q140 116 159 96T211 75Q248 75 274 100T305 166L308 192Q310 202 319 202L392 198Q402 198 400 188L399 173Q389 91 335 42T201 -8Q129 -8 88 33Z" />
<glyph unicode="D" glyph-name="D" horiz-adv-x="455" d="M46 0T44 3T42 10L125 690Q126 694 129 697T136 700H295Q368 700 409 658T450 543Q450 533 448 511L408 189Q398 102 344 51T210 0H50Q46 0 44 3ZM144 86T145 85T148 83L219 84Q256 84 282 113T315 194L353
506Q354 514 354 529Q354 571 336 594T284 617H213Q212 617 211 616T209 613L145 87Q144 86 145 85Z" />
<glyph unicode="E" glyph-name="E" horiz-adv-x="419" d="M441 617T432 617H213Q212 617 211 616T209 613L182 396Q182 392 186 392H320Q330 392 328 382L320 319Q320 315 317 312T310 309H176Q173 309 171 305L145 87Q144 86 145 85T148 83H366Q375 83 375 73L367
10Q365 0 356 0H50Q46 0 44 3T42 10L125 690Q126 694 129 697T136 700H442Q452 700 450 690L443 627Q441 617 432 617Z" />
<glyph unicode="F" glyph-name="F" horiz-adv-x="398" d="M440 617T431 617H213Q212 617 211 616T209 613L182 396Q182 392 186 392H319Q329 392 327 382L319 319Q319 315 316 312T309 309H176Q173 309 171 305L135 10Q133 0 124 0H50Q46 0 44 3T42 10L125 690Q126
694 129 697T136 700H441Q451 700 449 690L442 627Q440 617 431 617Z" />
<glyph unicode="G" glyph-name="G" horiz-adv-x="443" d="M129 -8T88 31T46 139Q46 149 48 167L93 533Q103 612 156 660T289 708Q360 708 402 668T445 559Q445 550 443 532L437 490Q437 486 434 483T427 480H353Q344 480 344 490L350 534Q351 539 351 550Q351
584 332 604T279 625Q242 625 216 600T185 534L140 166Q139 160 139 150Q139 115 158 95T211 75Q248 75 274 100T305 166L318 276Q318 280 315 280H241Q231 280 233 290L240 352Q242 362 251 362H412Q421 362 421 352L398 167Q388 88 334 40T201 -8Q129 -8 88 31Z"
/>
<glyph unicode="H" glyph-name="H" horiz-adv-x="461" d="M375 700T384 700H457Q462 700 464 697T466 690L382 10Q382 6 379 3T372 0H298Q289 0 289 10L326 305Q326 309 322 309H176Q173 309 171 305L135 10Q133 0 124 0H50Q46 0 44 3T42 10L125 690Q126 694 129
697T136 700H210Q219 700 219 690L182 396Q182 392 186 392H332Q335 392 337 396L373 690Q375 700 384 700Z" />
<glyph unicode="I" glyph-name="I" horiz-adv-x="213" d="M46 0T44 3T42 10L125 690Q126 694 129 697T136 700H210Q219 700 219 690L135 10Q133 0 124 0H50Q46 0 44 3Z" />
<glyph unicode="J" glyph-name="J" horiz-adv-x="422" d="M100 -8T59 32T18 140Q18 148 20 168L29 247Q31 257 40 257H114Q124 257 122 247L113 166Q112 160 112 150Q112 116 130 96T180 75Q215 75 240 100T270 166L334 690Q336 700 345 700H419Q423 700 425 697T427
690L363 168Q353 89 300 41T170 -8Q100 -8 59 32Z" />
<glyph unicode="K" glyph-name="K" horiz-adv-x="452" d="M46 0T44 3T42 10L125 690Q126 694 129 697T136 700H210Q219 700 219 690L182 390Q181 387 183 387T186 389L389 693Q394 700 401 700H481Q486 700 488 697T486 688L303 410Q300 407 302 404L416 12V9Q416
5 413 3T406 0H326Q317 0 316 8L228 320Q228 322 227 322T224 321L164 240Q163 239 163 235L135 10Q133 0 124 0H50Q46 0 44 3Z" />
<glyph unicode="L" glyph-name="L" horiz-adv-x="394" d="M46 0T44 3T42 10L125 690Q126 694 129 697T136 700H210Q219 700 219 690L145 87Q144 86 145 85T148 83H365Q374 83 374 73L366 10Q364 0 355 0H50Q46 0 44 3Z" />
<glyph unicode="M" glyph-name="M" horiz-adv-x="515" d="M432 700T440 700H514Q524 700 522 690L439 10Q437 0 428 0H354Q344 0 346 10L406 506Q407 509 406 509T402 507L287 328Q283 321 277 321Q272 321 269 328L199 506Q197 508 196 508T194 505L133 10Q131
0 122 0H48Q44 0 42 3T40 10L124 690Q124 694 127 697T134 700H208Q216 700 219 693L298 505Q298 504 300 504T304 505L427 693Q432 700 440 700Z" />
<glyph unicode="N" glyph-name="N" horiz-adv-x="486" d="M401 700T410 700H483Q487 700 489 697T491 690L408 10Q406 0 397 0H313Q305 0 304 8L195 465Q194 467 192 467T190 464L135 10Q133 0 124 0H50Q46 0 44 3T42 10L125 690Q126 694 129 697T136 700H219Q226
700 229 692L338 235Q339 232 341 232T343 236L399 690Q401 700 410 700Z" />
<glyph unicode="O" glyph-name="O" horiz-adv-x="448" d="M131 -8T89 33T47 145Q47 155 49 175L91 524Q101 607 156 657T291 708Q364 708 406 666T449 552Q449 544 447 524L404 175Q394 92 339 42T203 -8Q131 -8 89 33ZM251 75T278 101T310 171L354 529Q355 535
355 545Q355 581 335 603T280 625Q243 625 217 599T185 529L141 171Q140 165 140 154Q140 118 159 97T213 75Q251 75 278 101Z" />
<glyph unicode="P" glyph-name="P" horiz-adv-x="437" d="M375 701T414 657T453 537Q453 513 451 500Q441 412 390 358T265 304H174Q170 304 170 300L134 10Q132 0 123 0H49Q45 0 43 3T41 10L125 691Q125 695 128 698T136 701H309Q375 701 414 657ZM295 381T323
412T358 498Q360 516 360 523Q360 567 340 592T284 618H213Q210 618 208 614L180 385Q180 381 184 381H255Q295 381 323 412Z" />
<glyph unicode="Q" glyph-name="Q" horiz-adv-x="436" d="M355 708T395 666T436 552Q436 542 434 520L393 180Q384 110 346 62T248 -1Q245 -3 245 -6L233 -99Q233 -103 230 -106T222 -109H148Q143 -109 141 -106T139 -99L151 -6Q151 -3 148 -1Q100 13 74 53T47
150Q47 160 49 180L91 520Q102 604 155 656T286 708Q355 708 395 666ZM342 530Q343 536 343 547Q343 582 325 603T276 625Q241 625 216 599T185 530L141 170Q140 164 140 153Q140 118 158 97T208 75Q243 75 268 101T298 170L342 530Z" />
<glyph unicode="R" glyph-name="R" horiz-adv-x="440" d="M307 0T304 2T300 8L247 306Q246 309 244 309H176Q173 309 171 305L135 10Q133 0 124 0H50Q46 0 44 3T42 10L125 690Q126 694 129 697T136 700H310Q376 700 415 656T454 537Q454 514 452 501Q445 438 414
391T337 324Q333 321 334 318L395 11V9Q395 0 386 0H310Q307 0 304 2ZM212 617T211 616T209 613L182 389Q181 388 182 387T185 385H257Q301 385 331 424T361 524Q361 567 341 592T285 617H213Q212 617 211 616Z" />
<glyph unicode="S" glyph-name="S" horiz-adv-x="414" d="M118 -8T77 33T36 143Q36 151 38 171L42 197Q42 201 45 204T53 207H124Q129 207 131 204T133 197L130 176Q129 170 129 158Q129 119 147 97T197 75Q236 75 263 106T291 186Q291 210 281 229T253 265T198
313Q157 348 134 372T95 428T79 503Q79 565 104 611T172 683T270 708Q340 708 380 667T421 554Q421 545 419 523L416 498Q414 488 405 488H333Q329 488 327 491T325 498L328 525Q329 532 329 545Q329 582 311 603T260 625Q222 625 197 596T171 515Q171 483 189
458T258 391Q306 351 331 326T370 271T384 204Q384 197 382 177Q372 93 318 43T187 -8Q118 -8 77 33Z" />
<glyph unicode="T" glyph-name="T" horiz-adv-x="426" d="M458 700T460 697T462 690L454 627Q454 623 451 620T443 617H316Q312 617 312 613L238 10Q236 0 227 0H153Q143 0 145 10L219 613Q219 617 215 617H95Q85 617 87 627L94 690Q95 694 98 697T105 700H454Q458
700 460 697Z" />
<glyph unicode="U" glyph-name="U" horiz-adv-x="463" d="M139 -8T98 37T57 157Q57 168 59 190L121 690Q121 694 124 697T132 700H205Q214 700 214 690L151 180Q150 173 150 160Q150 121 169 98T221 75Q258 75 284 104T317 180L380 690Q380 694 383 697T391 700H464Q473
700 473 690L411 190Q401 101 346 47T210 -8Q139 -8 98 37Z" />
<glyph unicode="V" glyph-name="V" horiz-adv-x="443" d="M153 0T151 9L95 689Q95 700 105 700H186Q195 700 195 691L224 172Q224 170 225 170T228 172L382 691Q384 700 393 700H471Q481 700 478 689L255 9Q254 0 243 0H161Q153 0 151 9Z" />
<glyph unicode="W" glyph-name="W" horiz-adv-x="627" d="M136 0T136 9L90 689Q90 694 93 697T100 700H177Q186 700 187 691L208 222Q208 220 209 220T212 222L339 691Q342 700 350 700H415Q423 700 423 691L440 222Q441 220 442 220T444 222L574 691Q576 700
585 700H660Q670 700 668 689L462 9Q459 0 450 0H381Q373 0 373 9L357 482Q356 484 355 484T353 482L225 9Q222 0 214 0H146Q136 0 136 9Z" />
<glyph unicode="X" glyph-name="X" horiz-adv-x="435" d="M16 0T14 3T15 12L191 347Q192 349 192 353L98 688L97 691Q97 700 107 700H183Q190 700 193 692L251 451Q252 448 254 448T257 451L374 692Q378 700 386 700H461Q466 700 468 697T468 688L292 352Q289
349 291 346L385 12V9Q385 5 382 3T375 0H301Q292 0 291 8L232 248Q232 251 230 251T226 248L109 8Q105 0 97 0H21Q16 0 14 3Z" />
<glyph unicode="Y" glyph-name="Y" horiz-adv-x="429" d="M148 1T150 11L185 297Q185 298 185 299T185 302L97 689V691Q97 700 106 700H184Q192 700 195 692L243 416Q244 414 246 414T249 416L365 692Q370 700 378 700H456Q461 700 462 697T462 689L280 302Q278
300 278 297L243 11Q241 1 232 1H158Q148 1 150 11Z" />
<glyph unicode="Z" glyph-name="Z" horiz-adv-x="389" d="M14 0T12 3T10 10L18 77Q20 83 23 89L312 612Q313 614 312 615T310 617H94Q84 617 86 627L93 690Q94 694 97 697T104 700H414Q424 700 422 690L414 623Q414 621 410 611L119 88Q118 86 119 85T122 83H338Q347
83 347 73L339 10Q337 0 328 0H18Q14 0 12 3Z" />
<glyph unicode="[" glyph-name="bracketleft" horiz-adv-x="308" d="M-4 -130T-6 -127T-8 -120L102 774Q104 784 113 784H282Q286 784 288 781T290 774L282 710Q280 700 271 700H190Q187 700 185 696L95 -43Q94 -44 95 -45T98 -47H180Q185 -47 187 -50T189 -57L181
-120Q179 -130 170 -130H1Q-4 -130 -6 -127Z" />
<glyph unicode="\" glyph-name="backslash" horiz-adv-x="352" d="M313 9Q313 5 310 3T303 0H230Q223 0 220 8L115 689V691Q115 700 125 700H197Q205 700 207 692L313 11V9Z" />
<glyph unicode="]" glyph-name="bracketright" horiz-adv-x="308" d="M246 -130T237 -130H67Q63 -130 61 -127T59 -120L67 -57Q67 -53 70 -50T78 -47H160Q164 -47 164 -43L255 696Q255 700 252 700H170Q166 700 164 703T162 710L170 774Q170 778 173 781T181 784H349Q354
784 356 781T358 774L248 -120Q246 -130 237 -130Z" />
<glyph unicode="^" glyph-name="asciicircum" horiz-adv-x="393" d="M46 304T51 315L219 692Q220 696 224 698T231 700H294Q297 700 300 698T304 692L381 315V313Q381 304 372 304H312Q304 304 301 312L253 590Q252 592 250 592T247 590L129 312Q126 304 117 304H58Q46
304 51 315Z" />
<glyph unicode="_" glyph-name="underscore" horiz-adv-x="380" d="M0 0T0 10L7 65Q9 75 18 75H342Q352 75 350 65L344 10Q342 0 333 0H9Q0 0 0 10Z" />
<glyph unicode="`" glyph-name="grave" horiz-adv-x="189" d="M217 581Q217 573 208 573H160Q151 573 149 579L91 688L90 692Q90 700 99 700H158Q165 700 169 693L216 585L217 581Z" />
<glyph unicode="a" glyph-name="a" horiz-adv-x="418" d="M316 503T319 506T326 509H400Q409 509 409 499L348 10Q348 6 345 3T338 0H264Q255 0 255 10L260 45Q260 48 259 48T255 47Q236 19 209 6T152 -8Q97 -8 68 25T39 118Q39 127 41 151L66 358Q75 432 114
474T217 517Q246 517 269 504T306 462Q308 460 309 460T311 464L315 499Q316 503 319 506ZM225 75T247 98T273 157L297 352Q298 357 298 366Q298 397 282 415T239 434Q208 434 186 411T159 352L135 157Q134 152 134 143Q134 113 150 94T194 75Q225 75 247 98Z"
/>
<glyph unicode="b" glyph-name="b" horiz-adv-x="418" d="M338 517T370 483T402 388Q402 378 400 358L374 150Q366 79 324 36T217 -8Q194 -8 172 1T132 28Q129 32 127 26L125 10Q125 6 122 3T114 0H41Q32 0 32 10L116 690Q116 694 119 697T127 700H200Q205 700
207 697T209 690L183 482Q183 480 185 480T189 482Q229 517 282 517Q338 517 370 483ZM308 357T308 366Q308 396 291 415T246 434Q216 434 194 411T167 352L143 157L142 144Q142 113 158 94T202 75Q233 75 255 98T283 157L307 352Q308 357 308 366Z" />
<glyph unicode="c" glyph-name="c" horiz-adv-x="401" d="M116 -8T78 27T39 125Q39 133 41 151L66 358Q75 429 125 473T249 517Q317 517 356 481T396 388Q396 375 395 369L393 356Q391 346 382 346L308 343Q299 343 299 353L301 363Q304 392 287 413T239 434Q208
434 186 411T159 352L135 157Q134 152 134 143Q134 112 150 94T194 75Q225 75 247 96T274 146L275 156Q277 166 286 166L360 165Q370 165 368 155L366 140Q358 75 309 34T184 -8Q116 -8 78 27Z" />
<glyph unicode="d" glyph-name="d" horiz-adv-x="418" d="M341 700T350 700H424Q428 700 430 697T432 690L348 10Q348 6 345 3T338 0H264Q255 0 255 10L257 26Q258 28 257 29T253 28Q232 10 208 1T160 -8Q103 -8 71 27T39 121Q39 130 41 150L66 358Q75 432 118
474T224 517Q247 517 269 508T308 481Q310 479 311 480T313 483L339 690Q341 700 350 700ZM222 75T243 93T272 142L299 367Q299 397 283 415T239 434Q208 434 186 411T158 352L134 157Q133 152 133 143Q133 113 149 94T194 75Q222 75 243 93Z" />
<glyph unicode="e" glyph-name="e" horiz-adv-x="405" d="M374 215T365 215H146Q143 215 141 211L135 157Q134 152 134 143Q134 113 150 94T194 75Q221 75 241 92T271 136Q275 144 282 144L354 140Q359 140 360 137T361 130Q347 65 301 29T184 -8Q116 -8 78 27T39
125Q39 132 41 150L66 358Q75 429 125 473T249 517Q317 517 355 481T394 384Q394 376 392 358L376 225Q374 215 365 215ZM208 434T186 411T159 352L152 299Q152 295 156 295H288Q290 295 291 296T293 299L299 352Q300 357 300 366Q300 397 284 415T239 434Q208
434 186 411Z" />
<glyph unicode="f" glyph-name="f" horiz-adv-x="276" d="M209 513Q209 509 213 509H281Q291 509 289 499L283 449Q281 439 272 439H204Q200 439 200 435L148 10Q146 0 137 0H64Q54 0 56 10L108 435Q108 439 104 439H68Q64 439 62 442T60 449L66 499Q68 509 77
509H113Q117 509 117 513L121 539Q131 628 171 666T293 705H306Q316 705 314 695L305 634Q304 624 294 624H284Q253 624 236 603T212 536L209 513Z" />
<glyph unicode="g" glyph-name="g" horiz-adv-x="411" d="M316 503T319 506T326 509H400Q409 509 409 499L349 15Q336 -90 283 -147T115 -205L89 -204Q79 -202 81 -193L89 -129Q91 -119 100 -119Q180 -122 214 -87T257 24L260 45Q260 47 259 47T255 46Q235 22
209 11T155 0Q99 0 70 33T40 126Q40 136 42 158L66 358Q75 432 115 474T219 517Q281 517 307 471Q309 469 310 470T312 473L315 499Q316 503 319 506ZM226 83T247 105T274 164L297 352Q298 357 298 367Q298 397 282 415T239 434Q208 434 186 411T159 352L136 164Q135
159 135 150Q135 120 151 102T195 83Q226 83 247 105Z" />
<glyph unicode="h" glyph-name="h" horiz-adv-x="419" d="M344 516T372 484T400 391Q400 373 397 353L355 10Q355 6 352 3T344 0H271Q266 0 264 3T262 10L303 345Q304 352 304 366Q304 398 290 415T248 433Q216 433 195 411T168 347Q167 341 166 341L125 10Q125
6 122 3T114 0H41Q32 0 32 10L116 690Q116 694 119 697T127 700H200Q205 700 207 697T209 690L182 472Q182 470 184 470T188 472Q228 516 291 516Q344 516 372 484Z" />
<glyph unicode="i" glyph-name="i" horiz-adv-x="205" d="M130 589T115 604T100 643Q100 675 120 696T170 717Q195 717 210 702T225 662Q225 631 205 610T155 589Q130 589 115 604ZM42 0T40 3T38 10L98 499Q100 509 109 509H183Q193 509 191 499L131 10Q129 0
120 0H47Q42 0 40 3Z" />
<glyph unicode="j" glyph-name="j" horiz-adv-x="200" d="M125 589T110 604T95 643Q95 675 115 696T166 717Q191 717 206 702T221 661Q221 631 201 610T150 589Q125 589 110 604ZM-82 -207T-81 -197L-74 -134Q-72 -124 -63 -124Q17 -123 28 -28L92 499Q94 509
103 509H177Q187 509 185 499L121 -28Q113 -90 96 -127T40 -186T-70 -207Q-82 -207 -81 -197Z" />
<glyph unicode="k" glyph-name="k" horiz-adv-x="408" d="M32 0T32 10L116 690Q116 694 119 697T127 700H200Q205 700 207 697T209 690L162 311Q162 308 164 307T167 309L316 503Q321 509 328 509H404Q410 509 411 506T409 497L291 345Q288 342 289 339L365 11V9Q365
0 356 0H279Q276 0 273 2T269 8L222 259Q221 265 216 260L147 173Q145 171 145 168L125 10Q125 6 122 3T114 0H41Q32 0 32 10Z" />
<glyph unicode="l" glyph-name="l" horiz-adv-x="186" d="M28 0T28 10L112 690Q114 700 123 700H197Q201 700 203 697T205 690L122 10Q121 6 118 3T111 0H37Q28 0 28 10Z" />
<glyph unicode="m" glyph-name="m" horiz-adv-x="638" d="M562 516T589 482T617 387Q617 368 614 347L573 10Q572 6 569 3T562 0H489Q480 0 480 10L521 340Q522 347 522 361Q522 395 508 414T468 433Q437 433 416 409T389 341L348 10Q348 6 345 3T338 0H265Q256
0 256 10L297 340Q298 347 298 361Q298 395 284 414T244 433Q213 433 192 409T165 341L124 10Q124 6 121 3T113 0H41Q32 0 32 10L92 499Q94 509 103 509H176Q186 509 184 499L181 474Q181 472 182 471T186 472Q209 495 235 505T286 516Q361 516 384 449Q385 447
387 447T390 452Q413 486 445 501T510 516Q562 516 589 482Z" />
<glyph unicode="n" glyph-name="n" horiz-adv-x="419" d="M344 516T372 484T400 391Q400 373 397 353L355 10Q355 6 352 3T344 0H271Q266 0 264 3T262 10L303 345Q304 352 304 366Q304 398 290 415T248 433Q216 433 195 411T168 347Q167 341 166 341L125 10Q125
6 122 3T114 0H41Q32 0 32 10L92 499Q94 509 103 509H177Q187 509 185 499L182 472Q182 470 184 470T188 472Q228 516 291 516Q344 516 372 484Z" />
<glyph unicode="o" glyph-name="o" horiz-adv-x="412" d="M116 -8T78 28T39 126Q39 133 41 151L66 358Q75 429 125 473T250 517Q319 517 358 481T397 383Q397 376 395 358L370 151Q361 79 311 36T185 -8Q116 -8 78 28ZM227 76T250 99T277 158L301 352Q302 357
302 365Q302 396 285 415T240 434Q209 434 187 411T159 352L135 158Q134 153 134 144Q134 113 151 95T196 76Q227 76 250 99Z" />
<glyph unicode="p" glyph-name="p" horiz-adv-x="422" d="M343 517T375 482T407 387Q407 379 405 359L379 151Q370 77 328 35T222 -8Q199 -8 177 1T137 29Q134 32 132 27L107 -181Q105 -191 96 -191H22Q12 -191 14 -181L97 499Q99 509 108 509H182Q192 509 190
499L188 483Q188 481 190 481T194 482Q234 517 287 517Q343 517 375 482ZM313 357T313 366Q313 396 296 415T251 434Q220 434 199 411T172 352L148 157Q147 152 147 143Q147 112 163 94T207 75Q238 75 260 98T288 157L312 352Q313 357 313 366Z" />
<glyph unicode="q" glyph-name="q" horiz-adv-x="422" d="M316 503T319 506T326 509H400Q409 509 409 499L325 -181Q323 -191 314 -191H240Q236 -191 234 -188T232 -181L257 26Q258 28 257 29T253 28Q232 10 208 1T160 -8Q104 -8 72 26T39 121Q39 131 41 151L66
359Q75 430 117 473T224 517Q247 517 269 508T308 481Q310 479 311 480T313 483L315 499Q316 503 319 506ZM222 75T243 93T272 142L299 367Q299 397 283 415T239 434Q208 434 186 411T158 352L134 157Q133 152 133 143Q133 113 149 94T194 75Q222 75 243 93Z" />
<glyph unicode="r" glyph-name="r" horiz-adv-x="295" d="M305 514T322 503Q328 498 325 490L301 414Q298 405 289 408Q277 413 262 413Q256 413 244 411Q213 408 190 377T161 302L125 10Q125 6 122 3T114 0H41Q32 0 32 10L92 499Q94 509 103 509H177Q187 509
185 499L178 441Q178 438 179 438T182 440Q220 514 281 514Q305 514 322 503Z" />
<glyph unicode="s" glyph-name="s" horiz-adv-x="375" d="M105 -6T67 25T29 110Q29 123 30 129L31 138Q32 142 35 145T42 148H111Q116 148 118 145T120 138L119 131Q115 104 133 86T182 67Q214 67 234 87T255 138Q255 166 235 180T171 215Q139 230 118 244T80
284T63 348Q63 362 64 370Q72 438 118 476T234 514Q299 514 335 482T371 392Q371 377 370 369V366Q368 356 359 356H292Q282 356 284 366V373L285 382Q285 406 269 422T226 438Q197 438 177 419T153 373Q151 352 161 338T186 316T236 291Q270 274 292 260T332 219T349
156Q349 83 300 39T171 -6Q105 -6 67 25Z" />
<glyph unicode="t" glyph-name="t" horiz-adv-x="267" d="M277 439T268 439H200Q196 439 196 435L161 154Q160 147 160 134Q160 105 172 94T209 84H218Q228 84 226 74L219 10Q218 6 215 3T208 0H178Q122 0 94 19T65 92Q65 100 67 120L106 435Q106 439 102 439H65Q60
439 58 442T56 449L62 499Q64 509 73 509H111Q115 509 115 513L129 626Q131 636 140 636H211Q221 636 219 626L206 513Q205 512 206 511T209 509H277Q287 509 285 499L279 449Q277 439 268 439Z" />
<glyph unicode="u" glyph-name="u" horiz-adv-x="419" d="M318 509T327 509H401Q411 509 409 499L349 10Q349 6 346 3T339 0H265Q256 0 256 10L260 39Q260 42 259 42T256 40Q221 -7 156 -7Q104 -7 73 22T42 112Q42 121 44 141L88 499Q89 503 92 506T99 509H173Q182
509 182 499L140 162Q139 154 139 141Q139 76 196 76Q228 76 249 100T276 168L316 499Q318 509 327 509Z" />
<glyph unicode="v" glyph-name="v" horiz-adv-x="387" d="M124 0T122 9L63 498V500Q63 509 72 509H155Q164 509 164 500L192 157Q192 154 193 154T196 157L307 500Q310 509 319 509L401 508Q406 508 407 505T407 497L229 9Q226 0 217 0H132Q124 0 122 9Z" />
<glyph unicode="w" glyph-name="w" horiz-adv-x="558" d="M106 0T106 9L62 498Q62 509 72 509H143Q152 509 153 500L170 155Q171 153 172 153T174 155L278 500Q280 509 289 509H353Q363 509 363 500L384 155Q384 153 385 153T388 155L491 500Q494 509 503 509L573
508Q577 508 579 505T580 497L415 9Q414 0 404 0H331Q321 0 321 9L300 337Q300 339 299 339T296 337L197 9Q194 0 185 0H115Q106 0 106 9Z" />
<glyph unicode="x" glyph-name="x" horiz-adv-x="386" d="M2 0T1 3T1 12L148 251Q150 255 149 257L61 497L60 501Q60 509 69 509H151Q159 509 162 502L213 346Q214 344 216 344T219 346L310 502Q314 509 322 509H403Q408 509 409 506T408 497L262 257Q261 254
262 251L349 12L350 9Q350 0 340 0H260Q252 0 249 7L197 165Q196 167 194 167T191 165L100 7Q96 0 88 0H7Q2 0 1 3Z" />
<glyph unicode="y" glyph-name="y" horiz-adv-x="376" d="M-8 -199T-8 -189L0 -130Q0 -126 3 -123T10 -120Q41 -119 60 -110T93 -76T122 -3L121 2L58 498V500Q58 504 61 506T68 509H148Q157 509 157 500L184 139Q184 136 185 136T188 139L302 500Q305 509 314
509L394 508Q399 508 401 505T401 497L202 -35Q176 -104 153 -137T96 -185T2 -199H-3Q-8 -199 -8 -189Z" />
<glyph unicode="z" glyph-name="z" horiz-adv-x="354" d="M13 0T11 3T9 10L18 80Q18 85 22 93L243 416Q244 418 244 419T241 421H73Q63 421 65 431L73 499Q75 509 84 509H358Q363 509 365 506T367 499L358 428Q358 423 354 415L128 92Q126 90 127 89T130 87H309Q314
87 316 84T318 77L310 10Q308 0 299 0H17Q13 0 11 3Z" />
<glyph unicode="{" glyph-name="braceleft" horiz-adv-x="289" d="M64 -130T64 -38Q64 -31 66 -13L92 200Q94 220 94 227Q94 283 51 290Q42 291 44 301L51 358Q51 367 61 369Q88 374 103 395T124 458L150 666Q164 784 269 784H331Q341 784 339 774L332 710Q330
700 321 700H297Q273 700 258 682T238 630L216 448Q210 402 195 374T152 332Q147 330 152 327Q189 304 189 242Q189 233 187 211L164 24Q163 18 163 6Q163 -20 174 -33T206 -47H229Q239 -47 237 -57L230 -120Q228 -130 219 -130H157Q64 -130 64 -38Z" />
<glyph unicode="|" glyph-name="bar" horiz-adv-x="154" d="M6 -80T4 -77T2 -70L103 750Q103 754 106 757T114 760H187Q192 760 194 757T196 750L95 -70Q93 -80 84 -80H11Q6 -80 4 -77Z" />
<glyph unicode="}" glyph-name="braceright" horiz-adv-x="289" d="M1 -130Q-4 -130 -6 -127T-8 -120L0 -57Q2 -47 11 -47H33Q58 -47 73 -29T93 24L116 211Q122 257 137 285T180 327Q185 330 180 332Q143 354 143 415Q143 424 145 448L168 630Q169 636 169 646Q169
700 125 700H102Q98 700 96 703T94 710L102 774Q104 784 113 784H174Q220 784 243 761T267 693Q267 686 265 666L240 458Q238 438 238 432Q238 375 281 369Q290 368 288 358L281 301Q281 292 271 290Q244 286 229 264T208 200L182 -13Q167 -130 62 -130H1Z" />
<glyph unicode="~" glyph-name="asciitilde" horiz-adv-x="457" d="M295 221T278 229T237 253Q232 256 219 264T195 276T171 280Q129 280 99 241Q94 231 85 237L49 262Q41 267 46 276Q66 315 100 339T174 364Q197 364 213 358T248 338Q272 321 288 313T326 305Q344
305 358 315T388 344Q394 352 402 347L441 320Q448 315 443 309L441 305Q384 221 320 221Q295 221 278 229Z" />
<glyph unicode="&#xa0;" glyph-name="uni00A0" horiz-adv-x="194" />
<glyph unicode="&#xa1;" glyph-name="exclamdown" horiz-adv-x="254" d="M219 708T234 693T249 652Q249 621 229 601T179 580Q154 580 139 594T124 634Q124 665 144 686T195 708Q219 708 234 693ZM128 478T138 478H194Q203 478 202 468L157 21Q155 11 146 11H72Q62
11 64 21L127 468Q128 478 138 478Z" />
<glyph unicode="&#xa2;" glyph-name="cent" horiz-adv-x="401" d="M402 436T393 436L319 433Q310 433 310 443L312 453Q315 482 298 503T250 524Q219 524 197 501T170 442L146 247Q145 242 145 233Q145 202 161 184T206 165Q236 165 259 186T285 236L286 246Q288
256 297 256L371 255Q381 255 379 245L377 230Q370 174 333 136T238 86Q233 84 233 81L226 11Q226 7 223 4T215 1H155Q151 1 149 4T147 11L157 81Q158 85 154 86Q105 96 78 130T50 216Q50 223 52 241L77 448Q84 509 121 550T218 603Q222 604 222 608L229 678Q229
682 232 685T240 688H300Q310 688 308 678L298 608Q297 604 301 603Q351 593 379 559T407 477Q407 465 406 459L404 446Q402 436 393 436Z" />
<glyph unicode="&#xa3;" glyph-name="sterling" horiz-adv-x="492" d="M180 83T185 83H446Q456 83 454 73L446 10Q446 6 443 3T436 0H79Q74 0 72 3T70 10L78 75Q80 83 85 88Q125 120 134 199L146 297Q146 301 143 301H87Q83 301 81 304T79 311L86 369Q88 379 97
379H152Q155 379 157 383L171 504Q184 600 236 654T367 708Q428 708 463 671T505 561V559Q505 552 496 550L425 540H423Q415 540 415 549Q410 588 396 606T354 625Q317 625 294 595T263 508L248 383Q248 379 251 379H388Q398 379 396 369L389 311Q389 307 386 304T378
301H242Q239 301 237 297L225 201Q216 126 183 88Q180 83 185 83Z" />
<glyph unicode="&#xa4;" glyph-name="currency" horiz-adv-x="515" d="M474 254T427 192Q425 188 427 186L483 120Q485 118 485 115Q485 110 481 106L430 65Q427 62 424 62Q420 62 416 66L363 128Q360 131 357 129Q307 97 247 97Q190 97 147 126Q146 127 141 125L76
66Q69 59 62 65L22 106Q16 114 22 120L90 181Q93 184 92 187Q70 229 70 277Q70 351 116 412Q118 415 115 418L60 483Q58 487 58 488Q58 492 63 497L115 539Q118 542 122 542T128 538L180 477Q182 475 186 476Q239 508 297 508Q358 508 403 473Q406 471 409 474L480
538Q489 546 494 539L535 497Q542 490 535 483L458 414Q456 412 456 408Q474 370 474 325Q474 254 427 192ZM151 240T181 210T257 179Q307 179 346 214T392 302L393 315Q393 362 363 393T287 425Q252 425 221 406T170 355T151 286Q151 240 181 210Z" />
<glyph unicode="&#xa5;" glyph-name="yen" horiz-adv-x="510" d="M506 700T501 689L337 344Q336 342 337 341T339 339H451Q461 339 459 329L455 293Q453 283 444 283H318Q314 283 314 279L306 221Q306 217 310 217H436Q446 217 444 207L440 171Q438 161 429 161H303Q299
161 299 157L281 11Q279 1 270 1H196Q186 1 188 11L206 157Q206 161 202 161H79Q70 161 70 171L75 207Q77 217 86 217H209Q213 217 213 221L220 279Q221 280 220 281T217 283H94Q85 283 85 293L90 329Q92 339 101 339H209Q211 339 212 340T213 344L135 689V691Q135
700 144 700H222Q230 700 232 692L282 416Q283 414 285 414T288 416L404 692Q409 700 417 700H494Q506 700 501 689Z" />
<glyph unicode="&#xa6;" glyph-name="brokenbar" horiz-adv-x="154" d="M63 385T61 388T59 395L103 750Q103 754 106 757T114 760H187Q192 760 194 757T196 750L152 395Q152 391 149 388T141 385H68Q63 385 61 388ZM6 -80T4 -77T2 -70L45 279Q47 289 56 289H130Q134
289 136 286T138 279L95 -70Q93 -80 84 -80H11Q6 -80 4 -77Z" />
<glyph unicode="&#xa7;" glyph-name="section" horiz-adv-x="393" d="M89 -205T52 -168T14 -71Q14 -63 16 -45L18 -29Q20 -19 29 -19H102Q107 -19 109 -22T111 -29L110 -39L109 -53Q109 -84 123 -103T163 -122Q193 -122 215 -95T237 -29Q237 -4 224 15T194 45T145
73Q107 93 85 113T53 167Q46 189 46 216Q46 254 55 282T84 339Q112 378 147 393Q152 395 148 398Q84 445 84 523Q84 575 107 617T171 683T263 708Q327 708 364 670T401 567Q401 552 400 544L398 531Q396 521 387 521H312Q302 521 304 531L305 540Q306 546 306 556Q306
587 292 606T252 625Q221 625 200 596T178 526Q178 493 197 471T259 429Q300 407 321 392T356 351Q373 320 373 283Q373 219 341 167Q314 122 270 104Q264 103 268 99Q331 55 331 -19Q331 -72 308 -114T243 -181T152 -205Q89 -205 52 -168ZM238 157T260 195Q268
210 273 229T279 266Q279 291 268 313Q251 342 219 342Q182 342 159 303Q145 279 142 249Q141 243 141 230Q141 208 146 194Q158 157 198 157Q238 157 260 195Z" />
<glyph unicode="&#xa8;" glyph-name="dieresis" horiz-adv-x="319" d="M266 589T251 604T236 643Q236 675 256 696T307 717Q331 717 346 702T361 661Q361 630 341 610T291 589Q266 589 251 604ZM109 589T94 604T79 643Q79 675 99 696T150 717Q174 717 189 702T204
661Q204 630 184 610T134 589Q109 589 94 604Z" />
<glyph unicode="&#xa9;" glyph-name="copyright" horiz-adv-x="795" d="M286 -8T216 32T106 143T67 302Q67 326 70 351Q82 451 138 532T280 661T464 708Q555 708 626 668T736 558T775 398Q775 375 772 351Q760 251 704 169T561 40T376 -8Q286 -8 216 32ZM466 48T538
88T658 197T715 351Q718 372 718 392Q718 466 685 525T593 618T457 652Q374 652 302 613T183 504T126 351Q123 330 123 309Q123 235 156 176T248 82T383 48Q466 48 538 88ZM364 181T343 200T322 253Q322 262 323 267L343 429Q347 468 374 491T441 514Q478 514 499
495T521 443Q521 434 520 429V425Q518 415 509 415L476 413Q471 413 469 416T467 423L468 433Q470 448 461 458T436 468Q420 468 409 458T396 433L375 263Q373 247 381 238T406 228Q423 228 434 237T447 263L449 273Q449 277 452 280T460 283L492 281Q497 281 499
278T501 271L500 267Q496 228 469 205T401 181Q364 181 343 200Z" />
<glyph unicode="&#xaa;" glyph-name="ordfeminine" horiz-adv-x="273" d="M223 564Q225 564 226 565T228 568L231 592L232 605Q232 627 222 639T194 652Q178 652 165 643T146 618Q143 609 134 609L91 611Q86 611 84 614T83 622Q91 660 124 684T199 708Q245 708
271 683T297 616Q297 605 296 599L268 377Q268 373 265 370T257 367H213Q204 367 204 377L205 385Q206 387 205 388T201 387Q177 362 138 362Q104 362 79 379T54 441Q54 454 55 461Q62 518 96 541T187 564H223ZM178 415T195 428T216 468L220 508Q221 509 220 510T217
512H180Q152 512 135 497T118 451Q118 415 156 415Q178 415 195 428ZM38 318T47 318H261Q270 318 270 308L265 271Q263 261 254 261H40Q31 261 31 271L36 308Q38 318 47 318Z" />
<glyph unicode="&#xab;" glyph-name="guillemotleft" horiz-adv-x="453" d="M234 115Q234 107 225 107H157Q150 107 146 114L72 274Q71 275 71 279Q71 284 74 288L187 448Q192 455 199 455H267Q273 455 274 452T273 443L160 284Q159 282 159 278L233 119L234 115ZM383
117T383 114Q383 107 374 107H305Q299 107 294 114L222 274Q220 278 220 279Q220 284 224 288L335 448Q342 455 348 455H417Q422 455 424 452T422 443L308 284Q307 281 308 278L382 119Q383 117 383 114Z" />
<glyph unicode="&#xac;" glyph-name="logicalnot" horiz-adv-x="427" d="M417 351T419 348T421 341L414 283L413 277L412 275L401 182Q399 172 390 172H337Q333 172 331 175T329 182L340 273Q340 277 337 277H52Q48 277 46 280T44 287L51 341Q51 345 54 348T62
351H413Q417 351 419 348Z" />
<glyph unicode="&#xad;" glyph-name="uni00AD" horiz-adv-x="310" d="M42 264T42 274L50 337Q52 347 61 347H296Q306 347 304 337L297 274Q296 270 293 267T286 264H51Q42 264 42 274Z" />
<glyph unicode="&#xae;" glyph-name="registered" horiz-adv-x="423" d="M329 712T368 690T428 630T450 543Q450 481 420 430T340 348T231 318Q182 318 143 340T83 401T61 490Q61 550 91 601T171 682T279 712Q329 712 368 690ZM278 362T315 382T376 438T405 518Q406
524 406 537Q406 594 369 631T274 668Q230 668 191 645T129 583T106 496Q106 437 142 400T237 362Q278 362 315 382ZM325 540T317 526T293 505Q290 502 290 499L307 437L308 433Q308 425 299 425H280Q272 425 269 433L255 496Q254 499 251 499H240Q237 499 235
495L228 435Q226 425 217 425H202Q197 425 195 428T193 435L213 596Q215 606 224 606H278Q300 606 312 594T325 560Q325 540 317 526ZM245 575T245 571L240 530Q239 529 240 528T243 526H262Q272 526 279 532T289 550V554Q289 575 268 575H249Q245 575 245 571Z"
/>
<glyph unicode="&#xaf;" glyph-name="overscore" horiz-adv-x="422" d="M168 590T166 593T164 600L170 648Q172 658 181 658H363Q372 658 372 648L366 600Q364 590 355 590H172Q168 590 166 593Z" />
<glyph unicode="&#xb0;" glyph-name="degree" horiz-adv-x="348" d="M154 483T116 523T77 625Q77 674 101 716T166 783T253 808Q313 808 351 768T390 667Q390 618 366 576T301 508T214 483Q154 483 116 523ZM264 548T295 580T327 658Q327 695 304 720T246 745Q204
745 172 712T140 634Q140 597 163 573T222 548Q264 548 295 580Z" />
<glyph unicode="&#xb1;" glyph-name="plusminus" horiz-adv-x="427" d="M429 401T427 391L421 337Q419 327 410 327H274Q270 327 270 323L252 183Q252 179 249 176T242 173H189Q179 173 181 183L198 323Q198 327 194 327H59Q54 327 52 330T50 337L57 391Q59 401
68 401H204Q208 401 208 405L225 545Q227 555 236 555H288Q293 555 295 552T297 545L280 405Q279 404 280 403T283 401H419Q429 401 427 391ZM17 22T15 25T13 32L20 86Q20 90 23 93T31 96H382Q386 96 388 93T390 86L384 32Q383 28 380 25T373 22H21Q17 22 15 25Z"
/>
<glyph unicode="&#xb2;" glyph-name="uni00B2" horiz-adv-x="245" d="M53 433T53 443L58 482Q60 491 63 495Q140 587 186 650Q232 716 232 760Q232 780 223 790T198 801Q181 801 169 787T154 750L151 729Q151 725 148 722T140 719H96Q87 719 87 729L90 752Q97
801 129 829T207 858Q248 858 272 835T296 766Q296 731 284 698T248 628Q212 577 165 516L148 494Q146 492 147 491T150 489H263Q267 489 269 486T271 479L267 443Q265 433 256 433H62Q53 433 53 443Z" />
<glyph unicode="&#xb3;" glyph-name="uni00B3" horiz-adv-x="262" d="M284 593Q284 585 282 563Q279 532 270 509L268 505Q257 469 230 448T163 427Q121 427 97 452T72 517Q72 541 73 553Q74 563 84 563H127Q136 563 136 553Q135 546 135 533Q134 510 143 497T170
484Q198 484 212 519Q220 539 224 569Q226 595 226 604Q226 655 191 655Q187 655 179 653L175 651Q168 648 164 653L146 675Q143 678 143 681Q143 685 146 689L232 792Q234 794 233 795T230 797H118Q109 797 109 807L114 842Q116 852 125 852H305Q314 852 314 842L309
804Q307 795 303 791L230 702Q228 699 231 697Q256 692 269 669T283 612L284 593Z" />
<glyph unicode="&#xb4;" glyph-name="acute" horiz-adv-x="189" d="M77 573T75 576T77 585L150 693Q157 700 163 700H222Q228 700 229 697T227 688L142 579Q138 573 130 573H82Q77 573 75 576Z" />
<glyph unicode="&#xb5;" glyph-name="uni00B5" horiz-adv-x="424" d="M323 509T332 509H406Q416 509 414 499L354 10Q354 6 351 3T343 0H270Q265 0 263 3T261 10L265 39Q265 42 264 42T260 40Q225 -7 161 -7Q143 -7 128 -4Q127 -3 125 -4T123 -8L101 -190Q99 -200
90 -200H16Q6 -200 8 -190L92 499Q94 509 103 509H178Q188 509 186 499L145 162Q144 154 144 141Q144 76 200 76Q232 76 254 100T281 168L321 499Q323 509 332 509Z" />
<glyph unicode="&#xb6;" glyph-name="paragraph" horiz-adv-x="471" d="M468 700Q477 700 477 690L369 -190Q368 -194 365 -197T358 -200H298Q294 -200 292 -197T290 -190L389 617Q389 621 386 621H320Q317 621 315 617L216 -190Q216 -194 213 -197T205 -200H146Q136
-200 138 -190L191 247Q193 250 188 252Q130 260 97 309T64 432Q64 453 67 475Q75 539 103 590T174 670T269 700H468Z" />
<glyph unicode="&#xb7;" glyph-name="middot" horiz-adv-x="200" d="M82 219T67 234T52 273Q52 305 72 326T123 347Q147 347 162 332T177 291Q177 260 157 240T107 219Q82 219 67 234Z" />
<glyph unicode="&#xb8;" glyph-name="cedilla" horiz-adv-x="128" d="M-37 -181T-36 -171L-28 -140Q-25 -130 -15 -132Q-12 -133 -5 -133Q23 -133 33 -101Q35 -95 35 -83Q35 -48 4 -12Q2 -10 2 -6Q2 0 11 0H51Q58 0 61 -3Q63 -4 63 -5T64 -7Q97 -43 97 -88Q97
-109 91 -127Q80 -159 57 -173T6 -187Q-12 -187 -29 -182Q-37 -181 -36 -171Z" />
<glyph unicode="&#xb9;" glyph-name="uni00B9" horiz-adv-x="145" d="M141 853T148 853H195Q205 853 203 843L154 443Q152 433 143 433H100Q95 433 93 436T91 443L134 789Q134 791 133 792T130 793L105 787H103Q95 787 96 796L99 825Q101 835 107 837L135 850Q141
853 148 853Z" />
<glyph unicode="&#xba;" glyph-name="ordmasculine" horiz-adv-x="277" d="M116 361T91 384T65 450Q65 461 66 467L83 603Q88 650 121 679T205 708Q251 708 277 684T303 619Q303 609 302 603L285 467Q279 418 247 390T163 361Q116 361 91 384ZM190 417T205 432T223
471L238 598Q241 621 230 636T198 652Q178 652 163 637T144 598L129 471Q126 448 137 433T170 417Q190 417 205 432ZM39 261T37 264T35 271L40 308Q40 312 43 315T51 318H265Q274 318 274 308L269 271Q267 261 258 261H44Q39 261 37 264Z" />
<glyph unicode="&#xbb;" glyph-name="guillemotright" horiz-adv-x="453" d="M62 107T60 110T62 119L175 278Q176 280 176 284L102 443Q101 445 101 448Q101 455 110 455H178Q184 455 189 448L262 288Q264 284 264 282Q264 277 261 274L148 114Q141 107 135 107H67Q62
107 60 110ZM211 107T209 110T211 119L324 278Q325 280 325 284L251 443Q250 445 250 448Q250 455 259 455H327Q333 455 338 448L411 288Q413 284 413 282Q413 277 410 274L297 114Q290 107 284 107H216Q211 107 209 110Z" />
<glyph unicode="&#xbc;" glyph-name="onequarter" horiz-adv-x="661" d="M122 700T129 700H176Q186 700 184 690L135 290Q133 280 124 280H81Q76 280 74 283T72 290L115 636Q115 638 114 639T111 640L86 634H84Q76 634 77 643L80 672Q82 682 88 684L116 697Q122
700 129 700ZM46 0T44 3T46 12L541 693Q546 700 553 700H601Q607 700 608 697T606 688L111 7Q106 0 99 0H51Q46 0 44 3ZM653 169T651 159L647 120Q645 110 636 110H622Q618 110 618 106L606 10Q604 0 595 0H551Q547 0 545 3T543 10L555 106Q555 110 551 110H418Q414
110 412 113T410 120L414 153L417 165L527 412Q532 420 540 420H587Q592 420 593 417T593 409L490 174Q489 172 490 171T494 169H559Q563 169 563 173L572 244Q572 248 575 251T583 254H626Q635 254 635 244L626 173Q626 169 629 169H643Q653 169 651 159Z" />
<glyph unicode="&#xbd;" glyph-name="onehalf" horiz-adv-x="654" d="M122 700T129 700H176Q186 700 184 690L135 290Q133 280 124 280H81Q76 280 74 283T72 290L115 636Q115 638 114 639T111 640L86 634H84Q76 634 77 643L80 672Q82 682 88 684L116 697Q122 700
129 700ZM46 0T44 3T46 12L541 693Q546 700 553 700H601Q607 700 608 697T606 688L111 7Q106 0 99 0H51Q46 0 44 3ZM409 0T409 10L414 49Q416 58 419 62Q496 154 542 217Q588 283 588 327Q588 347 579 357T554 368Q537 368 525 354T510 317L507 296Q507 292 504
289T496 286H452Q443 286 443 296L446 319Q453 368 485 396T563 425Q604 425 628 402T652 333Q652 298 640 265T604 195Q568 144 521 83L504 61Q502 59 503 58T506 56H619Q623 56 625 53T627 46L623 10Q621 0 612 0H418Q409 0 409 10Z" />
<glyph unicode="&#xbe;" glyph-name="threequarters" horiz-adv-x="731" d="M265 439Q265 431 263 409Q260 378 251 355L249 351Q238 315 211 294T144 273Q102 273 78 298T53 363Q53 387 54 399Q55 409 65 409H108Q117 409 117 399Q116 392 116 379Q115 356 124
343T151 330Q179 330 193 365Q201 385 205 415Q207 441 207 450Q207 501 172 501Q168 501 160 499L156 497Q149 494 145 499L127 521Q124 524 124 527Q124 531 127 535L213 638Q215 640 214 641T211 643H99Q90 643 90 653L95 688Q97 698 106 698H286Q295 698 295
688L290 650Q288 641 284 637L211 548Q209 545 212 543Q237 538 250 515T264 458L265 439ZM116 0T114 3T116 12L611 693Q616 700 623 700H671Q677 700 678 697T676 688L181 7Q176 0 169 0H121Q116 0 114 3ZM723 169T721 159L717 120Q715 110 706 110H692Q688 110
688 106L676 10Q674 0 665 0H621Q617 0 615 3T613 10L625 106Q625 110 621 110H488Q484 110 482 113T480 120L484 153L487 165L597 412Q602 420 610 420H657Q662 420 663 417T663 409L560 174Q559 172 560 171T564 169H629Q633 169 633 173L642 244Q642 248 645
251T653 254H696Q705 254 705 244L696 173Q696 169 699 169H713Q723 169 721 159Z" />
<glyph unicode="&#xbf;" glyph-name="questiondown" horiz-adv-x="382" d="M270 499T285 484T300 443Q300 412 280 392T230 371Q205 371 190 386T175 425Q175 456 196 477T246 499Q270 499 285 484ZM268 292T266 282L260 232Q255 187 234 159T174 96Q134 61 115
32T95 -44Q95 -80 111 -101T156 -122Q190 -122 214 -95T244 -22L247 4Q249 14 258 14L331 10Q340 10 340 0L337 -22Q327 -106 273 -157T143 -209Q76 -209 39 -169T1 -60Q1 -51 3 -27Q8 18 23 49T57 101T105 146Q135 172 150 191T168 237L173 282Q175 292 184 292H258Q268
292 266 282Z" />
<glyph unicode="&#xc0;" glyph-name="Agrave" horiz-adv-x="423" d="M297 0T297 9L290 124Q290 126 289 127T285 128H127Q125 128 124 127T122 124L87 9Q86 0 76 0H2Q-3 0 -5 3T-5 11L223 691Q225 700 234 700H321Q330 700 330 691L392 11Q392 0 382 0H307Q297
0 297 9ZM148 207T149 206T151 204H280Q282 204 284 208L261 563Q261 565 260 565T257 563L149 208Q148 207 149 206ZM317 772Q317 764 308 764H260Q251 764 249 770L191 879L190 883Q190 891 199 891H258Q265 891 269 884L316 776L317 772Z" />
<glyph unicode="&#xc1;" glyph-name="Aacute" horiz-adv-x="423" d="M297 0T297 9L290 124Q290 126 289 127T285 128H127Q125 128 124 127T122 124L87 9Q86 0 76 0H2Q-3 0 -5 3T-5 11L223 691Q225 700 234 700H321Q330 700 330 691L392 11Q392 0 382 0H307Q297
0 297 9ZM148 207T149 206T151 204H280Q282 204 284 208L261 563Q261 565 260 565T257 563L149 208Q148 207 149 206ZM238 764T236 767T238 776L311 884Q318 891 324 891H383Q389 891 390 888T388 879L303 770Q299 764 291 764H243Q238 764 236 767Z" />
<glyph unicode="&#xc2;" glyph-name="Acircumflex" horiz-adv-x="423" d="M297 0T297 9L290 124Q290 126 289 127T285 128H127Q125 128 124 127T122 124L87 9Q86 0 76 0H2Q-3 0 -5 3T-5 11L223 691Q225 700 234 700H321Q330 700 330 691L392 11Q392 0 382 0H307Q297
0 297 9ZM148 207T149 206T151 204H280Q282 204 284 208L261 563Q261 565 260 565T257 563L149 208Q148 207 149 206ZM168 768T167 771T169 780L245 884Q250 891 257 891H340Q346 891 351 884L404 780Q405 778 405 775Q405 768 397 768H337Q330 768 327 775L297
843Q296 845 294 845T291 843L245 775Q240 768 233 768H173Q168 768 167 771Z" />
<glyph unicode="&#xc3;" glyph-name="Atilde" horiz-adv-x="423" d="M297 0T297 9L290 124Q290 126 289 127T285 128H127Q125 128 124 127T122 124L87 9Q86 0 76 0H2Q-3 0 -5 3T-5 11L223 691Q225 700 234 700H321Q330 700 330 691L392 11Q392 0 382 0H307Q297
0 297 9ZM148 207T149 206T151 204H280Q282 204 284 208L261 563Q261 565 260 565T257 563L149 208Q148 207 149 206ZM337 791T327 796T300 811Q296 814 289 820T275 828T260 831Q248 831 238 826T217 805Q214 801 210 800T203 802L178 822Q172 828 176 835Q193
865 215 880T262 895Q277 895 289 889T317 872Q320 870 327 864T342 855T357 852Q369 852 379 857T400 878Q403 882 407 882T414 881L438 863Q441 860 441 855Q441 851 437 844Q418 816 395 804T350 791Q337 791 327 796Z" />
<glyph unicode="&#xc4;" glyph-name="Adieresis" horiz-adv-x="423" d="M297 0T297 9L290 124Q290 126 289 127T285 128H127Q125 128 124 127T122 124L87 9Q86 0 76 0H2Q-3 0 -5 3T-5 11L223 691Q225 700 234 700H321Q330 700 330 691L392 11Q392 0 382 0H307Q297
0 297 9ZM148 207T149 206T151 204H280Q282 204 284 208L261 563Q261 565 260 565T257 563L149 208Q148 207 149 206ZM341 780T326 795T311 834Q311 866 331 887T382 908Q406 908 421 893T436 852Q436 821 416 801T366 780Q341 780 326 795ZM184 780T169 795T154
834Q154 866 174 887T225 908Q249 908 264 893T279 852Q279 821 259 801T209 780Q184 780 169 795Z" />
<glyph unicode="&#xc5;" glyph-name="Aring" horiz-adv-x="423" d="M297 0T297 9L290 124Q290 126 289 127T285 128H127Q125 128 124 127T122 124L87 9Q86 0 76 0H2Q-3 0 -5 3T-5 11L223 691Q225 700 234 700H321Q330 700 330 691L392 11Q392 0 382 0H307Q297
0 297 9ZM148 207T149 206T151 204H280Q282 204 284 208L261 563Q261 565 260 565T257 563L149 208Q148 207 149 206ZM243 764T216 792T189 863Q189 898 206 927T252 974T314 991Q356 991 383 963T410 892Q410 858 393 829T347 782T286 764Q243 764 216 792ZM318
818T337 838T356 886Q356 909 343 923T307 938Q281 938 262 918T242 869Q242 847 256 833T293 818Q318 818 337 838Z" />
<glyph unicode="&#xc6;" glyph-name="AE" horiz-adv-x="698" d="M719 617T710 617H492Q488 617 488 613L461 396Q461 392 464 392H598Q607 392 607 382L599 319Q597 309 588 309H454Q450 309 450 305L423 87Q423 83 426 83H645Q649 83 651 80T653 73L645 10Q645
6 642 3T634 0H328Q319 0 319 10L333 124Q334 125 333 126T330 128H158Q156 128 154 125L92 8Q88 0 81 0H4Q-1 0 -3 3T-2 12L364 692Q368 700 376 700H720Q725 700 727 697T729 690L721 627Q719 617 710 617ZM197 207T198 206T201 204H339Q342 204 344 208L388
562Q389 565 387 565T383 563L198 209Q197 207 198 206Z" />
<glyph unicode="&#xc7;" glyph-name="Ccedilla" horiz-adv-x="439" d="M438 502T429 502L355 498Q345 498 347 508L350 534Q351 539 351 550Q351 584 332 604T279 625Q242 625 217 600T186 534L141 166Q140 160 140 150Q140 116 159 96T211 75Q248 75 274 100T305
166L308 192Q310 202 319 202L392 198Q402 198 400 188L399 173Q390 101 347 54T238 -5Q233 -7 236 -10Q264 -44 264 -86Q264 -106 258 -125Q247 -157 224 -171T172 -185Q152 -185 137 -180Q128 -177 131 -168L139 -136Q142 -127 152 -129Q155 -130 162 -130Q190
-130 200 -98Q203 -89 203 -80Q203 -44 169 -7Q168 -5 165 -5Q109 5 78 44T46 143Q46 153 48 173L92 528Q102 610 156 659T289 708Q360 708 402 668T444 558Q444 548 442 528L440 512Q438 502 429 502Z" />
<glyph unicode="&#xc8;" glyph-name="Egrave" horiz-adv-x="419" d="M441 617T432 617H213Q212 617 211 616T209 613L182 396Q182 392 186 392H320Q330 392 328 382L320 319Q320 315 317 312T310 309H176Q173 309 171 305L145 87Q144 86 145 85T148 83H366Q375
83 375 73L367 10Q365 0 356 0H50Q46 0 44 3T42 10L125 690Q126 694 129 697T136 700H442Q452 700 450 690L443 627Q441 617 432 617ZM329 772Q329 764 320 764H272Q263 764 261 770L203 879L202 883Q202 891 211 891H270Q277 891 281 884L328 776L329 772Z" />
<glyph unicode="&#xc9;" glyph-name="Eacute" horiz-adv-x="419" d="M441 617T432 617H213Q212 617 211 616T209 613L182 396Q182 392 186 392H320Q330 392 328 382L320 319Q320 315 317 312T310 309H176Q173 309 171 305L145 87Q144 86 145 85T148 83H366Q375
83 375 73L367 10Q365 0 356 0H50Q46 0 44 3T42 10L125 690Q126 694 129 697T136 700H442Q452 700 450 690L443 627Q441 617 432 617ZM250 764T248 767T250 776L323 884Q330 891 336 891H395Q401 891 402 888T400 879L315 770Q311 764 303 764H255Q250 764 248
767Z" />
<glyph unicode="&#xca;" glyph-name="Ecircumflex" horiz-adv-x="419" d="M441 617T432 617H213Q212 617 211 616T209 613L182 396Q182 392 186 392H320Q330 392 328 382L320 319Q320 315 317 312T310 309H176Q173 309 171 305L145 87Q144 86 145 85T148 83H366Q375
83 375 73L367 10Q365 0 356 0H50Q46 0 44 3T42 10L125 690Q126 694 129 697T136 700H442Q452 700 450 690L443 627Q441 617 432 617ZM180 768T179 771T181 780L257 884Q262 891 269 891H352Q358 891 363 884L416 780Q417 778 417 775Q417 768 409 768H349Q342
768 339 775L309 843Q308 845 306 845T303 843L257 775Q252 768 245 768H185Q180 768 179 771Z" />
<glyph unicode="&#xcb;" glyph-name="Edieresis" horiz-adv-x="419" d="M441 617T432 617H213Q212 617 211 616T209 613L182 396Q182 392 186 392H320Q330 392 328 382L320 319Q320 315 317 312T310 309H176Q173 309 171 305L145 87Q144 86 145 85T148 83H366Q375
83 375 73L367 10Q365 0 356 0H50Q46 0 44 3T42 10L125 690Q126 694 129 697T136 700H442Q452 700 450 690L443 627Q441 617 432 617ZM352 780T337 795T322 834Q322 866 342 887T393 908Q417 908 432 893T447 852Q447 821 427 801T377 780Q352 780 337 795ZM195
780T180 795T165 834Q165 866 185 887T236 908Q260 908 275 893T290 852Q290 821 270 801T220 780Q195 780 180 795Z" />
<glyph unicode="&#xcc;" glyph-name="Igrave" horiz-adv-x="213" d="M46 0T44 3T42 10L125 690Q126 694 129 697T136 700H210Q219 700 219 690L135 10Q133 0 124 0H50Q46 0 44 3ZM213 772Q213 764 204 764H156Q147 764 145 770L87 879L86 883Q86 891 95 891H154Q161
891 165 884L212 776L213 772Z" />
<glyph unicode="&#xcd;" glyph-name="Iacute" horiz-adv-x="213" d="M46 0T44 3T42 10L125 690Q126 694 129 697T136 700H210Q219 700 219 690L135 10Q133 0 124 0H50Q46 0 44 3ZM134 764T132 767T134 776L207 884Q214 891 220 891H279Q285 891 286 888T284 879L199
770Q195 764 187 764H139Q134 764 132 767Z" />
<glyph unicode="&#xce;" glyph-name="Icircumflex" horiz-adv-x="213" d="M46 0T44 3T42 10L125 690Q126 694 129 697T136 700H210Q219 700 219 690L135 10Q133 0 124 0H50Q46 0 44 3ZM64 768T63 771T65 780L141 884Q146 891 153 891H236Q242 891 247 884L300
780Q301 778 301 775Q301 768 293 768H233Q226 768 223 775L193 843Q192 845 190 845T187 843L141 775Q136 768 129 768H69Q64 768 63 771Z" />
<glyph unicode="&#xcf;" glyph-name="Idieresis" horiz-adv-x="213" d="M46 0T44 3T42 10L125 690Q126 694 129 697T136 700H210Q219 700 219 690L135 10Q133 0 124 0H50Q46 0 44 3ZM236 780T221 795T206 834Q206 866 226 887T277 908Q301 908 316 893T331 852Q331
821 311 801T261 780Q236 780 221 795ZM79 780T64 795T49 834Q49 866 69 887T120 908Q144 908 159 893T174 852Q174 821 154 801T104 780Q79 780 64 795Z" />
<glyph unicode="&#xd0;" glyph-name="Eth" horiz-adv-x="493" d="M406 700T446 659T487 544Q487 533 485 511L445 189Q435 102 381 51T247 0H88Q78 0 80 10L119 333Q120 334 119 335T116 337H92Q83 337 83 347L88 385Q90 395 99 395H123Q126 395 128 399L163 690Q165
700 174 700H333Q406 700 446 659ZM391 506Q392 514 392 529Q392 571 374 594T321 617H251Q247 617 247 613L221 399Q220 398 221 397T224 395H285Q294 395 294 385L289 347Q287 337 278 337H217Q213 337 213 333L182 87Q182 83 186 83L257 84Q294 84 320 113T353
194L391 506Z" />
<glyph unicode="&#xd1;" glyph-name="Ntilde" horiz-adv-x="486" d="M401 700T410 700H483Q487 700 489 697T491 690L408 10Q406 0 397 0H313Q305 0 304 8L195 465Q194 467 192 467T190 464L135 10Q133 0 124 0H50Q46 0 44 3T42 10L125 690Q126 694 129 697T136
700H219Q226 700 229 692L338 235Q339 232 341 232T343 236L399 690Q401 700 410 700ZM369 797T359 802T332 817Q328 820 321 826T307 834T292 837Q280 837 270 832T249 811Q246 807 242 806T235 808L210 828Q204 834 208 841Q225 871 247 886T294 901Q309 901
321 895T349 878Q352 876 359 870T374 861T389 858Q401 858 411 863T432 884Q435 888 439 888T446 887L470 869Q473 866 473 861Q473 857 469 850Q450 822 427 810T382 797Q369 797 359 802Z" />
<glyph unicode="&#xd2;" glyph-name="Ograve" horiz-adv-x="448" d="M131 -8T89 33T47 145Q47 155 49 175L91 524Q101 607 156 657T291 708Q364 708 406 666T449 552Q449 544 447 524L404 175Q394 92 339 42T203 -8Q131 -8 89 33ZM251 75T278 101T310 171L354
529Q355 535 355 545Q355 581 335 603T280 625Q243 625 217 599T185 529L141 171Q140 165 140 154Q140 118 159 97T213 75Q251 75 278 101ZM329 772Q329 764 320 764H272Q263 764 261 770L203 879L202 883Q202 891 211 891H270Q277 891 281 884L328 776L329 772Z"
/>
<glyph unicode="&#xd3;" glyph-name="Oacute" horiz-adv-x="448" d="M131 -8T89 33T47 145Q47 155 49 175L91 524Q101 607 156 657T291 708Q364 708 406 666T449 552Q449 544 447 524L404 175Q394 92 339 42T203 -8Q131 -8 89 33ZM251 75T278 101T310 171L354
529Q355 535 355 545Q355 581 335 603T280 625Q243 625 217 599T185 529L141 171Q140 165 140 154Q140 118 159 97T213 75Q251 75 278 101ZM251 764T249 767T251 776L324 884Q331 891 337 891H396Q402 891 403 888T401 879L316 770Q312 764 304 764H256Q251 764
249 767Z" />
<glyph unicode="&#xd4;" glyph-name="Ocircumflex" horiz-adv-x="448" d="M131 -8T89 33T47 145Q47 155 49 175L91 524Q101 607 156 657T291 708Q364 708 406 666T449 552Q449 544 447 524L404 175Q394 92 339 42T203 -8Q131 -8 89 33ZM251 75T278 101T310 171L354
529Q355 535 355 545Q355 581 335 603T280 625Q243 625 217 599T185 529L141 171Q140 165 140 154Q140 118 159 97T213 75Q251 75 278 101ZM180 768T179 771T181 780L257 884Q262 891 269 891H352Q358 891 363 884L416 780Q417 778 417 775Q417 768 409 768H349Q342
768 339 775L309 843Q308 845 306 845T303 843L257 775Q252 768 245 768H185Q180 768 179 771Z" />
<glyph unicode="&#xd5;" glyph-name="Otilde" horiz-adv-x="448" d="M131 -8T89 33T47 145Q47 155 49 175L91 524Q101 607 156 657T291 708Q364 708 406 666T449 552Q449 544 447 524L404 175Q394 92 339 42T203 -8Q131 -8 89 33ZM251 75T278 101T310 171L354
529Q355 535 355 545Q355 581 335 603T280 625Q243 625 217 599T185 529L141 171Q140 165 140 154Q140 118 159 97T213 75Q251 75 278 101ZM350 791T340 796T313 811Q309 814 302 820T288 828T273 831Q261 831 251 826T230 805Q227 801 223 800T216 802L191 822Q185
828 189 835Q206 865 228 880T275 895Q290 895 302 889T330 872Q333 870 340 864T355 855T370 852Q382 852 392 857T413 878Q416 882 420 882T427 881L451 863Q454 860 454 855Q454 851 450 844Q431 816 408 804T363 791Q350 791 340 796Z" />
<glyph unicode="&#xd6;" glyph-name="Odieresis" horiz-adv-x="448" d="M131 -8T89 33T47 145Q47 155 49 175L91 524Q101 607 156 657T291 708Q364 708 406 666T449 552Q449 544 447 524L404 175Q394 92 339 42T203 -8Q131 -8 89 33ZM251 75T278 101T310 171L354
529Q355 535 355 545Q355 581 335 603T280 625Q243 625 217 599T185 529L141 171Q140 165 140 154Q140 118 159 97T213 75Q251 75 278 101ZM353 780T338 795T323 834Q323 866 343 887T394 908Q418 908 433 893T448 852Q448 821 428 801T378 780Q353 780 338 795ZM196
780T181 795T166 834Q166 866 186 887T237 908Q261 908 276 893T291 852Q291 821 271 801T221 780Q196 780 181 795Z" />
<glyph unicode="&#xd7;" glyph-name="multiply" horiz-adv-x="369" d="M369 423T369 422Q369 417 365 413L257 314Q254 311 256 308L340 209Q342 205 342 203Q342 198 338 195L297 157Q289 151 283 157L199 256Q198 259 193 256L85 157Q82 154 78 154T72 157L39
195Q37 199 37 200Q37 205 41 209L149 308Q153 311 150 314L66 413Q64 417 64 418Q64 423 68 427L109 465Q113 468 117 468T123 465L207 366Q210 363 213 366L321 465Q324 468 328 468T335 465L367 427Q369 423 369 422Z" />
<glyph unicode="&#xd8;" glyph-name="Oslash" horiz-adv-x="547" d="M480 708T477 698L438 628Q436 624 438 622Q450 594 450 555Q450 546 448 524L406 175Q396 92 341 42T205 -8Q147 -8 109 19Q105 20 103 17L74 -35Q70 -43 61 -39L22 -16Q15 -10 19 -3L60 73Q63
76 61 79Q49 108 49 144Q49 153 51 175L93 524Q103 607 158 657T293 708Q350 708 390 680Q394 679 396 682L424 733Q428 742 437 737L474 712Q480 708 477 698ZM153 250Q152 247 154 247T158 249L344 589Q345 591 345 592T344 595Q323 625 282 625Q245 625 219
599T187 529L153 250ZM346 451Q347 454 345 454T342 452L154 112Q153 110 155 106Q174 75 215 75Q253 75 280 101T312 171L346 451Z" />
<glyph unicode="&#xd9;" glyph-name="Ugrave" horiz-adv-x="463" d="M139 -8T98 37T57 157Q57 168 59 190L121 690Q121 694 124 697T132 700H205Q214 700 214 690L151 180Q150 173 150 160Q150 121 169 98T221 75Q258 75 284 104T317 180L380 690Q380 694 383
697T391 700H464Q473 700 473 690L411 190Q401 101 346 47T210 -8Q139 -8 98 37ZM337 772Q337 764 328 764H280Q271 764 269 770L211 879L210 883Q210 891 219 891H278Q285 891 289 884L336 776L337 772Z" />
<glyph unicode="&#xda;" glyph-name="Uacute" horiz-adv-x="463" d="M139 -8T98 37T57 157Q57 168 59 190L121 690Q121 694 124 697T132 700H205Q214 700 214 690L151 180Q150 173 150 160Q150 121 169 98T221 75Q258 75 284 104T317 180L380 690Q380 694 383
697T391 700H464Q473 700 473 690L411 190Q401 101 346 47T210 -8Q139 -8 98 37ZM258 764T256 767T258 776L331 884Q338 891 344 891H403Q409 891 410 888T408 879L323 770Q319 764 311 764H263Q258 764 256 767Z" />
<glyph unicode="&#xdb;" glyph-name="Ucircumflex" horiz-adv-x="463" d="M139 -8T98 37T57 157Q57 168 59 190L121 690Q121 694 124 697T132 700H205Q214 700 214 690L151 180Q150 173 150 160Q150 121 169 98T221 75Q258 75 284 104T317 180L380 690Q380 694
383 697T391 700H464Q473 700 473 690L411 190Q401 101 346 47T210 -8Q139 -8 98 37ZM188 768T187 771T189 780L265 884Q270 891 277 891H360Q366 891 371 884L424 780Q425 778 425 775Q425 768 417 768H357Q350 768 347 775L317 843Q316 845 314 845T311 843L265
775Q260 768 253 768H193Q188 768 187 771Z" />
<glyph unicode="&#xdc;" glyph-name="Udieresis" horiz-adv-x="463" d="M139 -8T98 37T57 157Q57 168 59 190L121 690Q121 694 124 697T132 700H205Q214 700 214 690L151 180Q150 173 150 160Q150 121 169 98T221 75Q258 75 284 104T317 180L380 690Q380 694 383
697T391 700H464Q473 700 473 690L411 190Q401 101 346 47T210 -8Q139 -8 98 37ZM361 780T346 795T331 834Q331 866 351 887T402 908Q426 908 441 893T456 852Q456 821 436 801T386 780Q361 780 346 795ZM204 780T189 795T174 834Q174 866 194 887T245 908Q269
908 284 893T299 852Q299 821 279 801T229 780Q204 780 189 795Z" />
<glyph unicode="&#xdd;" glyph-name="Yacute" horiz-adv-x="429" d="M148 1T150 11L185 297Q185 298 185 299T185 302L97 689V691Q97 700 106 700H184Q192 700 195 692L243 416Q244 414 246 414T249 416L365 692Q370 700 378 700H456Q461 700 462 697T462 689L280
302Q278 300 278 297L243 11Q241 1 232 1H158Q148 1 150 11ZM242 764T240 767T242 776L315 884Q322 891 328 891H387Q393 891 394 888T392 879L307 770Q303 764 295 764H247Q242 764 240 767Z" />
<glyph unicode="&#xde;" glyph-name="Thorn" horiz-adv-x="437" d="M357 550T395 505T434 384Q434 373 432 349Q421 260 370 206T246 152H155Q151 152 151 148L134 10Q132 0 123 0H49Q45 0 43 3T41 10L124 690Q125 694 128 697T135 700H209Q218 700 218 690L201
554Q201 550 204 550H291Q357 550 395 505ZM281 229T310 269T340 374Q340 417 320 442T266 467H194Q190 467 190 463L161 233Q161 229 165 229H237Q281 229 310 269Z" />
<glyph unicode="&#xdf;" glyph-name="germandbls" horiz-adv-x="428" d="M32 0T32 10L93 501Q105 599 153 654T278 709Q348 709 386 668T425 553Q425 544 423 522Q417 468 396 431T340 376Q336 373 339 370Q365 353 379 320T394 240Q394 221 391 198Q380 105 327
53T188 0H169Q160 0 160 10L168 72Q170 82 179 82L199 83Q241 84 267 116T301 208Q303 220 303 242Q303 285 287 308T241 334H219Q215 334 213 337T211 344L218 400Q220 410 229 410H249Q287 410 309 445T332 542Q332 582 316 604T269 626Q237 626 216 597T187
515L125 10Q125 6 122 3T114 0H41Q32 0 32 10Z" />
<glyph unicode="&#xe0;" glyph-name="agrave" horiz-adv-x="411" d="M316 503T319 506T326 509H400Q409 509 409 499L348 10Q348 6 345 3T338 0H264Q255 0 255 10L260 45Q260 48 259 48T255 47Q236 19 209 6T152 -8Q97 -8 68 25T39 118Q39 127 41 151L66 358Q75
432 114 474T217 517Q246 517 269 504T306 462Q308 460 309 460T311 464L315 499Q316 503 319 506ZM225 75T247 98T273 157L297 352Q298 357 298 366Q298 397 282 415T239 434Q208 434 186 411T159 352L135 157Q134 152 134 143Q134 113 150 94T194 75Q225 75 247
98ZM288 581Q288 573 279 573H231Q222 573 220 579L162 688L161 692Q161 700 170 700H229Q236 700 240 693L287 585L288 581Z" />
<glyph unicode="&#xe1;" glyph-name="aacute" horiz-adv-x="411" d="M316 503T319 506T326 509H400Q409 509 409 499L348 10Q348 6 345 3T338 0H264Q255 0 255 10L260 45Q260 48 259 48T255 47Q236 19 209 6T152 -8Q97 -8 68 25T39 118Q39 127 41 151L66 358Q75
432 114 474T217 517Q246 517 269 504T306 462Q308 460 309 460T311 464L315 499Q316 503 319 506ZM225 75T247 98T273 157L297 352Q298 357 298 366Q298 397 282 415T239 434Q208 434 186 411T159 352L135 157Q134 152 134 143Q134 113 150 94T194 75Q225 75 247
98ZM209 573T207 576T209 585L282 693Q289 700 295 700H354Q360 700 361 697T359 688L274 579Q270 573 262 573H214Q209 573 207 576Z" />
<glyph unicode="&#xe2;" glyph-name="acircumflex" horiz-adv-x="411" d="M316 503T319 506T326 509H400Q409 509 409 499L348 10Q348 6 345 3T338 0H264Q255 0 255 10L260 45Q260 48 259 48T255 47Q236 19 209 6T152 -8Q97 -8 68 25T39 118Q39 127 41 151L66
358Q75 432 114 474T217 517Q246 517 269 504T306 462Q308 460 309 460T311 464L315 499Q316 503 319 506ZM225 75T247 98T273 157L297 352Q298 357 298 366Q298 397 282 415T239 434Q208 434 186 411T159 352L135 157Q134 152 134 143Q134 113 150 94T194 75Q225
75 247 98ZM139 577T138 580T140 589L216 693Q221 700 228 700H311Q317 700 322 693L375 589Q376 587 376 584Q376 577 368 577H308Q301 577 298 584L268 652Q267 654 265 654T262 652L216 584Q211 577 204 577H144Q139 577 138 580Z" />
<glyph unicode="&#xe3;" glyph-name="atilde" horiz-adv-x="411" d="M316 503T319 506T326 509H400Q409 509 409 499L348 10Q348 6 345 3T338 0H264Q255 0 255 10L260 45Q260 48 259 48T255 47Q236 19 209 6T152 -8Q97 -8 68 25T39 118Q39 127 41 151L66 358Q75
432 114 474T217 517Q246 517 269 504T306 462Q308 460 309 460T311 464L315 499Q316 503 319 506ZM225 75T247 98T273 157L297 352Q298 357 298 366Q298 397 282 415T239 434Q208 434 186 411T159 352L135 157Q134 152 134 143Q134 113 150 94T194 75Q225 75 247
98ZM308 600T298 605T271 620Q267 623 260 629T246 637T231 640Q219 640 209 635T188 614Q185 610 181 609T174 611L149 631Q143 637 147 644Q164 674 186 689T233 704Q248 704 260 698T288 681Q291 679 298 673T313 664T328 661Q340 661 350 666T371 687Q374 691
378 691T385 690L409 672Q412 669 412 664Q412 660 408 653Q389 625 366 613T321 600Q308 600 298 605Z" />
<glyph unicode="&#xe4;" glyph-name="adieresis" horiz-adv-x="411" d="M316 503T319 506T326 509H400Q409 509 409 499L348 10Q348 6 345 3T338 0H264Q255 0 255 10L260 45Q260 48 259 48T255 47Q236 19 209 6T152 -8Q97 -8 68 25T39 118Q39 127 41 151L66 358Q75
432 114 474T217 517Q246 517 269 504T306 462Q308 460 309 460T311 464L315 499Q316 503 319 506ZM225 75T247 98T273 157L297 352Q298 357 298 366Q298 397 282 415T239 434Q208 434 186 411T159 352L135 157Q134 152 134 143Q134 113 150 94T194 75Q225 75 247
98ZM311 589T296 604T281 643Q281 675 301 696T352 717Q376 717 391 702T406 661Q406 630 386 610T336 589Q311 589 296 604ZM154 589T139 604T124 643Q124 675 144 696T195 717Q219 717 234 702T249 661Q249 630 229 610T179 589Q154 589 139 604Z" />
<glyph unicode="&#xe5;" glyph-name="aring" horiz-adv-x="411" d="M316 503T319 506T326 509H400Q409 509 409 499L348 10Q348 6 345 3T338 0H264Q255 0 255 10L260 45Q260 48 259 48T255 47Q236 19 209 6T152 -8Q97 -8 68 25T39 118Q39 127 41 151L66 358Q75
432 114 474T217 517Q246 517 269 504T306 462Q308 460 309 460T311 464L315 499Q316 503 319 506ZM225 75T247 98T273 157L297 352Q298 357 298 366Q298 397 282 415T239 434Q208 434 186 411T159 352L135 157Q134 152 134 143Q134 113 150 94T194 75Q225 75 247
98ZM214 573T187 601T160 672Q160 707 177 736T223 783T285 800Q327 800 354 772T381 701Q381 667 364 638T318 591T257 573Q214 573 187 601ZM289 627T308 647T327 695Q327 718 314 732T278 747Q252 747 233 727T213 678Q213 656 227 642T264 627Q289 627 308
647Z" />
<glyph unicode="&#xe6;" glyph-name="ae" horiz-adv-x="644" d="M29 -8T29 106Q29 114 31 138Q42 224 91 260T224 297H289Q293 297 293 301L298 341Q299 348 299 361Q299 395 284 414T239 434Q212 434 190 418T161 374Q160 364 149 364L76 367Q66 367 68 377Q80
441 130 479T247 517Q322 517 355 455Q357 452 360 455Q383 484 417 500T491 517Q556 517 594 480T633 381Q633 366 632 358L616 226Q615 222 612 219T605 216H384Q383 216 382 215T380 212L373 157Q369 125 386 103T435 81Q460 81 480 97T511 139Q514 149 522
147L593 138Q602 136 601 127Q585 64 541 28T431 -8Q383 -8 350 12T310 60Q310 60 310 62T307 62Q292 32 248 12T149 -8Q29 -8 29 106ZM391 297T394 297H527Q530 297 532 301L538 352Q539 357 539 366Q539 396 523 415T478 434Q447 434 425 411T397 352L391 301Q391
297 394 297ZM215 69T242 90T274 147L282 211Q282 215 279 215H219Q177 215 151 193T124 127Q124 98 140 84T182 69Q215 69 242 90Z" />
<glyph unicode="&#xe7;" glyph-name="ccedilla" horiz-adv-x="401" d="M391 346T382 346L308 343Q299 343 299 353L301 363Q304 392 287 413T239 434Q208 434 186 411T159 352L135 157Q134 152 134 143Q134 112 150 94T194 75Q225 75 247 96T274 146L275 156Q277
166 286 166L360 165Q370 165 368 155L366 140Q359 84 321 45T222 -5Q217 -7 220 -10Q248 -47 248 -87Q248 -107 242 -125Q231 -157 208 -171T156 -185Q136 -185 121 -180Q112 -176 115 -168L123 -137Q126 -127 136 -129Q139 -130 146 -130Q158 -130 168 -122T184
-98Q186 -92 186 -80Q186 -43 154 -8Q153 -6 150 -6Q97 3 68 37T39 125Q39 133 41 151L66 358Q75 429 125 473T249 517Q317 517 356 481T396 388Q396 375 395 369L393 356Q391 346 382 346Z" />
<glyph unicode="&#xe8;" glyph-name="egrave" horiz-adv-x="405" d="M374 215T365 215H146Q143 215 141 211L135 157Q134 152 134 143Q134 113 150 94T194 75Q221 75 241 92T271 136Q275 144 282 144L354 140Q359 140 360 137T361 130Q347 65 301 29T184 -8Q116
-8 78 27T39 125Q39 132 41 150L66 358Q75 429 125 473T249 517Q317 517 355 481T394 384Q394 376 392 358L376 225Q374 215 365 215ZM208 434T186 411T159 352L152 299Q152 295 156 295H288Q290 295 291 296T293 299L299 352Q300 357 300 366Q300 397 284 415T239
434Q208 434 186 411ZM285 581Q285 573 276 573H228Q219 573 217 579L159 688L158 692Q158 700 167 700H226Q233 700 237 693L284 585L285 581Z" />
<glyph unicode="&#xe9;" glyph-name="eacute" horiz-adv-x="405" d="M374 215T365 215H146Q143 215 141 211L135 157Q134 152 134 143Q134 113 150 94T194 75Q221 75 241 92T271 136Q275 144 282 144L354 140Q359 140 360 137T361 130Q347 65 301 29T184 -8Q116
-8 78 27T39 125Q39 132 41 150L66 358Q75 429 125 473T249 517Q317 517 355 481T394 384Q394 376 392 358L376 225Q374 215 365 215ZM208 434T186 411T159 352L152 299Q152 295 156 295H288Q290 295 291 296T293 299L299 352Q300 357 300 366Q300 397 284 415T239
434Q208 434 186 411ZM207 573T205 576T207 585L280 693Q287 700 293 700H352Q358 700 359 697T357 688L272 579Q268 573 260 573H212Q207 573 205 576Z" />
<glyph unicode="&#xea;" glyph-name="ecircumflex" horiz-adv-x="405" d="M374 215T365 215H146Q143 215 141 211L135 157Q134 152 134 143Q134 113 150 94T194 75Q221 75 241 92T271 136Q275 144 282 144L354 140Q359 140 360 137T361 130Q347 65 301 29T184
-8Q116 -8 78 27T39 125Q39 132 41 150L66 358Q75 429 125 473T249 517Q317 517 355 481T394 384Q394 376 392 358L376 225Q374 215 365 215ZM208 434T186 411T159 352L152 299Q152 295 156 295H288Q290 295 291 296T293 299L299 352Q300 357 300 366Q300 397 284
415T239 434Q208 434 186 411ZM136 577T135 580T137 589L213 693Q218 700 225 700H308Q314 700 319 693L372 589Q373 587 373 584Q373 577 365 577H305Q298 577 295 584L265 652Q264 654 262 654T259 652L213 584Q208 577 201 577H141Q136 577 135 580Z" />
<glyph unicode="&#xeb;" glyph-name="edieresis" horiz-adv-x="405" d="M374 215T365 215H146Q143 215 141 211L135 157Q134 152 134 143Q134 113 150 94T194 75Q221 75 241 92T271 136Q275 144 282 144L354 140Q359 140 360 137T361 130Q347 65 301 29T184 -8Q116
-8 78 27T39 125Q39 132 41 150L66 358Q75 429 125 473T249 517Q317 517 355 481T394 384Q394 376 392 358L376 225Q374 215 365 215ZM208 434T186 411T159 352L152 299Q152 295 156 295H288Q290 295 291 296T293 299L299 352Q300 357 300 366Q300 397 284 415T239
434Q208 434 186 411ZM309 589T294 604T279 643Q279 675 299 696T350 717Q374 717 389 702T404 661Q404 630 384 610T334 589Q309 589 294 604ZM152 589T137 604T122 643Q122 675 142 696T193 717Q217 717 232 702T247 661Q247 630 227 610T177 589Q152 589 137
604Z" />
<glyph unicode="&#xec;" glyph-name="igrave" horiz-adv-x="171" d="M19 0T21 10L81 499Q81 503 84 506T92 509H165Q170 509 172 506T174 499L114 10Q112 0 103 0H29Q19 0 21 10ZM168 581Q168 573 159 573H111Q102 573 100 579L42 688L41 692Q41 700 50 700H109Q116
700 120 693L167 585L168 581Z" />
<glyph unicode="&#xed;" glyph-name="iacute" horiz-adv-x="171" d="M19 0T21 10L81 499Q81 503 84 506T92 509H165Q170 509 172 506T174 499L114 10Q112 0 103 0H29Q19 0 21 10ZM89 573T87 576T89 585L162 693Q169 700 175 700H234Q240 700 241 697T239 688L154
579Q150 573 142 573H94Q89 573 87 576Z" />
<glyph unicode="&#xee;" glyph-name="icircumflex" horiz-adv-x="171" d="M19 0T21 10L81 499Q81 503 84 506T92 509H165Q170 509 172 506T174 499L114 10Q112 0 103 0H29Q19 0 21 10ZM19 577T18 580T20 589L96 693Q101 700 108 700H191Q197 700 202 693L255 589Q256
587 256 584Q256 577 248 577H188Q181 577 178 584L148 652Q147 654 145 654T142 652L96 584Q91 577 84 577H24Q19 577 18 580Z" />
<glyph unicode="&#xef;" glyph-name="idieresis" horiz-adv-x="171" d="M19 0T21 10L81 499Q81 503 84 506T92 509H165Q170 509 172 506T174 499L114 10Q112 0 103 0H29Q19 0 21 10ZM192 589T177 604T162 643Q162 675 182 696T233 717Q257 717 272 702T287 661Q287
630 267 610T217 589Q192 589 177 604ZM35 589T20 604T5 643Q5 675 25 696T76 717Q100 717 115 702T130 661Q130 630 110 610T60 589Q35 589 20 604Z" />
<glyph unicode="&#xf0;" glyph-name="eth" horiz-adv-x="425" d="M360 591T360 587Q396 501 396 405Q396 386 392 340Q390 315 380 246L369 151Q360 78 311 35T185 -8Q116 -8 78 27T39 125Q39 133 41 151L64 340Q73 410 121 454T233 499Q280 499 302 470Q306 467
306 472Q303 512 283 567Q281 571 278 569L202 548L198 547Q192 547 190 555L187 579V581Q187 588 196 592L256 609Q260 611 259 614Q241 650 214 688Q212 692 212 693Q212 700 222 700H291Q297 700 302 694Q332 647 338 635Q340 632 343 633L424 656L427 657Q433
657 435 649L437 623Q437 613 429 610L363 592Q360 591 360 587ZM299 339T299 348Q299 379 283 397T237 416Q206 416 183 393T156 334L135 157Q134 152 134 143Q134 113 150 94T195 75Q227 75 249 98T276 157L298 334Q299 339 299 348Z" />
<glyph unicode="&#xf1;" glyph-name="ntilde" horiz-adv-x="419" d="M231 640T222 635T202 615Q195 605 188 612L168 631Q162 636 165 644Q196 704 244 704Q258 704 269 698T293 681Q296 679 302 673T315 664T329 661Q352 661 367 686Q375 696 382 690L403 672Q409
667 404 659Q388 628 365 614T322 600Q311 600 301 605T277 620Q274 622 267 628T255 637T242 640Q231 640 222 635ZM344 516T372 484T400 391Q400 373 397 353L355 10Q355 6 352 3T344 0H271Q266 0 264 3T262 10L303 345Q304 352 304 366Q304 398 290 415T248
433Q216 433 195 411T168 347Q167 341 166 341L125 10Q125 6 122 3T114 0H41Q32 0 32 10L92 499Q94 509 103 509H177Q187 509 185 499L182 472Q182 470 184 470T188 472Q228 516 291 516Q344 516 372 484Z" />
<glyph unicode="&#xf2;" glyph-name="ograve" horiz-adv-x="412" d="M116 -8T78 28T39 126Q39 133 41 151L66 358Q75 429 125 473T250 517Q319 517 358 481T397 383Q397 376 395 358L370 151Q361 79 311 36T185 -8Q116 -8 78 28ZM227 76T250 99T277 158L301 352Q302
357 302 365Q302 396 285 415T240 434Q209 434 187 411T159 352L135 158Q134 153 134 144Q134 113 151 95T196 76Q227 76 250 99ZM288 581Q288 573 279 573H231Q222 573 220 579L162 688L161 692Q161 700 170 700H229Q236 700 240 693L287 585L288 581Z" />
<glyph unicode="&#xf3;" glyph-name="oacute" horiz-adv-x="412" d="M116 -8T78 28T39 126Q39 133 41 151L66 358Q75 429 125 473T250 517Q319 517 358 481T397 383Q397 376 395 358L370 151Q361 79 311 36T185 -8Q116 -8 78 28ZM227 76T250 99T277 158L301 352Q302
357 302 365Q302 396 285 415T240 434Q209 434 187 411T159 352L135 158Q134 153 134 144Q134 113 151 95T196 76Q227 76 250 99ZM210 573T208 576T210 585L283 693Q290 700 296 700H355Q361 700 362 697T360 688L275 579Q271 573 263 573H215Q210 573 208 576Z"
/>
<glyph unicode="&#xf4;" glyph-name="ocircumflex" horiz-adv-x="412" d="M116 -8T78 28T39 126Q39 133 41 151L66 358Q75 429 125 473T250 517Q319 517 358 481T397 383Q397 376 395 358L370 151Q361 79 311 36T185 -8Q116 -8 78 28ZM227 76T250 99T277 158L301
352Q302 357 302 365Q302 396 285 415T240 434Q209 434 187 411T159 352L135 158Q134 153 134 144Q134 113 151 95T196 76Q227 76 250 99ZM139 577T138 580T140 589L216 693Q221 700 228 700H311Q317 700 322 693L375 589Q376 587 376 584Q376 577 368 577H308Q301
577 298 584L268 652Q267 654 265 654T262 652L216 584Q211 577 204 577H144Q139 577 138 580Z" />
<glyph unicode="&#xf5;" glyph-name="otilde" horiz-adv-x="412" d="M116 -8T78 28T39 126Q39 133 41 151L66 358Q75 429 125 473T250 517Q319 517 358 481T397 383Q397 376 395 358L370 151Q361 79 311 36T185 -8Q116 -8 78 28ZM227 76T250 99T277 158L301 352Q302
357 302 365Q302 396 285 415T240 434Q209 434 187 411T159 352L135 158Q134 153 134 144Q134 113 151 95T196 76Q227 76 250 99ZM309 600T299 605T272 620Q268 623 261 629T247 637T232 640Q220 640 210 635T189 614Q186 610 182 609T175 611L150 631Q144 637
148 644Q165 674 187 689T234 704Q249 704 261 698T289 681Q292 679 299 673T314 664T329 661Q341 661 351 666T372 687Q375 691 379 691T386 690L410 672Q413 669 413 664Q413 660 409 653Q390 625 367 613T322 600Q309 600 299 605Z" />
<glyph unicode="&#xf6;" glyph-name="odieresis" horiz-adv-x="412" d="M116 -8T78 28T39 126Q39 133 41 151L66 358Q75 429 125 473T250 517Q319 517 358 481T397 383Q397 376 395 358L370 151Q361 79 311 36T185 -8Q116 -8 78 28ZM227 76T250 99T277 158L301
352Q302 357 302 365Q302 396 285 415T240 434Q209 434 187 411T159 352L135 158Q134 153 134 144Q134 113 151 95T196 76Q227 76 250 99ZM312 589T297 604T282 643Q282 675 302 696T353 717Q377 717 392 702T407 661Q407 630 387 610T337 589Q312 589 297 604ZM155
589T140 604T125 643Q125 675 145 696T196 717Q220 717 235 702T250 661Q250 630 230 610T180 589Q155 589 140 604Z" />
<glyph unicode="&#xf7;" glyph-name="divide" horiz-adv-x="427" d="M224 421T211 435T197 472Q197 498 216 517T260 537Q281 537 295 523T310 486Q310 460 290 441T246 421Q224 421 211 435ZM43 284T45 294L51 347Q53 357 62 357H413Q418 357 420 354T422 347L415
294Q415 290 412 287T404 284H53Q43 284 45 294ZM185 107T172 121T158 158Q158 184 177 203T221 223Q242 223 256 208T271 172Q271 146 251 127T207 107Q185 107 172 121Z" />
<glyph unicode="&#xf8;" glyph-name="oslash" horiz-adv-x="434" d="M420 526T421 522T419 514L384 455Q383 452 384 449Q398 419 398 381Q398 366 397 358L372 151Q363 78 314 35T188 -8Q151 -8 123 3Q118 5 117 1L91 -45Q85 -55 76 -49L32 -19Q28 -17 28 -13T29
-5L61 47Q63 50 61 53Q41 82 41 125Q41 133 43 151L68 358Q77 429 127 473T253 517Q297 517 324 504Q329 502 330 506L358 555Q361 559 365 560T372 559L417 528Q420 526 421 522ZM141 187T146 192L278 419Q281 423 278 424Q264 434 242 434Q210 434 188 411T161
352L141 193Q141 187 146 192ZM297 300T296 300T292 298L168 88Q166 83 169 82Q181 76 198 76Q230 76 252 98T279 158L296 297Q297 300 296 300Z" />
<glyph unicode="&#xf9;" glyph-name="ugrave" horiz-adv-x="419" d="M318 509T327 509H401Q411 509 409 499L349 10Q349 6 346 3T339 0H265Q256 0 256 10L260 39Q260 42 259 42T256 40Q221 -7 156 -7Q104 -7 73 22T42 112Q42 121 44 141L88 499Q89 503 92 506T99
509H173Q182 509 182 499L140 162Q139 154 139 141Q139 76 196 76Q228 76 249 100T276 168L316 499Q318 509 327 509ZM289 581Q289 573 280 573H232Q223 573 221 579L163 688L162 692Q162 700 171 700H230Q237 700 241 693L288 585L289 581Z" />
<glyph unicode="&#xfa;" glyph-name="uacute" horiz-adv-x="419" d="M318 509T327 509H401Q411 509 409 499L349 10Q349 6 346 3T339 0H265Q256 0 256 10L260 39Q260 42 259 42T256 40Q221 -7 156 -7Q104 -7 73 22T42 112Q42 121 44 141L88 499Q89 503 92 506T99
509H173Q182 509 182 499L140 162Q139 154 139 141Q139 76 196 76Q228 76 249 100T276 168L316 499Q318 509 327 509ZM210 573T208 576T210 585L283 693Q290 700 296 700H355Q361 700 362 697T360 688L275 579Q271 573 263 573H215Q210 573 208 576Z" />
<glyph unicode="&#xfb;" glyph-name="ucircumflex" horiz-adv-x="419" d="M318 509T327 509H401Q411 509 409 499L349 10Q349 6 346 3T339 0H265Q256 0 256 10L260 39Q260 42 259 42T256 40Q221 -7 156 -7Q104 -7 73 22T42 112Q42 121 44 141L88 499Q89 503 92
506T99 509H173Q182 509 182 499L140 162Q139 154 139 141Q139 76 196 76Q228 76 249 100T276 168L316 499Q318 509 327 509ZM140 577T139 580T141 589L217 693Q222 700 229 700H312Q318 700 323 693L376 589Q377 587 377 584Q377 577 369 577H309Q302 577 299
584L269 652Q268 654 266 654T263 652L217 584Q212 577 205 577H145Q140 577 139 580Z" />
<glyph unicode="&#xfc;" glyph-name="udieresis" horiz-adv-x="419" d="M318 509T327 509H401Q411 509 409 499L349 10Q349 6 346 3T339 0H265Q256 0 256 10L260 39Q260 42 259 42T256 40Q221 -7 156 -7Q104 -7 73 22T42 112Q42 121 44 141L88 499Q89 503 92 506T99
509H173Q182 509 182 499L140 162Q139 154 139 141Q139 76 196 76Q228 76 249 100T276 168L316 499Q318 509 327 509ZM313 589T298 604T283 643Q283 675 303 696T354 717Q378 717 393 702T408 661Q408 630 388 610T338 589Q313 589 298 604ZM156 589T141 604T126
643Q126 675 146 696T197 717Q221 717 236 702T251 661Q251 630 231 610T181 589Q156 589 141 604Z" />
<glyph unicode="&#xfd;" glyph-name="yacute" horiz-adv-x="375" d="M-8 -199T-8 -189L0 -130Q0 -126 3 -123T10 -120Q41 -119 60 -110T93 -76T122 -3L121 2L58 498V500Q58 504 61 506T68 509H148Q157 509 157 500L184 139Q184 136 185 136T188 139L302 500Q305
509 314 509L394 508Q399 508 401 505T401 497L202 -35Q176 -104 153 -137T96 -185T2 -199H-3Q-8 -199 -8 -189ZM191 573T189 576T191 585L264 693Q271 700 277 700H336Q342 700 343 697T341 688L256 579Q252 573 244 573H196Q191 573 189 576Z" />
<glyph unicode="&#xfe;" glyph-name="thorn" horiz-adv-x="414" d="M340 517T369 484T398 391Q398 382 396 358L371 151Q362 78 323 35T220 -8Q191 -8 168 5T131 47Q129 49 128 49T126 45L97 -190Q95 -200 86 -200H12Q2 -200 4 -190L112 690Q114 700 123 700H197Q201
700 203 697T205 690L177 464Q177 461 179 461T183 464Q221 517 285 517Q340 517 369 484ZM303 357T303 366Q303 397 287 415T242 434Q212 434 190 411T164 352L140 157Q139 152 139 143Q139 112 155 94T198 75Q229 75 251 98T278 157L302 352Q303 357 303 366Z"
/>
<glyph unicode="&#xff;" glyph-name="ydieresis" horiz-adv-x="375" d="M-8 -199T-8 -189L0 -130Q0 -126 3 -123T10 -120Q41 -119 60 -110T93 -76T122 -3L121 2L58 498V500Q58 504 61 506T68 509H148Q157 509 157 500L184 139Q184 136 185 136T188 139L302 500Q305
509 314 509L394 508Q399 508 401 505T401 497L202 -35Q176 -104 153 -137T96 -185T2 -199H-3Q-8 -199 -8 -189ZM294 589T279 604T264 643Q264 675 284 696T335 717Q359 717 374 702T389 661Q389 630 369 610T319 589Q294 589 279 604ZM137 589T122 604T107 643Q107
675 127 696T178 717Q202 717 217 702T232 661Q232 630 212 610T162 589Q137 589 122 604Z" />
<glyph unicode="&#x2013;" glyph-name="endash" horiz-adv-x="364" d="M38 242T40 252L47 315Q48 319 51 322T58 325H346Q351 325 353 322T355 315L347 252Q345 242 336 242H48Q38 242 40 252Z" />
<glyph unicode="&#x2014;" glyph-name="emdash" horiz-adv-x="575" d="M38 242T40 252L47 315Q48 319 51 322T58 325H557Q567 325 565 315L558 252Q556 242 547 242H48Q38 242 40 252Z" />
<glyph unicode="&#x2018;" glyph-name="quoteleft" horiz-adv-x="142" d="M41 488T46 499L131 692Q134 700 143 700H197Q202 700 204 697T205 689L139 497Q135 488 127 488H52Q41 488 46 499Z" />
<glyph unicode="&#x2019;" glyph-name="quoteright" horiz-adv-x="142" d="M202 700T203 697T203 689L119 496Q118 492 114 490T106 488H51Q46 488 45 491T45 499L111 691Q115 700 123 700H197Q202 700 203 697Z" />
<glyph unicode="&#x201a;" glyph-name="quotesinglbase" horiz-adv-x="582" d="M10 -86T7 -83T5 -75L61 147Q64 156 72 156H136Q146 156 143 145L69 -77Q66 -86 57 -86H14Q10 -86 7 -83Z" />
<glyph unicode="&#x201c;" glyph-name="quotedblleft" horiz-adv-x="278" d="M41 488T46 499L134 692Q139 700 147 700H199Q211 700 206 689L136 497Q133 488 124 488H52Q41 488 46 499ZM177 488T182 499L268 692Q273 700 281 700H334Q344 700 341 689L272 497Q269
488 260 488H188Q177 488 182 499Z" />
<glyph unicode="&#x201d;" glyph-name="quotedblright" horiz-adv-x="278" d="M209 700T204 689L116 496Q115 492 111 490T104 488H51Q40 488 45 499L114 691Q117 700 126 700H197Q209 700 204 689ZM345 700T340 689L251 496Q246 488 238 488H186Q175 488 180
499L250 691Q252 700 262 700H333Q345 700 340 689Z" />
<glyph unicode="&#x201e;" glyph-name="quotedblbase" horiz-adv-x="269" d="M139 128T134 117L46 -76Q45 -80 41 -82T34 -84H-19Q-30 -84 -25 -73L44 119Q47 128 56 128H127Q139 128 134 117ZM275 128T270 117L181 -76Q176 -84 168 -84H116Q105 -84 110 -73L180
119Q182 128 192 128H263Q275 128 270 117Z" />
<glyph unicode="&#x2022;" glyph-name="bullet" horiz-adv-x="290" d="M100 150T71 180T41 256Q41 292 59 323T108 372T174 390Q218 390 247 361T277 286Q277 250 259 219T210 169T145 150Q100 150 71 180Z" />
<glyph unicode="&#x2039;" glyph-name="guilsinglleft" horiz-adv-x="294" d="M223 117T223 114Q223 107 214 107H146Q140 107 135 114L62 274Q60 278 60 280Q60 285 63 288L176 448Q183 455 189 455H257Q262 455 264 452T262 443L148 284Q147 281 148 278L222
119Q223 117 223 114Z" />
<glyph unicode="&#x203a;" glyph-name="guilsinglright" horiz-adv-x="310" d="M62 107T60 110T62 119L175 278Q176 280 176 284L102 443Q101 445 101 448Q101 455 110 455H178Q184 455 189 448L262 288Q264 284 264 282Q264 277 261 274L148 114Q141 107 135
107H67Q62 107 60 110Z" />
</font>
</defs>
</svg>
