<?xml version="1.0" encoding="UTF-8" standalone="no"?>
<svg
   xmlns:dc="http://purl.org/dc/elements/1.1/"
   xmlns:cc="http://creativecommons.org/ns#"
   xmlns:rdf="http://www.w3.org/1999/02/22-rdf-syntax-ns#"
   xmlns:svg="http://www.w3.org/2000/svg"
   xmlns="http://www.w3.org/2000/svg"
   viewBox="0 0 327.95999 102.84"
   height="102.84"
   width="327.95999"
   xml:space="preserve"
   id="svg2"
   version="1.1"><metadata
     id="metadata8"><rdf:RDF><cc:Work
         rdf:about=""><dc:format>image/svg+xml</dc:format><dc:type
           rdf:resource="http://purl.org/dc/dcmitype/StillImage" /></cc:Work></rdf:RDF></metadata><defs
     id="defs6" /><g
     transform="matrix(1.3333333,0,0,-1.3333333,0,102.84)"
     id="g10"><g
       transform="scale(0.1)"
       id="g12"><path
         id="path14"
         style="fill:#ffffff;fill-opacity:1;fill-rule:nonzero;stroke:none"
         d="m 1915.73,553.574 c 0,0 7.46,-22.051 19.96,-46.23 26.21,1.14 84.5,43.933 96.64,-0.496 0,0 8.3,-11.145 0.73,-37.317 -8.96,-31.035 49.95,-44.902 64.87,-40.808 14.92,4.082 62.55,22.168 22.9,89.949 -6.5,23.281 8.97,37.344 22.01,40.176 13.06,2.832 70.8,12.254 96.83,18.027 4.78,78.496 0.28,96.699 -10.11,113.547 -10.41,16.793 -29.72,26.082 -52,-14.984 -22.27,-41.012 -54.7,8.378 -56.1,10.898 -1.19,2.07 -31.35,61.66 -9.46,84.953 42.55,-0.41 87.59,-4.297 133.31,-15.496 64.74,-15.852 99.07,-55.473 114.93,-81.887 15.84,-26.426 31.72,-58.144 34.35,-89.824 2.65,-31.73 16.87,-51.934 19.08,-65.664 2.21,-13.738 -14.17,-32.332 -8.43,-45.195 5.78,-12.852 9.76,-20.84 16.41,-31.453 6.63,-10.649 21.26,-37.239 26.58,-46.536 5.31,-9.304 15.06,-25.254 10.19,-35.449 -4.88,-10.176 -16.81,-16.387 -29.23,-16.387 -12.4,0 -16.85,-5.753 -16.85,-13.293 0,-7.546 -3.1,-17.285 6.2,-26.152 7.52,-8.863 -8.41,-22.137 -10.63,-22.137 9.3,-6.66 11.97,-14.187 3.55,-23.054 -8.42,-8.852 -17.73,-9.739 -16.4,-27.024 1.33,-17.297 1.77,-44.304 -14.62,-56.277 -16.4,-11.953 -38.98,-17.285 -65.14,-11.516 -26.15,5.762 -40.31,7.09 -54.93,-4.875 -14.64,-11.961 -13.75,-28.347 -24.82,-49.168 -11.08,-20.82 -29.25,-48.2926 -32.36,-59.8239 -3.09,-11.5234 -3.09,-26.5937 11.1,-35.8984 C 2228.47,4.86328 2228.47,0 2228.47,0 l -422.28,0.460938 c 0,0 20.39,49.605462 58.06,78.425762 37.64,28.7813 57.16,45.6253 68.23,64.2383 11.07,18.602 31.48,79.766 16.84,121.395 -14.61,41.652 -35.44,74.457 -63.81,110.343 -28.38,35.891 -38.54,110.301 -31.47,171.028 4.46,38.152 10.21,71.05 23.34,99.734 21.16,2.969 28.9,-59.922 38.35,-92.051" /><path
         id="path16"
         style="fill:#ffffff;fill-opacity:1;fill-rule:nonzero;stroke:none"
         d="M 79.6406,516.941 H 170.984 L 136.34,667.684 H 115.195 Z M 74.2383,716.277 H 178.184 L 251.531,404.895 H 198.438 L 181.34,466.086 H 68.3906 L 53.0859,404.895 H 0 l 74.2383,311.382" /><path
         id="path18"
         style="fill:#ffffff;fill-opacity:1;fill-rule:nonzero;stroke:none"
         d="m 276.289,722.578 h 51.289 V 404.895 h -51.289 v 317.683" /><path
         id="path20"
         style="fill:#ffffff;fill-opacity:1;fill-rule:nonzero;stroke:none"
         d="M 360.43,629.883 H 527.371 V 583.535 L 422.527,451.238 H 527.371 V 404.895 H 360.43 v 46.343 L 465.723,583.535 H 360.43 v 46.348" /><path
         id="path22"
         style="fill:#ffffff;fill-opacity:1;fill-rule:nonzero;stroke:none"
         d="m 561.582,404.895 v 317.683 h 51.289 V 621.785 c 0,0 35.559,13.051 60.305,13.051 62.547,0 78.289,-36.898 78.289,-112.055 V 404.895 h -51.738 v 117.441 c 0,42.305 -4.954,64.352 -36.446,64.352 -20.254,0 -50.41,-7.657 -50.41,-7.657 V 404.895 h -51.289" /><path
         id="path24"
         style="fill:#ffffff;fill-opacity:1;fill-rule:nonzero;stroke:none"
         d="m 920.676,535.383 c 0,39.16 -13.059,53.551 -45,53.551 -31.946,0 -45.903,-16.2 -45.903,-53.551 z m 42.293,-84.594 0.898,-40.047 c 0,0 -51.289,-10.801 -91.347,-10.801 -67.95,0 -94.493,35.555 -94.493,114.747 0,81.906 35.098,120.148 97.649,120.148 63.894,0 95.847,-32.856 95.847,-102.602 l -3.601,-36.89 H 829.773 c 0.454,-32.856 13.957,-48.598 50.403,-48.598 35.547,0 82.793,4.043 82.793,4.043" /><path
         id="path26"
         style="fill:#ffffff;fill-opacity:1;fill-rule:nonzero;stroke:none"
         d="m 997.617,629.434 h 51.313 V 404.895 h -51.313 z m 0,90.898 h 51.313 v -54.441 h -51.313 v 54.441" /><path
         id="path28"
         style="fill:#ffffff;fill-opacity:1;fill-rule:nonzero;stroke:none"
         d="m 1085.37,404.895 v 224.539 h 50.84 v -12.149 c 0,0 18.91,10.344 39.16,13.953 8.1,1.797 16.64,3.149 23.4,3.149 22.95,-0.903 39.14,-7.207 50.39,-18.91 19.8,7.66 51.75,19.359 78.3,19.359 61.19,0 78.3,-33.75 78.3,-112.5 V 404.895 h -51.31 v 97.195 c 0,60.754 -0.9,84.598 -36.89,84.598 -22.05,0 -48.6,-10.797 -49.04,-11.25 1.34,-3.153 3.14,-33.297 3.14,-54.004 V 404.895 h -51.3 v 115.64 c 0,47.695 -4.5,66.153 -36.89,66.153 -19.8,0 -46.81,-10.348 -46.81,-10.348 V 404.895 h -51.29" /><path
         id="path30"
         style="fill:#ffffff;fill-opacity:1;fill-rule:nonzero;stroke:none"
         d="m 1573.16,535.383 c 0,39.16 -13.04,53.551 -45,53.551 -31.95,0 -45.89,-16.2 -45.89,-53.551 z m 42.3,-84.594 0.91,-40.047 c 0,0 -51.31,-10.801 -91.35,-10.801 -67.95,0 -94.5,35.555 -94.5,114.747 0,81.906 35.1,120.148 97.64,120.148 63.9,0 95.84,-32.856 95.84,-102.602 l -3.59,-36.89 h -138.14 c 0.44,-32.856 13.94,-48.598 50.4,-48.598 35.54,0 82.79,4.043 82.79,4.043" /><path
         id="path32"
         style="fill:#ffffff;fill-opacity:1;fill-rule:nonzero;stroke:none"
         d="m 1647.86,629.434 h 51.3 v -23.848 c 0,0 29.7,22.043 67.95,29.25 v -54.902 c -40.51,-8.098 -67.95,-23.403 -67.95,-23.403 V 404.895 h -51.3 v 224.539" /><path
         id="path34"
         style="fill:#ffffff;fill-opacity:1;fill-rule:nonzero;stroke:none"
         d="M 556.035,24.8828 H 504.746 V 203.086 h -25.652 v 46.348 h 25.652 v 13.945 c 0,64.797 16.192,83.699 63.887,83.699 14.863,0 49.055,-4.949 49.055,-4.949 l -0.454,-42.293 c 0,0 -21.589,0.894 -35.546,0.894 -19.793,0 -25.653,-9.003 -25.653,-37.8 v -13.496 h 58.047 V 203.086 H 556.035 V 24.8828" /><path
         id="path36"
         style="fill:#ffffff;fill-opacity:1;fill-rule:nonzero;stroke:none"
         d="m 777.891,138.293 c 0,47.242 -12.149,69.742 -48.606,69.742 -38.25,0 -49.051,-21.601 -49.051,-69.742 0,-48.6055 9.004,-72.0039 49.051,-72.0039 40.051,0 48.606,24.2968 48.606,72.0039 z m 52.187,0 c 0,-72.4532 -23.398,-118.3516 -100.793,-118.3516 -77.39,0 -101.238,45 -101.238,118.3516 0,71.988 25.195,116.543 101.238,116.543 74.699,0 100.793,-45 100.793,-116.543" /><path
         id="path38"
         style="fill:#ffffff;fill-opacity:1;fill-rule:nonzero;stroke:none"
         d="M 856.641,24.8828 V 249.434 h 51.289 v -13.496 c 0,0 31.953,18.898 60.3,18.898 62.55,0 78.29,-36.898 78.29,-112.5 V 24.8828 H 995.234 V 143.691 c 0,42.743 -5.398,64.793 -38.703,64.793 -25.203,0 -48.601,-10.8 -48.601,-10.8 V 24.8828 h -51.289" /><path
         id="path40"
         style="fill:#ffffff;fill-opacity:1;fill-rule:nonzero;stroke:none"
         d="M 1217.07,77.5391 V 203.984 c -2.25,0 -27.89,4.051 -46.8,4.051 -31.04,0 -45,-20.254 -45,-69.742 0,-54.4532 13.96,-69.7461 41.41,-70.6563 22.05,0.4492 50.39,9.9024 50.39,9.9024 z m 51.76,-52.6563 h -51.76 v 10.8086 c 0,0 -31.94,-15.75 -58.5,-15.75 -59.84,0 -85.48,33.75 -85.48,118.7966 0,80.547 29.69,116.098 93.59,116.098 17.55,0 48.14,-5.402 50.39,-5.852 v 90.887 h 51.76 V 24.8828" /><path
         id="path42"
         style="fill:#ffffff;fill-opacity:1;fill-rule:nonzero;stroke:none"
         d="m 1438.03,155.391 c 0,39.14 -13.06,53.543 -45,53.543 -31.96,0 -45.9,-16.2 -45.9,-53.543 z m 42.28,-84.598 0.91,-40.0508 c 0,0 -51.3,-10.8008 -91.35,-10.8008 -67.95,0 -94.5,35.5469 -94.5,114.7466 0,81.894 35.1,120.148 97.66,120.148 63.88,0 95.84,-32.856 95.84,-102.602 l -3.6,-36.89 h -138.14 c 0.45,-32.8557 13.94,-48.6057 50.39,-48.6057 35.55,0 82.79,4.0547 82.79,4.0547" /><path
         id="path44"
         style="fill:#ffffff;fill-opacity:1;fill-rule:nonzero;stroke:none"
         d="M 1514.98,24.8828 V 249.434 h 51.29 v -13.496 c 0,0 31.95,18.898 60.29,18.898 62.56,0 78.3,-36.898 78.3,-112.5 V 24.8828 h -51.29 V 143.691 c 0,42.743 -5.41,64.793 -38.71,64.793 -25.19,0 -48.59,-10.8 -48.59,-10.8 V 24.8828 h -51.29" /></g></g></svg>