<svg xmlns="http://www.w3.org/2000/svg" xmlns:xlink="http://www.w3.org/1999/xlink" viewBox="0 0 760 330"><defs><style>.cls-1{fill:#fdda39;}.cls-2{fill:#c670d0;}.cls-3{fill:#fff;}.cls-4{fill:#fdd93a;}.cls-5{fill:#fcd93b;}.cls-6{fill:#fcd83c;}.cls-7{fill:#fcd73d;}.cls-8{fill:#fbd63e;}.cls-9{fill:#fbd63f;}.cls-10{fill:#fad540;}.cls-11{fill:#fad441;}.cls-12{fill:#fad442;}.cls-13{fill:#f9d343;}.cls-14{fill:#f9d244;}.cls-15{fill:#f9d245;}.cls-16{fill:#f8d146;}.cls-17{fill:#f8d047;}.cls-18{fill:#f8cf48;}.cls-19{fill:#f7cf49;}.cls-20{fill:#f7ce4a;}.cls-21{fill:#f6cd4b;}.cls-22{fill:#f6cd4c;}.cls-23{fill:#f6cc4d;}.cls-24{fill:#f5cb4e;}.cls-25{fill:#f5cb4f;}.cls-26{fill:#f5ca50;}.cls-27{fill:#f4c951;}.cls-28{fill:#f4c852;}.cls-29{fill:#f4c853;}.cls-30{fill:#f3c754;}.cls-31{fill:#f3c655;}.cls-32{fill:#f2c656;}.cls-33{fill:#f2c557;}.cls-34{fill:#f2c458;}.cls-35{fill:#f1c459;}.cls-36{fill:#f1c35a;}.cls-37{fill:#f1c25b;}.cls-38{fill:#f0c15c;}.cls-39{fill:#f0c15d;}.cls-40{fill:#f0c05e;}.cls-41{fill:#efbf5f;}.cls-42{fill:#efbf60;}.cls-43{fill:#eebe61;}.cls-44{fill:#eebd62;}.cls-45{fill:#eebd63;}.cls-46{fill:#edbc64;}.cls-47{fill:#edbb65;}.cls-48{fill:#edba66;}.cls-49{fill:#ecba67;}.cls-50{fill:#ecb968;}.cls-51{fill:#ecb869;}.cls-52{fill:#ebb86a;}.cls-53{fill:#ebb76b;}.cls-54{fill:#eab66c;}.cls-55{fill:#eab56d;}.cls-56{fill:#eab56e;}.cls-57{fill:#e9b46f;}.cls-58{fill:#e9b370;}.cls-59{fill:#e9b371;}.cls-60{fill:#e8b272;}.cls-61{fill:#e8b173;}.cls-62{fill:#e8b174;}.cls-63{fill:#e7b075;}.cls-64{fill:#e7af76;}.cls-65{fill:#e6ae77;}.cls-66{fill:#e6ae78;}.cls-67{fill:#e6ad79;}.cls-68{fill:#e5ac7a;}.cls-69{fill:#e5ac7b;}.cls-70{fill:#e5ab7c;}.cls-71{fill:#e4aa7d;}.cls-72{fill:#e4aa7e;}.cls-73{fill:#e4a97f;}.cls-74{fill:#e3a880;}.cls-75{fill:#e3a781;}.cls-76{fill:#e2a782;}.cls-77{fill:#e2a683;}.cls-78{fill:#e2a584;}.cls-79{fill:#e1a585;}.cls-80{fill:#e1a486;}.cls-81{fill:#e1a387;}.cls-82{fill:#e0a388;}.cls-83{fill:#e0a289;}.cls-84{fill:#dfa18a;}.cls-85{fill:#dfa08b;}.cls-86{fill:#dfa08c;}.cls-87{fill:#de9f8d;}.cls-88{fill:#de9e8e;}.cls-89{fill:#de9e8f;}.cls-90{fill:#dd9d90;}.cls-91{fill:#dd9c91;}.cls-92{fill:#dd9c92;}.cls-93{fill:#dc9b93;}.cls-94{fill:#dc9a94;}.cls-95{fill:#db9995;}.cls-96{fill:#db9996;}.cls-97{fill:#db9897;}.cls-98{fill:#da9798;}.cls-99{fill:#da9799;}.cls-100{fill:#da969a;}.cls-101{fill:#d9959b;}.cls-102{fill:#d9959c;}.cls-103{fill:#d9949d;}.cls-104{fill:#d8939e;}.cls-105{fill:#d8929f;}.cls-106{fill:#d792a0;}.cls-107{fill:#d791a1;}.cls-108{fill:#d790a2;}.cls-109{fill:#d690a3;}.cls-110{fill:#d68fa4;}.cls-111{fill:#d68ea5;}.cls-112{fill:#d58da6;}.cls-113{fill:#d58da7;}.cls-114{fill:#d58ca8;}.cls-115{fill:#d48ba9;}.cls-116{fill:#d48baa;}.cls-117{fill:#d38aab;}.cls-118{fill:#d389ac;}.cls-119{fill:#d389ad;}.cls-120{fill:#d288ae;}.cls-121{fill:#d287af;}.cls-122{fill:#d286b0;}.cls-123{fill:#d186b1;}.cls-124{fill:#d185b2;}.cls-125{fill:#d184b3;}.cls-126{fill:#d084b4;}.cls-127{fill:#d083b5;}.cls-128{fill:#cf82b6;}.cls-129{fill:#cf82b7;}.cls-130{fill:#cf81b8;}.cls-131{fill:#ce80b9;}.cls-132{fill:#ce7fba;}.cls-133{fill:#ce7fbb;}.cls-134{fill:#cd7ebc;}.cls-135{fill:#cd7dbd;}.cls-136{fill:#cd7dbe;}.cls-137{fill:#cc7cbf;}.cls-138{fill:#cc7bc0;}.cls-139{fill:#cb7bc1;}.cls-140{fill:#cb7ac2;}.cls-141{fill:#cb79c3;}.cls-142{fill:#ca78c4;}.cls-143{fill:#ca78c5;}.cls-144{fill:#ca77c6;}.cls-145{fill:#c976c7;}.cls-146{fill:#c976c8;}.cls-147{fill:#c975c9;}.cls-148{fill:#c874ca;}.cls-149{fill:#c874cb;}.cls-150{fill:#c773cc;}.cls-151{fill:#c772cd;}.cls-152{fill:#c771ce;}.cls-153{fill:#c671cf;}.cls-154{fill:#562e6d;}.cls-155{fill:#a75cbc;}.cls-156{fill:#7a4683;}.cls-157{fill:#fff073;}.cls-158{fill:#fffb66;}.cls-159{fill:url(#Dégradé_sans_nom_2);}.cls-160{fill:url(#Dégradé_sans_nom_2-2);}.cls-161{fill:url(#Dégradé_sans_nom_2-3);}.cls-162{fill:url(#Dégradé_sans_nom_2-4);}.cls-163{fill:url(#Dégradé_sans_nom_2-5);}.cls-164{fill:url(#Dégradé_sans_nom_2-6);}</style><linearGradient id="Dégradé_sans_nom_2" x1="572.78" y1="298.01" x2="572.78" y2="273.97" gradientUnits="userSpaceOnUse"><stop offset="0" stop-color="#fdda39"/><stop offset="0" stop-color="#fd9f3b"/><stop offset="0.28" stop-color="#fec34c"/><stop offset="0.57" stop-color="#fee25a"/><stop offset="0.82" stop-color="#fff463"/><stop offset="1" stop-color="#fffb66"/></linearGradient><linearGradient id="Dégradé_sans_nom_2-2" x1="185.01" y1="298.89" x2="185.01" y2="274.94" xlink:href="#Dégradé_sans_nom_2"/><linearGradient id="Dégradé_sans_nom_2-3" x1="254.86" y1="298.89" x2="254.86" y2="266.67" xlink:href="#Dégradé_sans_nom_2"/><linearGradient id="Dégradé_sans_nom_2-4" x1="338.06" y1="298.01" x2="338.06" y2="263.48" xlink:href="#Dégradé_sans_nom_2"/><linearGradient id="Dégradé_sans_nom_2-5" x1="428.53" y1="298.01" x2="428.53" y2="263.51" xlink:href="#Dégradé_sans_nom_2"/><linearGradient id="Dégradé_sans_nom_2-6" x1="505.89" y1="298.01" x2="505.89" y2="267.1" xlink:href="#Dégradé_sans_nom_2"/></defs><title>esa-big-logo-2-summer</title><g id="Calque_2" data-name="Calque 2"><path class="cls-1" d="M200.13,220.85l0,0h0l51-24a129.37,129.37,0,0,0,4.31,26.73Z"/><path class="cls-1" d="M258.25,146.22a128.4,128.4,0,0,0-6.39,27.24L200.13,149h0Z"/><path class="cls-1" d="M284,102.9l-.37.41a129.77,129.77,0,0,0-16.35,23L227.61,82.7h0l0,0,55.6,20Z"/><path class="cls-1" d="M323.52,72.9l-1.21.6a130.29,130.29,0,0,0-22.8,14.66l-.74.6-.44-1.23L278.38,31.92l0,0,0,0,43.74,39.72Z"/><path class="cls-1" d="M371,60.05l-1.74.13a129.51,129.51,0,0,0-26,5l-1.5.46.1-2.16,2.85-59v0L370,57.87Z"/><path class="cls-1" d="M419.49,65.61l-1.5-.46a129.51,129.51,0,0,0-26-5l-1.74-.13,1-2.18L416.52,4.44v0l2.85,59Z"/><path class="cls-1" d="M482.88,31.92,462.93,87.53l-.44,1.23-.74-.6A130.29,130.29,0,0,0,439,73.5l-1.21-.6,1.39-1.27,43.74-39.72,0,0Z"/><path class="cls-1" d="M533.65,82.7,494,126.34a129.77,129.77,0,0,0-16.35-23l-.37-.41.73-.26,55.6-20,0,0Z"/><path class="cls-1" d="M561.09,220.83l0,0-55.27,2.67a129.37,129.37,0,0,0,4.31-26.73l51,24Z"/><path class="cls-1" d="M561.09,149h0L509.4,173.46A128.4,128.4,0,0,0,503,146.22L561.13,149Z"/><polygon class="cls-2" points="306.25 260.27 304.57 259.57 306.79 258.77 306.25 260.27"/><path class="cls-2" d="M250.88,189.44q0,2.75.12,5.46l-35.56-10,36.26-10.16A131.35,131.35,0,0,0,250.88,189.44Z"/><path class="cls-2" d="M262.86,244,228,248.15l28.11-22.07A128,128,0,0,0,262.86,244Z"/><path class="cls-2" d="M267.19,126.42a128.24,128.24,0,0,0-8.73,19.22L228,121.72Z"/><path class="cls-2" d="M299.51,88.16l-.74.6A131.16,131.16,0,0,0,284,102.9l-.37.41-.36-.67L263.83,68.13l34.5,19.4Z"/><path class="cls-2" d="M343.27,65.15l-1.5.46a128.57,128.57,0,0,0-18.25,7.29l-1.21.6-.18-1.87-4.71-39.31,24.45,31.13Z"/><path class="cls-2" d="M392,60.18l-1.74-.13q-4.77-.36-9.65-.36t-9.65.36l-1.74.13.71-2.31,10.68-38.12,10.68,38.12Z"/><path class="cls-2" d="M443.84,32.32l-4.71,39.31L439,73.5l-1.21-.6a128.57,128.57,0,0,0-18.25-7.29l-1.5-.46,1.4-1.7Z"/><path class="cls-2" d="M497.43,68.13,478,102.64l-.36.67-.37-.41a131.16,131.16,0,0,0-14.82-14.14l-.74-.6,1.18-.63Z"/><path class="cls-2" d="M533.24,121.72,502.8,145.64a128.24,128.24,0,0,0-8.73-19.22Z"/><path class="cls-2" d="M533.24,248.15,498.4,244a128,128,0,0,0,6.73-17.89Z"/><path class="cls-2" d="M510.26,194.9q.12-2.72.12-5.46a131.35,131.35,0,0,0-.82-14.66l36.26,10.16Z"/><polygon class="cls-1" points="300.38 257.83 304.57 259.57 283.22 267.24 288.22 257.83 300.38 257.83"/><polygon class="cls-1" points="304.57 259.57 306.79 258.77 306.25 260.27 304.57 259.57"/><path class="cls-1" d="M478,267.24l-21.35-7.66-1.68.7-1.41.58a5.65,5.65,0,0,1-4.35,0l-7.27-3H473Z"/><path class="cls-3" d="M503,146.22l-.9,0,.69-.54Z"/><path class="cls-1" d="M502.8,189.44c0,67.47-54.7,100.17-122.17,100.17s-122.17-32.7-122.17-100.17a122.17,122.17,0,0,1,244.34,0Z"/><path class="cls-4" d="M502.51,189.44c0,67.31-54.57,100-121.88,100s-121.88-32.72-121.88-100a121.88,121.88,0,0,1,243.76,0Z"/><path class="cls-5" d="M502.22,189.44c0,67.15-54.44,99.89-121.59,99.89S259,256.59,259,189.44a121.59,121.59,0,0,1,243.18,0Z"/><path class="cls-6" d="M501.93,189.44c0,67-54.31,99.74-121.3,99.74s-121.3-32.75-121.3-99.74a121.3,121.3,0,0,1,242.6,0Z"/><path class="cls-7" d="M501.64,189.44c0,66.83-54.18,99.6-121,99.6s-121-32.77-121-99.6a121,121,0,0,1,242,0Z"/><path class="cls-8" d="M501.35,189.44c0,66.67-54.05,99.46-120.72,99.46s-120.72-32.79-120.72-99.46a120.72,120.72,0,1,1,241.44,0Z"/><path class="cls-9" d="M501.06,189.44c0,66.51-53.92,99.31-120.43,99.31S260.19,256,260.19,189.44a120.44,120.44,0,1,1,240.87,0Z"/><path class="cls-10" d="M500.77,189.44c0,66.35-53.79,99.17-120.14,99.17s-120.15-32.82-120.15-99.17a120.15,120.15,0,1,1,240.29,0Z"/><path class="cls-11" d="M500.49,189.44c0,66.19-53.67,99-119.86,99s-119.86-32.84-119.86-99a119.86,119.86,0,0,1,239.72,0Z"/><path class="cls-12" d="M500.2,189.44c0,66-53.54,98.89-119.57,98.89s-119.57-32.86-119.57-98.89a119.57,119.57,0,1,1,239.14,0Z"/><path class="cls-13" d="M499.91,189.44c0,65.87-53.4,98.74-119.28,98.74s-119.28-32.87-119.28-98.74a119.28,119.28,0,0,1,238.56,0Z"/><path class="cls-14" d="M499.62,189.44c0,65.71-53.27,98.6-119,98.6s-119-32.89-119-98.6a119,119,0,0,1,238,0Z"/><path class="cls-15" d="M499.33,189.44c0,65.55-53.14,98.46-118.7,98.46S261.93,255,261.93,189.44a118.7,118.7,0,1,1,237.4,0Z"/><path class="cls-16" d="M499,189.44c0,65.4-53,98.31-118.41,98.31s-118.42-32.91-118.42-98.31a118.42,118.42,0,1,1,236.83,0Z"/><path class="cls-17" d="M498.75,189.44c0,65.24-52.88,98.17-118.12,98.17S262.5,254.68,262.5,189.44a118.13,118.13,0,1,1,236.25,0Z"/><path class="cls-18" d="M498.47,189.44c0,65.08-52.76,98-117.84,98s-117.84-33-117.84-98a117.84,117.84,0,0,1,235.68,0Z"/><path class="cls-19" d="M498.18,189.44c0,64.92-52.63,97.88-117.55,97.88s-117.55-33-117.55-97.88a117.55,117.55,0,0,1,235.1,0Z"/><path class="cls-20" d="M497.89,189.44c0,64.76-52.5,97.74-117.26,97.74s-117.26-33-117.26-97.74a117.26,117.26,0,0,1,234.52,0Z"/><path class="cls-21" d="M497.6,189.44c0,64.6-52.37,97.6-117,97.6s-117-33-117-97.6a117,117,0,0,1,233.94,0Z"/><path class="cls-22" d="M497.31,189.44c0,64.44-52.24,97.45-116.68,97.45S264,253.88,264,189.44a116.68,116.68,0,0,1,233.36,0Z"/><path class="cls-23" d="M497,189.44c0,64.28-52.11,97.31-116.39,97.31s-116.39-33-116.39-97.31a116.39,116.39,0,1,1,232.78,0Z"/><path class="cls-24" d="M496.73,189.44c0,64.12-52,97.17-116.1,97.17s-116.11-33.05-116.11-97.17a116.11,116.11,0,1,1,232.21,0Z"/><path class="cls-25" d="M496.45,189.44c0,64-51.86,97-115.82,97s-115.82-33.07-115.82-97a115.82,115.82,0,1,1,231.64,0Z"/><path class="cls-26" d="M496.16,189.44c0,63.8-51.73,96.88-115.53,96.88S265.1,253.24,265.1,189.44a115.53,115.53,0,0,1,231.06,0Z"/><path class="cls-27" d="M495.87,189.44c0,63.64-51.6,96.74-115.24,96.74s-115.24-33.1-115.24-96.74a115.24,115.24,0,0,1,230.48,0Z"/><path class="cls-28" d="M495.58,189.44c0,63.48-51.47,96.6-114.95,96.6s-114.95-33.12-114.95-96.6a114.95,114.95,0,0,1,229.9,0Z"/><path class="cls-29" d="M495.29,189.44c0,63.32-51.34,96.45-114.66,96.45S266,252.76,266,189.44a114.66,114.66,0,0,1,229.32,0Z"/><path class="cls-30" d="M495,189.44c0,63.16-51.2,96.31-114.37,96.31S266.26,252.6,266.26,189.44a114.37,114.37,0,1,1,228.74,0Z"/><path class="cls-31" d="M494.71,189.44c0,63-51.07,96.17-114.08,96.17s-114.09-33.17-114.09-96.17a114.09,114.09,0,1,1,228.17,0Z"/><path class="cls-32" d="M494.42,189.44c0,62.84-50.94,96-113.79,96s-113.8-33.18-113.8-96a113.8,113.8,0,1,1,227.59,0Z"/><path class="cls-33" d="M494.14,189.44c0,62.69-50.82,95.88-113.51,95.88s-113.51-33.19-113.51-95.88a113.51,113.51,0,1,1,227,0Z"/><path class="cls-34" d="M493.85,189.44c0,62.53-50.69,95.74-113.22,95.74S267.41,252,267.41,189.44a113.22,113.22,0,0,1,226.44,0Z"/><path class="cls-35" d="M493.56,189.44c0,62.37-50.56,95.6-112.93,95.6S267.7,251.81,267.7,189.44a112.93,112.93,0,0,1,225.86,0Z"/><path class="cls-36" d="M493.27,189.44c0,62.21-50.43,95.45-112.64,95.45S268,251.65,268,189.44a112.64,112.64,0,0,1,225.28,0Z"/><path class="cls-37" d="M493,189.44c0,62.05-50.3,95.31-112.35,95.31s-112.35-33.26-112.35-95.31a112.35,112.35,0,1,1,224.7,0Z"/><path class="cls-38" d="M492.69,189.44c0,61.89-50.17,95.17-112.06,95.17s-112.06-33.28-112.06-95.17a112.06,112.06,0,1,1,224.12,0Z"/><path class="cls-39" d="M492.4,189.44c0,61.73-50,95-111.77,95s-111.78-33.29-111.78-95a111.78,111.78,0,1,1,223.55,0Z"/><path class="cls-40" d="M492.12,189.44c0,61.57-49.92,94.88-111.49,94.88S269.14,251,269.14,189.44a111.49,111.49,0,0,1,223,0Z"/><path class="cls-41" d="M491.83,189.44c0,61.41-49.79,94.74-111.2,94.74s-111.2-33.33-111.2-94.74a111.2,111.2,0,0,1,222.4,0Z"/><path class="cls-42" d="M491.54,189.44c0,61.25-49.66,94.59-110.91,94.59s-110.91-33.34-110.91-94.59a110.91,110.91,0,0,1,221.82,0Z"/><path class="cls-43" d="M491.25,189.44c0,61.09-49.53,94.45-110.62,94.45S270,250.53,270,189.44a110.62,110.62,0,1,1,221.24,0Z"/><path class="cls-44" d="M491,189.44c0,60.93-49.4,94.31-110.33,94.31S270.3,250.37,270.3,189.44a110.33,110.33,0,0,1,220.66,0Z"/><path class="cls-45" d="M490.67,189.44c0,60.77-49.27,94.17-110,94.17s-110-33.4-110-94.17a110,110,0,1,1,220.08,0Z"/><path class="cls-46" d="M490.38,189.44c0,60.61-49.14,94-109.75,94s-109.76-33.41-109.76-94a109.76,109.76,0,1,1,219.51,0Z"/><path class="cls-47" d="M490.09,189.44c0,60.45-49,93.88-109.46,93.88s-109.47-33.43-109.47-93.88a109.47,109.47,0,1,1,218.93,0Z"/><path class="cls-48" d="M489.81,189.44c0,60.29-48.88,93.74-109.18,93.74s-109.18-33.45-109.18-93.74a109.18,109.18,0,0,1,218.36,0Z"/><path class="cls-49" d="M489.52,189.44c0,60.13-48.75,93.59-108.89,93.59s-108.89-33.46-108.89-93.59a108.89,108.89,0,0,1,217.78,0Z"/><path class="cls-50" d="M489.23,189.44c0,60-48.62,93.45-108.6,93.45S272,249.41,272,189.44a108.6,108.6,0,0,1,217.2,0Z"/><path class="cls-51" d="M488.94,189.44c0,59.82-48.49,93.31-108.31,93.31s-108.31-33.49-108.31-93.31a108.31,108.31,0,1,1,216.62,0Z"/><path class="cls-52" d="M488.65,189.44c0,59.66-48.36,93.16-108,93.16s-108-33.5-108-93.16a108,108,0,1,1,216,0Z"/><path class="cls-53" d="M488.36,189.44c0,59.5-48.23,93-107.73,93s-107.73-33.52-107.73-93a107.73,107.73,0,1,1,215.46,0Z"/><path class="cls-54" d="M488.07,189.44c0,59.34-48.1,92.88-107.44,92.88s-107.45-33.54-107.45-92.88a107.45,107.45,0,1,1,214.89,0Z"/><path class="cls-55" d="M487.79,189.44c0,59.18-48,92.74-107.16,92.74s-107.16-33.56-107.16-92.74a107.16,107.16,0,0,1,214.32,0Z"/><path class="cls-56" d="M487.5,189.44c0,59-47.85,92.59-106.87,92.59s-106.87-33.57-106.87-92.59a106.87,106.87,0,1,1,213.74,0Z"/><path class="cls-57" d="M487.21,189.44c0,58.86-47.72,92.45-106.58,92.45S274.05,248.3,274.05,189.44a106.58,106.58,0,0,1,213.16,0Z"/><path class="cls-58" d="M486.92,189.44c0,58.7-47.59,92.31-106.29,92.31s-106.29-33.61-106.29-92.31a106.29,106.29,0,0,1,212.58,0Z"/><path class="cls-59" d="M486.63,189.44c0,58.54-47.46,92.16-106,92.16s-106-33.62-106-92.16a106,106,0,1,1,212,0Z"/><path class="cls-60" d="M486.34,189.44c0,58.38-47.33,92-105.71,92s-105.71-33.64-105.71-92a105.71,105.71,0,1,1,211.42,0Z"/><path class="cls-61" d="M486.05,189.44c0,58.22-47.2,91.88-105.42,91.88S275.2,247.66,275.2,189.44a105.43,105.43,0,1,1,210.85,0Z"/><path class="cls-62" d="M485.76,189.44c0,58.06-47.07,91.73-105.13,91.73S275.49,247.5,275.49,189.44a105.14,105.14,0,1,1,210.27,0Z"/><path class="cls-63" d="M485.48,189.44c0,57.9-47,91.59-104.85,91.59s-104.85-33.69-104.85-91.59a104.85,104.85,0,0,1,209.7,0Z"/><path class="cls-64" d="M485.19,189.44c0,57.74-46.82,91.45-104.56,91.45s-104.56-33.71-104.56-91.45a104.56,104.56,0,1,1,209.12,0Z"/><path class="cls-65" d="M484.9,189.44c0,57.58-46.68,91.3-104.27,91.3S276.36,247,276.36,189.44a104.27,104.27,0,0,1,208.54,0Z"/><path class="cls-66" d="M484.61,189.44c0,57.42-46.55,91.16-104,91.16s-104-33.74-104-91.16a104,104,0,0,1,208,0Z"/><path class="cls-67" d="M484.32,189.44c0,57.26-46.42,91-103.69,91s-103.69-33.76-103.69-91a103.69,103.69,0,1,1,207.38,0Z"/><path class="cls-68" d="M484,189.44c0,57.11-46.29,90.88-103.4,90.88s-103.4-33.77-103.4-90.88a103.4,103.4,0,1,1,206.8,0Z"/><path class="cls-69" d="M483.74,189.44c0,56.95-46.16,90.73-103.11,90.73s-103.12-33.78-103.12-90.73a103.12,103.12,0,1,1,206.23,0Z"/><path class="cls-70" d="M483.46,189.44c0,56.79-46,90.59-102.83,90.59S277.8,246.23,277.8,189.44a102.83,102.83,0,0,1,205.66,0Z"/><path class="cls-71" d="M483.17,189.44c0,56.63-45.91,90.45-102.54,90.45s-102.54-33.82-102.54-90.45a102.54,102.54,0,0,1,205.08,0Z"/><path class="cls-72" d="M482.88,189.44c0,56.47-45.78,90.3-102.25,90.3s-102.25-33.83-102.25-90.3a102.25,102.25,0,1,1,204.5,0Z"/><path class="cls-73" d="M482.59,189.44c0,56.31-45.65,90.16-102,90.16s-102-33.85-102-90.16a102,102,0,0,1,203.92,0Z"/><path class="cls-74" d="M482.3,189.44c0,56.15-45.52,90-101.67,90S279,245.59,279,189.44a101.67,101.67,0,0,1,203.34,0Z"/><path class="cls-75" d="M482,189.44c0,56-45.39,89.87-101.38,89.87s-101.38-33.88-101.38-89.87a101.38,101.38,0,1,1,202.76,0Z"/><path class="cls-76" d="M481.72,189.44c0,55.83-45.26,89.73-101.09,89.73s-101.1-33.9-101.1-89.73a101.1,101.1,0,1,1,202.19,0Z"/><path class="cls-77" d="M481.43,189.44c0,55.67-45.13,89.59-100.8,89.59s-100.81-33.92-100.81-89.59a100.81,100.81,0,1,1,201.61,0Z"/><path class="cls-78" d="M481.15,189.44c0,55.51-45,89.45-100.52,89.45S280.11,245,280.11,189.44a100.52,100.52,0,0,1,201,0Z"/><path class="cls-79" d="M480.86,189.44c0,55.35-44.88,89.3-100.23,89.3s-100.23-34-100.23-89.3a100.23,100.23,0,0,1,200.46,0Z"/><path class="cls-80" d="M480.57,189.44c0,55.19-44.75,89.16-99.94,89.16s-99.94-34-99.94-89.16a99.94,99.94,0,0,1,199.88,0Z"/><path class="cls-81" d="M480.28,189.44c0,55-44.62,89-99.65,89s-99.65-34-99.65-89a99.65,99.65,0,0,1,199.3,0Z"/><path class="cls-82" d="M480,189.44c0,54.87-44.48,88.87-99.36,88.87s-99.36-34-99.36-88.87a99.36,99.36,0,1,1,198.72,0Z"/><path class="cls-83" d="M479.7,189.44c0,54.71-44.35,88.73-99.07,88.73s-99.07-34-99.07-88.73a99.07,99.07,0,1,1,198.14,0Z"/><path class="cls-84" d="M479.41,189.44c0,54.55-44.22,88.59-98.78,88.59s-98.79-34-98.79-88.59a98.79,98.79,0,1,1,197.57,0Z"/><path class="cls-85" d="M479.13,189.44c0,54.4-44.1,88.44-98.5,88.44s-98.5-34-98.5-88.44a98.5,98.5,0,1,1,197,0Z"/><path class="cls-86" d="M478.84,189.44c0,54.24-44,88.3-98.21,88.3s-98.21-34.06-98.21-88.3a98.21,98.21,0,0,1,196.42,0Z"/><path class="cls-87" d="M478.55,189.44c0,54.08-43.84,88.16-97.92,88.16s-97.92-34.08-97.92-88.16a97.92,97.92,0,0,1,195.84,0Z"/><path class="cls-88" d="M478.26,189.44c0,53.92-43.71,88-97.63,88s-97.63-34.1-97.63-88a97.63,97.63,0,1,1,195.26,0Z"/><path class="cls-89" d="M478,189.44c0,53.76-43.58,87.87-97.34,87.87s-97.34-34.11-97.34-87.87a97.34,97.34,0,0,1,194.68,0Z"/><path class="cls-90" d="M477.68,189.44c0,53.6-43.45,87.73-97.05,87.73S283.58,243,283.58,189.44a97.05,97.05,0,1,1,194.1,0Z"/><path class="cls-91" d="M477.39,189.44c0,53.44-43.32,87.59-96.76,87.59s-96.77-34.15-96.77-87.59a96.77,96.77,0,1,1,193.53,0Z"/><path class="cls-92" d="M477.1,189.44c0,53.28-43.19,87.44-96.47,87.44s-96.48-34.16-96.48-87.44a96.48,96.48,0,1,1,193,0Z"/><path class="cls-93" d="M476.82,189.44c0,53.12-43.07,87.3-96.19,87.3s-96.19-34.18-96.19-87.3a96.19,96.19,0,0,1,192.38,0Z"/><path class="cls-94" d="M476.53,189.44c0,53-42.94,87.16-95.9,87.16s-95.9-34.2-95.9-87.16a95.9,95.9,0,0,1,191.8,0Z"/><path class="cls-95" d="M476.24,189.44c0,52.8-42.81,87-95.61,87S285,242.24,285,189.44a95.61,95.61,0,0,1,191.22,0Z"/><path class="cls-96" d="M476,189.44c0,52.64-42.68,86.87-95.32,86.87s-95.32-34.23-95.32-86.87a95.32,95.32,0,1,1,190.64,0Z"/><path class="cls-97" d="M475.66,189.44c0,52.48-42.55,86.73-95,86.73s-95-34.25-95-86.73a95,95,0,1,1,190.06,0Z"/><path class="cls-98" d="M475.37,189.44c0,52.32-42.42,86.58-94.74,86.58s-94.74-34.26-94.74-86.58a94.74,94.74,0,1,1,189.48,0Z"/><path class="cls-99" d="M475.08,189.44c0,52.16-42.29,86.44-94.45,86.44s-94.46-34.28-94.46-86.44a94.46,94.46,0,1,1,188.91,0Z"/><path class="cls-100" d="M474.8,189.44c0,52-42.16,86.3-94.17,86.3s-94.17-34.3-94.17-86.3a94.17,94.17,0,0,1,188.34,0Z"/><path class="cls-101" d="M474.51,189.44c0,51.84-42,86.16-93.88,86.16s-93.88-34.32-93.88-86.16a93.88,93.88,0,1,1,187.76,0Z"/><path class="cls-102" d="M474.22,189.44c0,51.68-41.9,86-93.59,86S287,241.12,287,189.44a93.59,93.59,0,0,1,187.18,0Z"/><path class="cls-103" d="M473.93,189.44c0,51.53-41.77,85.87-93.3,85.87s-93.3-34.34-93.3-85.87a93.3,93.3,0,0,1,186.6,0Z"/><path class="cls-104" d="M473.64,189.44c0,51.37-41.64,85.73-93,85.73s-93-34.36-93-85.73a93,93,0,1,1,186,0Z"/><path class="cls-105" d="M473.35,189.44c0,51.21-41.51,85.58-92.72,85.58s-92.72-34.37-92.72-85.58a92.72,92.72,0,1,1,185.44,0Z"/><path class="cls-106" d="M473.06,189.44c0,51.05-41.38,85.44-92.43,85.44s-92.44-34.39-92.44-85.44a92.44,92.44,0,1,1,184.87,0Z"/><path class="cls-107" d="M472.77,189.44c0,50.89-41.25,85.3-92.14,85.3s-92.15-34.41-92.15-85.3a92.15,92.15,0,1,1,184.29,0Z"/><path class="cls-108" d="M472.49,189.44c0,50.73-41.13,85.15-91.86,85.15s-91.86-34.42-91.86-85.15a91.86,91.86,0,0,1,183.72,0Z"/><path class="cls-109" d="M472.2,189.44c0,50.57-41,85-91.57,85s-91.57-34.44-91.57-85a91.57,91.57,0,1,1,183.14,0Z"/><path class="cls-110" d="M471.91,189.44c0,50.41-40.87,84.87-91.28,84.87s-91.28-34.46-91.28-84.87a91.28,91.28,0,0,1,182.56,0Z"/><path class="cls-111" d="M471.62,189.44c0,50.25-40.74,84.73-91,84.73s-91-34.48-91-84.73a91,91,0,0,1,182,0Z"/><path class="cls-112" d="M471.33,189.44c0,50.09-40.61,84.58-90.7,84.58s-90.7-34.49-90.7-84.58a90.7,90.7,0,1,1,181.4,0Z"/><path class="cls-113" d="M471,189.44c0,49.93-40.48,84.44-90.41,84.44s-90.41-34.51-90.41-84.44a90.41,90.41,0,1,1,180.82,0Z"/><path class="cls-114" d="M470.75,189.44c0,49.77-40.35,84.3-90.12,84.3s-90.13-34.53-90.13-84.3a90.13,90.13,0,1,1,180.25,0Z"/><path class="cls-115" d="M470.47,189.44c0,49.61-40.23,84.15-89.84,84.15s-89.84-34.54-89.84-84.15a89.84,89.84,0,0,1,179.68,0Z"/><path class="cls-116" d="M470.18,189.44c0,49.45-40.1,84-89.55,84s-89.55-34.56-89.55-84a89.55,89.55,0,0,1,179.1,0Z"/><path class="cls-117" d="M469.89,189.44c0,49.29-40,83.87-89.26,83.87s-89.26-34.58-89.26-83.87a89.26,89.26,0,1,1,178.52,0Z"/><path class="cls-118" d="M469.6,189.44c0,49.13-39.83,83.72-89,83.72s-89-34.59-89-83.72a89,89,0,0,1,177.94,0Z"/><path class="cls-119" d="M469.31,189.44c0,49-39.7,83.58-88.68,83.58S292,238.41,292,189.44a88.68,88.68,0,0,1,177.36,0Z"/><path class="cls-120" d="M469,189.44c0,48.82-39.57,83.44-88.39,83.44s-88.39-34.62-88.39-83.44a88.39,88.39,0,1,1,176.78,0Z"/><path class="cls-121" d="M468.73,189.44c0,48.66-39.44,83.3-88.1,83.3s-88.11-34.64-88.11-83.3a88.11,88.11,0,1,1,176.21,0Z"/><path class="cls-122" d="M468.44,189.44c0,48.5-39.31,83.15-87.81,83.15s-87.82-34.65-87.82-83.15a87.82,87.82,0,1,1,175.63,0Z"/><path class="cls-123" d="M468.16,189.44c0,48.34-39.19,83-87.53,83s-87.53-34.67-87.53-83a87.53,87.53,0,0,1,175.06,0Z"/><path class="cls-124" d="M467.87,189.44c0,48.18-39.06,82.87-87.24,82.87s-87.24-34.69-87.24-82.87a87.24,87.24,0,0,1,174.48,0Z"/><path class="cls-125" d="M467.58,189.44c0,48-38.93,82.72-86.95,82.72s-86.95-34.7-86.95-82.72a86.95,86.95,0,0,1,173.9,0Z"/><path class="cls-126" d="M467.29,189.44c0,47.86-38.8,82.58-86.66,82.58S294,237.3,294,189.44a86.66,86.66,0,0,1,173.32,0Z"/><path class="cls-127" d="M467,189.44c0,47.7-38.67,82.44-86.37,82.44s-86.37-34.74-86.37-82.44a86.37,86.37,0,1,1,172.74,0Z"/><path class="cls-128" d="M466.71,189.44c0,47.54-38.54,82.29-86.08,82.29S294.55,237,294.55,189.44a86.08,86.08,0,1,1,172.16,0Z"/><path class="cls-129" d="M466.42,189.44c0,47.38-38.41,82.15-85.79,82.15s-85.8-34.77-85.8-82.15a85.8,85.8,0,1,1,171.59,0Z"/><path class="cls-130" d="M466.14,189.44c0,47.22-38.29,82-85.51,82s-85.51-34.79-85.51-82a85.51,85.51,0,1,1,171,0Z"/><path class="cls-131" d="M465.85,189.44c0,47.06-38.16,81.87-85.22,81.87s-85.22-34.81-85.22-81.87a85.22,85.22,0,0,1,170.44,0Z"/><path class="cls-132" d="M465.56,189.44c0,46.9-38,81.72-84.93,81.72s-84.93-34.82-84.93-81.72a84.93,84.93,0,0,1,169.86,0Z"/><path class="cls-133" d="M465.27,189.44c0,46.74-37.9,81.58-84.64,81.58S296,236.18,296,189.44a84.64,84.64,0,0,1,169.28,0Z"/><path class="cls-134" d="M465,189.44c0,46.58-37.76,81.44-84.35,81.44S296.28,236,296.28,189.44a84.35,84.35,0,0,1,168.7,0Z"/><path class="cls-135" d="M464.69,189.44c0,46.42-37.63,81.29-84.06,81.29s-84.06-34.87-84.06-81.29a84.06,84.06,0,1,1,168.12,0Z"/><path class="cls-136" d="M464.4,189.44c0,46.26-37.5,81.15-83.77,81.15s-83.78-34.89-83.78-81.15a83.78,83.78,0,1,1,167.55,0Z"/><path class="cls-137" d="M464.11,189.44c0,46.1-37.37,81-83.48,81s-83.49-34.91-83.49-81a83.49,83.49,0,1,1,167,0Z"/><path class="cls-138" d="M463.83,189.44c0,45.95-37.25,80.86-83.2,80.86s-83.2-34.91-83.2-80.86a83.2,83.2,0,0,1,166.4,0Z"/><path class="cls-139" d="M463.54,189.44c0,45.79-37.12,80.72-82.91,80.72s-82.91-34.93-82.91-80.72a82.91,82.91,0,0,1,165.82,0Z"/><path class="cls-140" d="M463.25,189.44c0,45.63-37,80.58-82.62,80.58S298,235.07,298,189.44a82.62,82.62,0,1,1,165.24,0Z"/><path class="cls-141" d="M463,189.44c0,45.47-36.86,80.43-82.33,80.43s-82.33-35-82.33-80.43a82.33,82.33,0,1,1,164.66,0Z"/><path class="cls-142" d="M462.67,189.44c0,45.31-36.73,80.29-82,80.29s-82-35-82-80.29a82,82,0,1,1,164.08,0Z"/><path class="cls-143" d="M462.38,189.44c0,45.15-36.6,80.15-81.75,80.15s-81.75-35-81.75-80.15a81.75,81.75,0,1,1,163.5,0Z"/><path class="cls-144" d="M462.09,189.44c0,45-36.47,80-81.46,80s-81.47-35-81.47-80a81.47,81.47,0,1,1,162.93,0Z"/><path class="cls-145" d="M461.81,189.44c0,44.83-36.35,79.86-81.18,79.86s-81.18-35-81.18-79.86a81.18,81.18,0,0,1,162.36,0Z"/><path class="cls-146" d="M461.52,189.44c0,44.67-36.22,79.72-80.89,79.72s-80.89-35.05-80.89-79.72a80.89,80.89,0,0,1,161.78,0Z"/><path class="cls-147" d="M461.23,189.44c0,44.51-36.09,79.58-80.6,79.58S300,234,300,189.44a80.6,80.6,0,0,1,161.2,0Z"/><path class="cls-148" d="M460.94,189.44c0,44.35-36,79.43-80.31,79.43s-80.31-35.08-80.31-79.43a80.31,80.31,0,1,1,160.62,0Z"/><path class="cls-149" d="M460.65,189.44c0,44.19-35.83,79.29-80,79.29s-80-35.1-80-79.29a80,80,0,0,1,160,0Z"/><path class="cls-150" d="M460.36,189.44c0,44-35.7,79.15-79.73,79.15s-79.73-35.12-79.73-79.15a79.73,79.73,0,1,1,159.46,0Z"/><path class="cls-151" d="M460.07,189.44A79.45,79.45,0,1,1,380.63,110,79.07,79.07,0,0,1,460.07,189.44Z"/><path class="cls-152" d="M459.78,189.44a79.16,79.16,0,1,1-79.15-79.16A78.9,78.9,0,0,1,459.78,189.44Z"/><path class="cls-153" d="M459.5,189.44a78.87,78.87,0,1,1-78.87-78.87A78.75,78.75,0,0,1,459.5,189.44Z"/><circle class="cls-2" cx="380.63" cy="189.44" r="78.58"/><path class="cls-154" d="M475.11,117.86l-4.23-1.75-14.08-5.84-1.77-.74-4.42-1.83a5.64,5.64,0,0,0-4.29,0,5.64,5.64,0,0,0-3-3l-7-2.93h0l-20-8.33a5.79,5.79,0,0,0-4.31,0,5.66,5.66,0,0,0-3-3l-8.67-3.6-.05,0-17.32-7.2a5.85,5.85,0,0,0-1.53-.4,5.65,5.65,0,0,0-1.3,0,5.78,5.78,0,0,0-1.52.4l-17.33,7.2-.05,0-36.05,15h0l-18.8,7.8-1.77.74-14.07,5.84-4.23,1.76a5.68,5.68,0,0,0-3.5,5.24v79.84a5.58,5.58,0,0,0,.18,1.42,5.68,5.68,0,0,0,3.31,3.81l.64.26-.63.27a5.65,5.65,0,0,0-3.5,5.23V246.7a5.65,5.65,0,0,0,3.5,5.23l4.27,1.77,10,4.14h29.56l-34.17-14.19-1.78-.74V217.72l1.73-.72,8-3.33a5.62,5.62,0,0,0,3.06-3.07,5.42,5.42,0,0,0,.44-2.16,5.68,5.68,0,0,0-3.5-5.24l-9.74-4V126.88l1.72-.71h0l84.9-35.26,18.64,7.75,1.73.72v2.31a5.47,5.47,0,0,0,.44,2.17h0a5.67,5.67,0,0,0,7.4,3.06l5.19-2.15L433.72,113l1.71.71V116a5.64,5.64,0,0,0,.43,2.17h0a5.66,5.66,0,0,0,7.41,3.06l5.16-2.15,17.09,7.09h0l1.72.71v116l-1.78.74-14.06,5.84L434,242.25V222.59a5.54,5.54,0,0,0-.44-2.17,5.64,5.64,0,0,0-7.41-3.06l-26,10.8a5.67,5.67,0,0,0-3.49,5.24v24.44H408V237.18l14.67-6.09V246a5.68,5.68,0,0,0,3.5,5.24L442,257.84l7.27,3a5.65,5.65,0,0,0,4.35,0l1.41-.58,1.68-.7,4.18-1.74,10-4.14,4.27-1.77a5.65,5.65,0,0,0,3.5-5.23V123.1A5.68,5.68,0,0,0,475.11,117.86ZM306.25,260.28l.54-1.5-2.22.8Z"/><path class="cls-2" d="M472.94,123.09l-92.31,38.34-92.31-38.34,92.31-38.33,26,10.82L336.4,124.76l7.34,3L414,98.63h0l27.08,11.25-70.28,29.18,7.35,3.05,70.28-29.18Z"/><path class="cls-1" d="M406.67,101.68l-62.93,26.13-7.34-3,70.27-29.18Z"/><path class="cls-1" d="M441.1,116l-62.93,26.13-7.35-3.05,70.28-29.18Z"/><path class="cls-155" d="M358.35,232v11l-70-29.08,13.24-5.49Z"/><path class="cls-1" d="M310.23,166.58v11l70.4,29.24v51H315.15l-22.06-9.16-4.77-2V213.93l7.4,3.07,62.63,26V232L306.79,210.6l-5.23-2.17-13.24-5.49V123.1l7.39,3.07h0l84.89,35.25v34.39l-.69-.29-.24-.1-2.83-1.17-.73-.3-4.09-1.7-.75-.31-.27-.11-1.27-.53L362,188.08,359.29,187l-10.67-4.42-2.07-.87-1.45-.6-2.51-1L333,176l-2.48-1-2.83-1.18-4.19-1.74-.1,0-3.18-1.32-3.51-1.45-3.12-1.3Z"/><path class="cls-156" d="M323.45,172.07l-13.22,5.49v-11Z"/><path class="cls-155" d="M380.63,195.81v11l-70.4-29.23h0l13.22-5.49Z"/><path class="cls-157" d="M465.55,126.17h0l-84.89,35.25v96.41h21.68V233.39l26-10.8,5.23-2.17L451.43,213v42.64l16.74-6.95,4.77-2V123.1ZM402.31,197.8V186.94c1-.4,1.94-.81,2.94-1.21l2.81-1.18,12.41-5.15,3.2-1.33,4.83-2,9.62-4,4.56-1.89,1.52-.63,7.23-3V177.4Z"/><path class="cls-156" d="M451.43,166.54V177.4l-13.31-5.33Z"/><path class="cls-155" d="M451.43,177.4l-49.12,20.4V186.94l35.81-14.87Z"/><path class="cls-155" d="M451.43,213v42.63L428.32,246V222.59Z"/><path class="cls-154" d="M611.09,297.21l-9.15-13.11a34,34,0,0,0,9.19-23.73c0-21.66-16-36.78-38.94-36.78h-29a10.57,10.57,0,0,0-6.23,2,10.63,10.63,0,0,0-6.24-2H480.83a10.62,10.62,0,0,0-7.61,3.21,10.58,10.58,0,0,0-7.6-3.21H453.93a10.65,10.65,0,0,0-9.16,5.21l-16,26.93-16-26.93a10.65,10.65,0,0,0-9.16-5.21H391.34a10.65,10.65,0,0,0-8.1,3.74,10.62,10.62,0,0,0-8.1-3.74H363.45a10.65,10.65,0,0,0-9.15,5.21l-16,26.93-16-26.93a10.63,10.63,0,0,0-9.15-5.21H300.87a10.61,10.61,0,0,0-7.17,2.79,10.57,10.57,0,0,0-7.16-2.79H267.77a10.64,10.64,0,0,0-10.64,10.65v39.59c0,3-1,3-2.62,3s-2.32,0-2.32-3V234.24a10.65,10.65,0,0,0-10.65-10.65H222.78a10.65,10.65,0,0,0-9.21,5.31,53.43,53.43,0,0,0-25.76-6.19c-22.24,0-37.76,13.3-37.76,32.35,0,8.87,3,15.18,7.58,19.79-.14.2-.27.41-.4.62l-8.74,14.73a10.66,10.66,0,0,0,2.91,14.06c9.69,7,21.15,10.57,34,10.57,16,0,28-6.36,33.73-17.07,7.2,10.8,19.55,17.07,35.33,17.07,14.88,0,26.73-5.5,34.13-15.06l-.08,3.27A10.64,10.64,0,0,0,299.2,314h18.37a10.67,10.67,0,0,0,9.87-6.64,10.6,10.6,0,0,0,4.77,1.13h11.4a10.67,10.67,0,0,0,5-1.25,10.64,10.64,0,0,0,9.91,6.76h18.37a10.65,10.65,0,0,0,6.38-2.14,10.67,10.67,0,0,0,6.38,2.14h18.38a10.67,10.67,0,0,0,9.86-6.64,10.67,10.67,0,0,0,4.77,1.13h11.4a10.67,10.67,0,0,0,5-1.25A10.65,10.65,0,0,0,449,314h18.38a10.64,10.64,0,0,0,6.72-2.4,10.56,10.56,0,0,0,6.72,2.4h50.11a10.54,10.54,0,0,0,6.13-2,10.59,10.59,0,0,0,6.14,2h18.37a10.64,10.64,0,0,0,9.63-6.1L572,309a10.64,10.64,0,0,0,9,4.92h21.41a10.65,10.65,0,0,0,8.74-16.74ZM315,261.26a10.63,10.63,0,0,0-4.21,2.17l.29-11.81,5.55,9.35A10.33,10.33,0,0,0,315,261.26Zm46-.5c-.27-.07-.53-.12-.79-.17l4.78-8,.27,10.42A10.57,10.57,0,0,0,361,260.76Zm44.53.5a10.57,10.57,0,0,0-4.21,2.17l.28-11.81,5.55,9.35A10.21,10.21,0,0,0,405.5,261.26Zm45.94-.5c-.26-.07-.52-.12-.79-.17l4.79-8L455.7,263A10.51,10.51,0,0,0,451.44,260.76Zm40,8.51v-1.79c.28.31.59.61.91.9A10.94,10.94,0,0,0,491.48,269.27Zm62.38,9v-1c.16.17.32.33.49.49C554.18,278,554,278.13,553.86,278.29Z"/><path class="cls-158" d="M157.65,290.35l8.74-14.74c6.48,5,11.89,7.27,20.34,7.27,4.52,0,7-1.77,7-4.81,0-3.54-2.55-4.92-12.28-7.77-14.93-4.42-20.73-10.11-20.73-20.53,0-13.16,10.71-21.71,27.12-21.71a42.35,42.35,0,0,1,25.05,7.56l-7.86,14a32.71,32.71,0,0,0-17.59-5.6c-5.1,0-7.76,1.38-7.76,4.23,0,2.65,1.87,3.83,12,6.88,14.54,4.32,20.73,10.7,20.73,21.22,0,14.24-9.83,22.49-26.92,22.49C174.35,298.89,165.11,295.75,157.65,290.35Z"/><path class="cls-158" d="M222.78,267.06V228.94h18.76v39.6c0,6.38,3.24,13.65,13,13.65s13.26-7.27,13.26-13.65v-39.6h18.77v38.12c0,21-12.78,31.83-32,31.83C235.55,298.89,222.78,288.09,222.78,267.06Z"/><path class="cls-158" d="M358.54,298l-.2-32.22-14.73,26.72h-11.4l-14.54-26.23-.1,31.73H299.2l1.67-69.07h12.28l25.15,42.35,25.15-42.35h11.69L376.91,298Z"/><path class="cls-158" d="M449,298l-.19-32.22-14.74,26.72h-11.4l-14.54-26.23L408.05,298H389.67l1.67-69.07h12.28l25.15,42.35,25.15-42.35h11.7L467.39,298Z"/><path class="cls-158" d="M530.94,281.8V298H480.83V228.94h49.91v16.31H499.4v9.83h27.51v16H499.4V281.8Z"/><path class="cls-158" d="M569.64,280.33h-8.06V298H543.21V228.94h29c17.79,0,28.3,11.2,28.3,26.14a23.52,23.52,0,0,1-13.07,21.51L602.35,298H580.94Zm-8.06-15.62h9.14c6.78,0,11-4.33,11-9.83,0-5.8-4-10.31-11.29-10.31h-8.85Z"/><path class="cls-159" d="M602.36,298H580.93l-11.29-17.69h-8.06V298H543.21V274q14.5,2.22,26.74,4.79h0c8.59,1.8,16.29,3.73,23,5.77h0Z"/><path class="cls-160" d="M212.37,276.39c0,14.25-9.83,22.5-26.91,22.5-11.11,0-20.35-3.13-27.82-8.54l1.53-2.58a178.14,178.14,0,0,1,19-5.89,32.61,32.61,0,0,0,8.51,1c4.38,0,6.83-1.65,7-4.53q8.73-1.79,18.63-3.4C212.36,275.41,212.37,275.9,212.37,276.39Z"/><path class="cls-161" d="M286.53,266.67v.4c0,21-12.76,31.82-32,31.82-17,0-29-8.68-31.32-25.62q8.88-1.26,18.49-2.4c.73,5.7,4.27,11.32,12.83,11.32,9.83,0,13.26-7.26,13.26-13.65v-.36C273.87,267.62,280.14,267.14,286.53,266.67Z"/><path class="cls-162" d="M376.92,298H358.55l-.2-32.22L343.61,292.5h-11.4l-14.53-26.22L317.57,298H299.2L300,265.8c5.78-.34,11.67-.65,17.63-.93,5.42-.25,10.93-.46,16.49-.63l4.2,7.05,4.33-7.3q7.77-.23,15.69-.35,8.78-.13,17.71-.16Z"/><path class="cls-163" d="M467.38,298H449l-.2-32.22L434.08,292.5h-11.4l-14.54-26.22L408.05,298H389.68l.83-34.5c6,0,11.84.11,17.67.23h0c5.5.09,10.95.23,16.33.39l4.25,7.16,4.07-6.87c5.41.19,10.73.43,16,.68h0q9,.43,17.71,1Z"/><path class="cls-164" d="M530.94,281.8V298H480.83V267.1c14.51,1.11,28.26,2.44,41.06,4H499.4V281.8Z"/></g></svg>