<svg xmlns="http://www.w3.org/2000/svg" xmlns:xlink="http://www.w3.org/1999/xlink" viewBox="0 0 760 330"><defs><style>.cls-1{fill:#99e1f7;}.cls-2{fill:#6596d1;}.cls-3{fill:#1c2175;}.cls-4{fill:#6da2d7;}.cls-5{fill:#5273ba;}.cls-6{fill:url(#Dégradé_sans_nom_4);}.cls-7{fill:url(#Dégradé_sans_nom_4-2);}.cls-8{fill:url(#Dégradé_sans_nom_23);}.cls-9{fill:#fff;}.cls-10{fill:url(#Dégradé_sans_nom_4-3);}.cls-11{fill:url(#Dégradé_sans_nom_4-4);}.cls-12{fill:url(#Dégradé_sans_nom_4-5);}.cls-13{fill:url(#Dégradé_sans_nom_4-6);}.cls-14{fill:url(#Dégradé_sans_nom_4-7);}.cls-15{fill:url(#Dégradé_sans_nom_4-8);}.cls-16{fill:url(#Dégradé_sans_nom_4-9);}</style><linearGradient id="Dégradé_sans_nom_4" x1="289.7" y1="202.25" x2="380" y2="202.25" gradientUnits="userSpaceOnUse"><stop offset="0" stop-color="#94e0f7"/><stop offset="1" stop-color="#fff"/></linearGradient><linearGradient id="Dégradé_sans_nom_4-2" x1="380" y1="202.25" x2="470.3" y2="202.25" xlink:href="#Dégradé_sans_nom_4"/><linearGradient id="Dégradé_sans_nom_23" x1="380" y1="197.01" x2="454.28" y2="197.01" gradientUnits="userSpaceOnUse"><stop offset="0" stop-color="#94e0f7"/><stop offset="0.01" stop-color="#99e1f7"/><stop offset="0.12" stop-color="#b8eafa"/><stop offset="0.24" stop-color="#d2f2fc"/><stop offset="0.37" stop-color="#e6f8fd"/><stop offset="0.52" stop-color="#f4fcfe"/><stop offset="0.7" stop-color="#fdfeff"/><stop offset="1" stop-color="#fff"/></linearGradient><linearGradient id="Dégradé_sans_nom_4-3" x1="205.77" y1="296.16" x2="205.77" y2="271.19" xlink:href="#Dégradé_sans_nom_4"/><linearGradient id="Dégradé_sans_nom_4-4" x1="245.66" y1="296.16" x2="245.66" y2="262.14" xlink:href="#Dégradé_sans_nom_4"/><linearGradient id="Dégradé_sans_nom_4-5" x1="292.15" y1="296.16" x2="292.15" y2="257.14" xlink:href="#Dégradé_sans_nom_4"/><linearGradient id="Dégradé_sans_nom_4-6" x1="348.8" y1="296.86" x2="348.8" y2="253.37" xlink:href="#Dégradé_sans_nom_4"/><linearGradient id="Dégradé_sans_nom_4-7" x1="421.72" y1="296.16" x2="421.72" y2="253.91" xlink:href="#Dégradé_sans_nom_4"/><linearGradient id="Dégradé_sans_nom_4-8" x1="487.79" y1="296.16" x2="487.79" y2="257.28" xlink:href="#Dégradé_sans_nom_4"/><linearGradient id="Dégradé_sans_nom_4-9" x1="556" y1="296.16" x2="556" y2="267.05" xlink:href="#Dégradé_sans_nom_4"/></defs><title>esa-big-logo-2-winter</title><g id="Calque_1" data-name="Calque 1"><path class="cls-1" d="M563.91,182.58h-23l17.65-17.65-12.5-12.5-30.15,30.15h-13l15.27-15.27-12.5-12.5-27.77,27.77H463.93l54.48-51L443.82,134l9.86-9.86H493V106.5h-21.6l9.22-9.22h42.64V79.6h-25l16.26-16.26-8.95-9L489.31,70.65v-25H471.63V88.33l-9.22,9.22V76H444.73v39.27l-9.86,9.86,2.46-74.59-51,54.48V91L414.1,63.27l-12.5-12.5L386.33,66V53l30.15-30.15L404,10.35,386.33,28V5H373.67V28L356,10.35l-12.5,12.5L373.67,53V66L358.4,50.77l-12.5,12.5L373.67,91V105l-51-54.48,2.46,74.59-9.86-9.86V76H297.59V97.55l-9.22-9.22V45.69H270.69v25L254.43,54.39l-9,9L261.74,79.6h-25V97.28h42.64l9.22,9.22H267v17.68h39.28l9.86,9.86-74.59-2.46,54.48,51H282.13l-27.77-27.77-12.5,12.5,15.27,15.27h-13l-30.15-30.15-12.5,12.5,17.65,17.65h-23v12.66h23l-17.65,17.65,12.5,12.5,30.15-30.15h13l-15.27,15.27,12.5,12.5,27.77-27.77h13.94l-54.48,51,74.59-2.46-9.86,9.86H267v9.87c2.91.52,5.82,1.21,8.68,2l3.44,1c9.44-1.57,19.39-2.52,28.67,0a34,34,0,0,1,7.44,3.11v-7l9.86-9.86-.53,16.15c3.43-.6,6.88-1,10.28-1.34,8.74-.81,17.46-1.74,26.24-1.64A52.35,52.35,0,0,1,384.76,262a48.2,48.2,0,0,1,21.45-2.53,41,41,0,0,1,14-2.08,43.89,43.89,0,0,1,4.68.4A50.05,50.05,0,0,1,435,255.23l-.08-2.5,2.25,2.25a41.46,41.46,0,0,1,29.29,7.81c1.26.37,2.51.79,3.74,1.24a69.15,69.15,0,0,1,11.83-.76,39.34,39.34,0,0,1,8.1-2c1-.13,1.92-.21,2.88-.27v-7.36H453.68l-9.86-9.86,74.59,2.46-54.48-51h13.94L505.64,223l12.5-12.5-15.27-15.27h13l30.15,30.15,12.5-12.5-17.65-17.65h23Z"/><path class="cls-2" d="M226.49,209.53l10.75,10.74,25.92-25.92h11.21l-13.13,13.13L272,218.23l23.87-23.88h12L261,238.2l64.12-2.11-8.47,8.47H282.89v15.2h18.57l-5.2,5.2a47.51,47.51,0,0,1,11.57,1.51,35.62,35.62,0,0,1,9.14,4.09c2.42-.66,4.9-1.19,7.38-1.64V252.25l8.48-8.47-.8,24c1-.11,1.9-.2,2.85-.29,8.74-.81,17.46-1.74,26.24-1.64a52,52,0,0,1,12.1-3.4l1.34-1.44v1.25a52.7,52.7,0,0,1,10.2-.33l.68-.23v-.69l.49.52a48.64,48.64,0,0,1,14.46-2.41,47.73,47.73,0,0,1,5.82.28,41,41,0,0,1,14-2.08,43.89,43.89,0,0,1,4.68.4c.9-.33,1.81-.63,2.72-.91l-.43-13.08,8.48,8.47v2.88a42.54,42.54,0,0,1,26.08,4.63h15.38v-15.2H443.34l-8.47-8.47L499,238.2l-46.84-43.85h12L488,218.23l10.75-10.75-13.13-13.13h11.21l25.92,25.92,10.75-10.74-15.17-15.18h19.77V183.47H518.34l15.17-15.17-10.75-10.75-25.92,25.92H485.63l13.13-13.13L488,159.59l-23.87,23.88h-12L499,139.62l-64.12,2.12,8.47-8.48h33.77v-15.2H458.54l7.93-7.92h36.66V94.94H481.67l14-14L488,73.27l-14,14V65.79h-15.2v36.65l-7.92,7.93V91.8h-15.2v33.77L427.17,134l2.12-64.12-43.85,46.84v-12L409.32,80.9,398.57,70.15,385.44,83.28V72.07l25.92-25.92L400.61,35.4,385.44,50.57V30.8H374.56V50.57L359.39,35.4,348.64,46.15l25.92,25.92V83.28L361.43,70.15,350.68,80.9l23.88,23.87v12L330.71,69.92,332.83,134l-8.48-8.47V91.8h-15.2v18.57l-7.92-7.93V65.79H286V87.24l-14-14L264.35,81l14,14H256.87v15.2h36.66l7.93,7.92H282.89v15.2h33.77l8.47,8.48L261,139.62l46.84,43.85h-12L272,159.59l-10.75,10.75,13.13,13.13H263.16l-25.92-25.92L226.49,168.3l15.17,15.17H221.89v10.88h19.77Z"/></g><g id="Calque_2" data-name="Calque 2"><path class="cls-3" d="M380,287a5.62,5.62,0,0,1-2.13-.42l-90.3-37.5a5.55,5.55,0,0,1-3.42-5.12V211.91a5.55,5.55,0,0,1,3.42-5.13l.62-.25-.62-.26a5.55,5.55,0,0,1-3.42-5.12v-78.1a5.55,5.55,0,0,1,3.42-5.12l90.3-37.51a5.61,5.61,0,0,1,4.26,0L407.61,91a5.55,5.55,0,0,1,3,3,5.6,5.6,0,0,1,4.22,0l26.48,11a5.54,5.54,0,0,1,3,3,5.55,5.55,0,0,1,4.2,0l24,10a5.55,5.55,0,0,1,3.42,5.12V244a5.55,5.55,0,0,1-3.42,5.12l-21.05,8.74a5.59,5.59,0,0,1-4.25,0l-22.6-9.39a5.55,5.55,0,0,1-3.42-5.12V228.69l-14.36,6v38a5.55,5.55,0,0,1-3.42,5.12l-21.2,8.81A5.62,5.62,0,0,1,380,287Zm-84.76-46.74L380,275.45l15.66-6.5V231a5.55,5.55,0,0,1,3.42-5.13l25.44-10.56a5.54,5.54,0,0,1,7.68,5.12v19.23l17.06,7.08,15.5-6.43V126.75l-18.42-7.64-5,2.1a5.55,5.55,0,0,1-7.68-5.12v-2.27l-20.94-8.7-5.07,2.1a5.55,5.55,0,0,1-7.67-5.12V99.83L380,91.55l-84.76,35.2v70.7l9.53,4a5.55,5.55,0,0,1,0,10.25l-9.53,4Z"/><path class="cls-4" d="M470.3,123.05,380,160.55l-90.3-37.5L380,85.55l25.48,10.58-68.75,28.55,7.18,3c19.54-8.11,53.85-22.35,68.75-28.55h0l26.49,11L370.4,138.66l7.19,3,68.75-28.55Z"/><path class="cls-1" d="M405.48,102.1l-61.57,25.56-7.18-3,68.75-28.55Z"/><path class="cls-1" d="M439.16,116.08l-61.57,25.57-7.19-3,68.76-28.54Z"/><path class="cls-5" d="M358.2,229.6v10.75L289.7,211.9l12.94-5.37Z"/><path class="cls-6" d="M311.13,165.59v10.75L380,204.94v76.52L289.7,244V211.9l68.5,28.45V229.6l-55.56-23.07-12.94-5.38v-78.1l90.3,37.5v33.64Z"/><path class="cls-3" d="M324.07,171l-12.94,5.37V165.59Z"/><path class="cls-5" d="M380,194.19v10.75l-68.87-28.6h0L324.07,171Z"/><path class="cls-7" d="M380,160.55V281.46l21.21-8.81V230.94l25.44-10.56L449.26,211V252.7l21-8.74V123.05Zm69.26,15.62-48.05,20V185.51l48.05-20Z"/><path class="cls-8" d="M430.84,139.44l-24.16,43.78,23.43-9.71,24.17-43.81ZM422,143.09,407.87,149,380,199.48v19.78l19.23-34.84Zm-20.83,53v-3L380,231.57v32.75l19.07-34.55,23.44-42.49Z"/><path class="cls-3" d="M449.26,165.55v10.62l-13-5.21Z"/><path class="cls-5" d="M449.26,176.17l-48.05,20V185.51l35-14.55Z"/><path class="cls-5" d="M449.26,211V252.7l-22.61-9.39V220.38Z"/><path class="cls-3" d="M595.78,307.56a10.86,10.86,0,0,1-9.63,5.83H564.31a10.85,10.85,0,0,1-9.14-5l-.78-1.21a10.86,10.86,0,0,1-9.82,6.21H525.84a10.79,10.79,0,0,1-6.25-2,10.84,10.84,0,0,1-6.26,2H462.24a10.85,10.85,0,0,1-10.85-10.85V259.8h-9.26v42.74a10.85,10.85,0,0,1-10.85,10.85H412.16a10.85,10.85,0,0,1-10.85-10.85V259.8h-9.16v43.44a10.85,10.85,0,0,1-10.85,10.85H370.78a10.87,10.87,0,0,1-8-3.53l-16.9-18.51v10.49A10.86,10.86,0,0,1,335,313.39H316.3A10.73,10.73,0,0,1,309,310.6a10.82,10.82,0,0,1-7.26,2.79H282.53a10.85,10.85,0,0,1-10.85-10.85v-26L261.89,306a10.85,10.85,0,0,1-10.29,7.43H237.46a10.87,10.87,0,0,1-10.3-7.43L224.52,298l-2.45,7.79a10.85,10.85,0,0,1-10.36,7.59H197.29A10.84,10.84,0,0,1,187,306l-23.44-70.42a10.84,10.84,0,0,1,10.29-14.28h20.64a10.85,10.85,0,0,1,10.48,8l1.27,4.72,1.49-5a10.87,10.87,0,0,1,10.41-7.75h12.42A10.86,10.86,0,0,1,240.94,229l2.17,7.17,1.94-6.94a10.84,10.84,0,0,1,10.44-7.94H275a10.76,10.76,0,0,1,3.74.67,10.53,10.53,0,0,1,3.75-.67h19.24a10.84,10.84,0,0,1,6.83,2.41,10.78,10.78,0,0,1,7.7-3.2h10.6a10.91,10.91,0,0,1,8,3.44L351.72,242v-9.91a10.86,10.86,0,0,1,10.85-10.85H381.3a10.61,10.61,0,0,1,4.16.83,10.64,10.64,0,0,1,4.15-.83h64.52a10.71,10.71,0,0,1,4.05.79,10.76,10.76,0,0,1,4.06-.79h50.89a10.67,10.67,0,0,1,6.35,2.07,10.73,10.73,0,0,1,6.36-2.07H555.4c23.37,0,39.7,15.42,39.7,37.51A34.64,34.64,0,0,1,585.73,283l9.32,13.38A10.87,10.87,0,0,1,595.78,307.56Z"/><path class="cls-9" d="M275,225.73l-23.44,70.43H237.46l-13.22-39.78-12.52,39.78H197.29l-23.44-70.43h20.64L202.6,256l3.21,11.62,3.3-11.72,9-30.15h12.42l8.92,29.45,3.91,13.63,3.9-13.63,8.22-29.45Z"/><path class="cls-9" d="M282.53,225.73h19.24v70.43H282.53Z"/><path class="cls-9" d="M381.31,225.73v71.13H370.79L335,257.69v38.47H316.29V224.93h10.62l35.66,38.27V225.73Z"/><path class="cls-9" d="M454.13,242.56H431.29v53.6H412.15v-53.6H389.61V225.73h64.52Z"/><path class="cls-9" d="M513.33,279.63v16.53H462.24V225.73h50.89v16.63h-32v10h28.05v16.33H481.17v10.92Z"/><path class="cls-9" d="M552.79,278.12h-8.21v18H525.84V225.73h29.55c18.14,0,28.86,11.42,28.86,26.65,0,9.82-5,17.53-13.33,21.94l15.23,21.84H564.31Zm-8.21-15.92h9.31c6.91,0,11.22-4.41,11.22-10,0-5.91-4.11-10.52-11.52-10.52h-9Z"/><path class="cls-10" d="M192,280.14a253.69,253.69,0,0,1,27.63-8.95l-7.87,25H197.29Z"/><path class="cls-11" d="M244.33,265.47c6-1.19,12.17-2.31,18.58-3.33l-11.33,34H237.46L228.41,269c4.55-1.08,9.25-2.13,14.11-3.11Z"/><path class="cls-12" d="M282.53,259.3c6.25-.79,12.68-1.52,19.24-2.16v39H282.53Z"/><path class="cls-13" d="M381.3,253.37v43.49H370.78L335,257.69v38.47H316.3V255.85c12.11-.95,24.65-1.64,37.52-2l8.75,9.4v-9.63q9.26-.21,18.71-.2Z"/><path class="cls-14" d="M412.16,253.91q9.69.34,19.12.91v41.34H412.16Z"/><path class="cls-15" d="M481.17,279.63h32.16v16.53H462.24V257.28c16.7,1.68,32.44,3.86,47,6.49v4.94H481.17Z"/><path class="cls-16" d="M586.15,296.16H564.31l-11.52-18h-8.22v18H525.84V267.05c20.21,4.4,37.5,9.72,50.95,15.69Z"/></g></svg>